<?xml version="1.0" encoding="UTF-8"?>
<svg width="148px" height="148px" viewBox="0 0 148 148" version="1.1" xmlns="http://www.w3.org/2000/svg" xmlns:xlink="http://www.w3.org/1999/xlink">
    <defs>
        <polygon id="icon-advice-path-1" points="0 1.33567455 63.7241379 1.33567455 63.7241379 61.7636364 0 61.7636364"></polygon>
        <polygon id="icon-advice-path-3" points="0.000434482759 1.33581818 63.7241379 1.33581818 63.7241379 61.7636364 0.000434482759 61.7636364"></polygon>
    </defs>
    <g stroke="none" stroke-width="1" fill="none" fill-rule="evenodd">
        <g transform="translate(-280.000000, -3249.000000)">
            <g transform="translate(280.000000, 3249.000000)">
                <circle fill="#F3F2EE" cx="74" cy="74" r="74"></circle>
                <g transform="translate(34.000000, 37.000000)">
                    <g transform="translate(0.000000, 15.900545)">
                        <mask id="icon-advice-mask-2" fill="white">
                            <use xlink:href="#icon-advice-path-1"></use>
                        </mask>
                        <path d="M63.7241379,8.41551091 L63.7241379,38.7831109 C63.7241379,42.6914564 60.5277931,45.8615109 56.5855862,45.8615109 L31.862069,45.9649291 L17.3793103,61.7649291 L17.3793103,45.9649291 L7.13855172,45.9649291 C3.19634483,45.9649291 0,42.7948745 0,38.8836564 L0,8.51749273 C0,4.60771091 3.19634483,1.43765636 7.13855172,1.43765636 L56.5841379,1.33567455 C60.5277931,1.33567455 63.7241379,4.50572909 63.7241379,8.41551091" fill="#EBBA16" mask="url(#icon-advice-mask-2)"></path>
                    </g>
                    <path d="M31.862069,33.0365073 L13.0344828,33.0365073 C12.2335862,33.0365073 11.5862069,32.3930164 11.5862069,31.6001436 C11.5862069,30.8072709 12.2335862,30.16378 13.0344828,30.16378 L31.862069,30.16378 C32.6629655,30.16378 33.3103448,30.8072709 33.3103448,31.6001436 C33.3103448,32.3930164 32.6629655,33.0365073 31.862069,33.0365073" fill="#FFFFFF"></path>
                    <path d="M50.6896552,41.6546891 L13.0344828,41.6546891 C12.2335862,41.6546891 11.5862069,41.0111982 11.5862069,40.2183255 C11.5862069,39.4254527 12.2335862,38.7819618 13.0344828,38.7819618 L50.6896552,38.7819618 C51.4905517,38.7819618 52.137931,39.4254527 52.137931,40.2183255 C52.137931,41.0111982 51.4905517,41.6546891 50.6896552,41.6546891" fill="#FFFFFF"></path>
                    <path d="M50.6896552,50.2728709 L13.0344828,50.2728709 C12.2335862,50.2728709 11.5862069,49.62938 11.5862069,48.8365073 C11.5862069,48.0436345 12.2335862,47.4001436 13.0344828,47.4001436 L50.6896552,47.4001436 C51.4905517,47.4001436 52.137931,48.0436345 52.137931,48.8365073 C52.137931,49.62938 51.4905517,50.2728709 50.6896552,50.2728709" fill="#FFFFFF"></path>
                    <g transform="translate(20.275862, 0.100545)">
                        <mask id="icon-advice-mask-4" fill="white">
                            <use xlink:href="#icon-advice-path-3"></use>
                        </mask>
                        <path d="M56.5860207,1.43636364 L7.14043448,1.33581818 C3.19677931,1.33581818 0.000434482759,4.50587273 0.000434482759,8.41565455 L0.000434482759,17.2090727 L36.3101586,17.1343818 C40.2523655,17.1343818 43.4487103,20.3044364 43.4487103,24.2156545 L43.4487103,50.7036364 L53.5866414,61.7636364 L53.5866414,45.9636364 L56.5860207,45.9636364 C60.5282276,45.9636364 63.7245724,42.7935818 63.7245724,38.8838 L63.7245724,8.51763636 C63.7245724,4.60641818 60.5282276,1.43636364 56.5860207,1.43636364" fill="#FC852E" mask="url(#icon-advice-mask-4)"></path>
                    </g>
                </g>
            </g>
        </g>
    </g>
</svg>
