<svg width="44" height="44" xmlns="http://www.w3.org/2000/svg"><g transform="translate(2 2)" fill="none" fill-rule="evenodd"><ellipse stroke="#09333E" stroke-width="2.4" cx="19.915" cy="20" rx="19.915" ry="20"/><path d="M20.314 13.643c-3.284 0-5.932 2.66-5.932 5.957 0 3.297 2.648 5.957 5.932 5.957 3.283 0 5.931-2.66 5.931-5.957 0-3.297-2.648-5.957-5.931-5.957zm0 9.824c-2.119 0-3.85-1.734-3.85-3.867s1.726-3.867 3.85-3.867c2.123 0 3.85 1.734 3.85 3.867s-1.732 3.867-3.85 3.867zM27.91 13.33a1.353 1.353 0 1 1-2.706 0c0-.75.606-1.359 1.353-1.359s1.353.608 1.353 1.359zm3.873 1.487c-.087-1.859-.51-3.505-1.865-4.861-1.35-1.357-2.99-1.781-4.84-1.874-1.907-.11-7.622-.11-9.53 0-1.844.088-3.483.512-4.838 1.868-1.356 1.357-1.773 3.003-1.866 4.861-.108 1.916-.108 7.657 0 9.572.087 1.859.51 3.505 1.866 4.861 1.355 1.357 2.989 1.781 4.839 1.874 1.907.11 7.622.11 9.53 0 1.85-.088 3.488-.512 4.839-1.874 1.35-1.356 1.772-3.002 1.865-4.86.108-1.916.108-7.652 0-9.567zm-2.477 11.612a3.901 3.901 0 0 1-2.193 2.202c-1.518.605-5.121.465-6.8.465-1.677 0-5.286.134-6.8-.465a3.901 3.901 0 0 1-2.192-2.202c-.602-1.525-.463-5.144-.463-6.829 0-1.685-.134-5.309.463-6.829a3.901 3.901 0 0 1 2.193-2.202c1.518-.605 5.122-.465 6.8-.465s5.286-.134 6.8.465a3.901 3.901 0 0 1 2.192 2.202c.602 1.525.463 5.144.463 6.829 0 1.685.14 5.309-.463 6.829z" fill="#09333E" fill-rule="nonzero"/></g></svg>