<svg width="77" height="74" xmlns="http://www.w3.org/2000/svg"><g fill-rule="nonzero" fill="none"><path d="M38.5.123c-13.914 0-25.234 11.368-25.234 25.34 0 .759.036 1.538.106 2.317a2.266 2.266 0 0 0 1.118 1.757 2.248 2.248 0 0 0 2.074.096 20.475 20.475 0 0 1 8.67-1.905c4.316 0 8.453 1.32 11.962 3.816a2.246 2.246 0 0 0 2.608 0 20.525 20.525 0 0 1 11.962-3.816c3.026 0 5.943.641 8.67 1.905.666.308 1.44.272 2.074-.096a2.266 2.266 0 0 0 1.118-1.757c.07-.778.106-1.558.106-2.317C63.734 11.49 52.414.123 38.5.123z" fill="#6EBC4A"/><path d="M39.804 65.53a20.886 20.886 0 0 1-8.672-18.9 2.267 2.267 0 0 0-1.301-2.262c-6.714-3.11-11.299-9.624-11.965-16.997a2.266 2.266 0 0 0-1.118-1.757 2.247 2.247 0 0 0-2.074-.095A25.303 25.303 0 0 0 4.09 34.702 25.315 25.315 0 0 0 0 48.537c0 13.972 11.32 25.34 25.234 25.34a24.997 24.997 0 0 0 14.57-4.65 2.268 2.268 0 0 0 0-3.697z" fill="#FF598B"/><path d="M39.804 27.847a24.998 24.998 0 0 0-14.57-4.65c-3.683 0-7.236.782-10.56 2.322a2.266 2.266 0 0 0-1.302 2.262c.813 8.982 6.395 16.914 14.568 20.7a2.247 2.247 0 0 0 2.074-.095 2.266 2.266 0 0 0 1.118-1.757 20.793 20.793 0 0 1 8.672-15.085 2.268 2.268 0 0 0 0-3.697z" fill="#FFD97D"/><path d="M72.91 34.702a25.306 25.306 0 0 0-10.584-9.183 2.247 2.247 0 0 0-2.073.095 2.266 2.266 0 0 0-1.118 1.757c-.667 7.373-5.252 13.886-11.965 16.996a2.266 2.266 0 0 0-1.302 2.262 20.886 20.886 0 0 1-8.672 18.901 2.268 2.268 0 0 0 0 3.697 24.998 24.998 0 0 0 14.57 4.65C65.68 73.876 77 62.508 77 48.536c0-4.935-1.414-9.719-4.09-13.835z" fill="#09426D"/><path d="M62.326 25.519a24.94 24.94 0 0 0-10.56-2.321 25 25 0 0 0-14.57 4.65 2.268 2.268 0 0 0 0 3.696 20.792 20.792 0 0 1 8.672 15.085 2.266 2.266 0 0 0 1.118 1.757 2.247 2.247 0 0 0 2.074.095c8.174-3.787 13.756-11.719 14.568-20.7a2.267 2.267 0 0 0-1.302-2.262z" fill="#91E1FF"/><path d="M50.361 46.22a2.266 2.266 0 0 0-1.117-1.757 2.247 2.247 0 0 0-2.074-.096 20.475 20.475 0 0 1-8.67 1.905c-3.025 0-5.942-.641-8.67-1.904a2.246 2.246 0 0 0-2.073.095 2.266 2.266 0 0 0-1.118 1.757 25.429 25.429 0 0 0 10.557 23.008 2.246 2.246 0 0 0 2.608 0A25.429 25.429 0 0 0 50.36 46.22z" fill="#FFB8AA"/><path d="M50.361 46.22a25.32 25.32 0 0 0-10.557-18.373 2.248 2.248 0 0 0-2.608 0A25.32 25.32 0 0 0 26.639 46.22a2.267 2.267 0 0 0 1.301 2.261 24.942 24.942 0 0 0 10.56 2.321c3.683 0 7.236-.78 10.56-2.32a2.267 2.267 0 0 0 1.301-2.263z" fill="#C7EFFF"/></g></svg>