<?xml version="1.0" encoding="UTF-8"?>
<svg width="148px" height="148px" viewBox="0 0 148 148" version="1.1" xmlns="http://www.w3.org/2000/svg" xmlns:xlink="http://www.w3.org/1999/xlink">
    <g stroke="none" stroke-width="1" fill="none" fill-rule="evenodd">
        <g transform="translate(-644.000000, -3249.000000)">
            <g transform="translate(644.000000, 3249.000000)">
                <circle fill="#F3F2EE" cx="74" cy="74" r="74"></circle>
                <g  transform="translate(49.000000, 28.000000)" fill-rule="nonzero">
                    <g transform="translate(24.000000, 48.500000) scale(-1, 1) translate(-24.000000, -48.500000) ">
                        <path d="M26.4970545,60 L31.8033873,60 C39.0802651,60 45,54.1989255 45,47.0686337 L45,44.4470011 C45,43.0954136 43.8821796,42 42.5029455,42 L37.1958762,42 C29.9189986,42 24,47.8010743 24,54.9313663 L24,57.5529987 C24,58.9045862 25.1178204,60 26.4970545,60 L26.4970545,60 Z" fill="#00CAB1"></path>
                        <path d="M21.5022967,54 L16.1961499,54 C8.91952737,54 3,48.1989255 3,41.0679122 L3,38.4470013 C3,37.0954136 4.11778122,36 5.49696698,36 L10.8038501,36 C18.0804726,36 24,41.8010745 24,48.9313663 L24,51.5529987 C24,52.9045864 22.8814825,54 21.5022967,54 Z" fill="#00ECCF"></path>
                        <path d="M24,70 C22.34375,70 21,68.7211633 21,67.143262 L21,30.856738 C21,29.2788367 22.34375,28 24,28 C25.6570312,28 27,29.2788367 27,30.856738 L27,67.143262 C27,68.7211633 25.6570312,70 24,70 Z" fill="#C7FFCF"></path>
                        <path d="M27,67.143262 L27,30.856738 C27,29.2788367 25.6570312,28 24,28 L24,70 C25.6570312,70 27,68.7211633 27,67.143262 Z" fill="#00ECCF"></path>
                        <path d="M36.1337844,97 L11.8655949,97 C10.4812645,97 9.29975279,95.9935102 9.07259575,94.6198777 L6.03916429,76.3161506 C5.75153028,74.5798258 7.08497161,73 8.83290087,73 L39.1672159,73 C40.9173576,73 42.247849,74.5827926 41.9609524,76.3161506 L38.927521,94.6198777 C38.6996265,95.9935102 37.5181148,97 36.1337844,97 L36.1337844,97 Z" fill="#00347B"></path>
                        <path d="M39.159642,73 L24,73 L24,97 L36.1181002,97 C37.5061318,97 38.6908024,95.9935102 38.9193063,94.6198777 L41.960848,76.3161506 C42.2485116,74.5827926 40.914463,73 39.159642,73 L39.159642,73 Z" fill="#001737"></path>
                        <path d="M45.1757351,79 L2.82426489,79 C1.26429988,79 0,77.7112887 0,76.1228771 L0,66.8771229 C0,65.2887113 1.26429988,64 2.82426489,64 L45.1757351,64 C46.7357001,64 48,65.2887113 48,66.8771229 L48,76.1228771 C48,77.7112887 46.7357001,79 45.1757351,79 Z" fill="#0051BD"></path>
                        <path d="M45.1700547,64 L24,64 L24,79 L45.1700547,79 C46.7331572,79 48,77.7119736 48,76.1227334 L48,66.8772666 C48,65.2887757 46.7331572,64 45.1700547,64 L45.1700547,64 Z" fill="#00347B"></path>
                        <path d="M24.0003246,34 C23.2488662,34 22.5283806,33.6966962 21.9974189,33.1554041 L9.43279933,20.363342 C4.89897583,15.7492206 4.81269459,8.19665639 9.43279933,3.49469702 C14.8722074,-2.04359989 21.5667499,0.276974172 24.0003246,1.85580552 C26.4316868,0.277724876 33.126967,-2.04510149 38.5678498,3.49469702 C43.1016733,8.10956897 43.1864796,15.6621335 38.5671124,20.3640927 L26.0024929,33.1554041 C25.4715311,33.6966962 24.7510454,34 24.0003246,34 Z" fill="#FF5E91"></path>
                        <path d="M24,1.82518306 L24,34 C24.7357322,33.9872364 25.4381899,33.6869161 25.9594877,33.1576016 L38.557884,20.3654577 C43.1896691,15.6631925 43.1046349,8.11013632 38.5586234,3.49496402 C33.1378673,-2.00915662 26.4778276,0.247750456 24,1.82518306 Z" fill="#CF0050"></path>
                    </g>
                </g>
            </g>
        </g>
    </g>
</svg>
