<?xml version="1.0" encoding="UTF-8"?>
<svg width="84px" height="77px" viewBox="0 0 84 77" version="1.1" xmlns="http://www.w3.org/2000/svg" xmlns:xlink="http://www.w3.org/1999/xlink">
    <defs>
        <polygon id="icon-review-path-1" points="0 0.335674545 63.7241379 0.335674545 63.7241379 60.7636364 0 60.7636364"></polygon>
        <polygon id="icon-review-path-3" points="0.000434482758 0.335818182 63.7241379 0.335818182 63.7241379 60.7636364 0.000434482758 60.7636364"></polygon>
    </defs>
    <g stroke="none" stroke-width="1" fill="none" fill-rule="evenodd">
        <g transform="translate(-895.000000, -4326.000000)">
            <g transform="translate(895.000000, 4326.000000)">
                <g transform="translate(0.000000, 15.900545)">
                    <mask id="icon-review-mask-2" fill="white">
                        <use xlink:href="#icon-review-path-1"></use>
                    </mask>
                    <path d="M63.7241379,7.41551091 L63.7241379,37.7831109 C63.7241379,41.6914564 60.5277931,44.8615109 56.5855862,44.8615109 L31.862069,44.9649291 L17.3793103,60.7649291 L17.3793103,44.9649291 L7.13855172,44.9649291 C3.19634483,44.9649291 0,41.7948745 0,37.8836564 L0,7.51749273 C0,3.60771091 3.19634483,0.437656364 7.13855172,0.437656364 L56.5841379,0.335674545 C60.5277931,0.335674545 63.7241379,3.50572909 63.7241379,7.41551091" fill="#5572E9" mask="url(#icon-review-mask-2)"></path>
                </g>
                <g id="Group-12" transform="translate(20.275862, 0.100545)">
                    <mask id="icon-review-mask-4" fill="white">
                        <use xlink:href="#icon-review-path-3"></use>
                    </mask>
                    <path d="M56.5860207,0.436363636 L7.14043448,0.335818182 C3.19677931,0.335818182 0.000434482758,3.50587273 0.000434482758,7.41565455 L0.000434482758,16.2090727 L36.3101586,16.1343818 C40.2523655,16.1343818 43.4487103,19.3044364 43.4487103,23.2156545 L43.4487103,49.7036364 L53.5866414,60.7636364 L53.5866414,44.9636364 L56.5860207,44.9636364 C60.5282276,44.9636364 63.7245724,41.7935818 63.7245724,37.8838 L63.7245724,7.51763636 C63.7245724,3.60641818 60.5282276,0.436363636 56.5860207,0.436363636" fill="#6DD595" mask="url(#icon-review-mask-4)"></path>
                </g>
            </g>
        </g>
    </g>
</svg>
