<svg width="148" height="148" xmlns="http://www.w3.org/2000/svg" xmlns:xlink="http://www.w3.org/1999/xlink"><defs><path id="a" d="M0 .251h81.923v72.497H0z"/></defs><g fill="none" fill-rule="evenodd"><circle fill="#F3F2EE" cx="74" cy="74" r="74"/><g transform="translate(35 42)"><mask id="b" fill="#fff"><use xlink:href="#a"/></mask><path d="M28.887 63.575c3.07 2.609 6.245 5.307 9.618 8.25a3.727 3.727 0 0 0 4.912 0 941.007 941.007 0 0 1 9.617-8.25c5.336-4.534 9.944-8.45 13.942-12.248 7.764-7.375 14.947-15.746 14.947-26.963 0-6.376-2.174-12.347-6.12-16.814C71.642 2.843 65.876.251 59.566.251c-7.043 0-13.148 3.354-17.655 9.697-.338.476-.654.952-.95 1.422a30.092 30.092 0 0 0-.951-1.422C35.504 3.605 29.398.251 22.355.251c-6.31 0-12.075 2.592-16.234 7.299C2.174 12.017 0 17.988 0 24.364c0 6.928 2.67 13.322 8.403 20.12 5.002 5.933 12.176 12.03 20.484 19.09" fill="#E5798D" mask="url(#b)"/></g></g></svg>