<svg width="84" height="77" xmlns="http://www.w3.org/2000/svg" xmlns:xlink="http://www.w3.org/1999/xlink"><defs><path id="a" d="M0 .336h63.724v60.428H0z"/><path id="c" d="M0 .336h63.724v60.428H0z"/></defs><g fill="none" fill-rule="evenodd"><g transform="translate(0 15.9)"><mask id="b" fill="#fff"><use xlink:href="#a"/></mask><path d="M63.724 7.416v30.367c0 3.908-3.196 7.079-7.138 7.079l-24.724.103-14.483 15.8v-15.8H7.14C3.196 44.965 0 41.795 0 37.884V7.517C0 3.607 3.196.437 7.139.437L56.584.337c3.944 0 7.14 3.17 7.14 7.08" fill="#5572E9" mask="url(#b)"/></g><g transform="translate(20.276 .1)"><mask id="d" fill="#fff"><use xlink:href="#c"/></mask><path d="M56.586.436L7.14.336C3.197.336 0 3.506 0 7.416v8.793l36.31-.075c3.942 0 7.139 3.17 7.139 7.082v26.488l10.138 11.06v-15.8h2.999c3.942 0 7.139-3.17 7.139-7.08V7.518c0-3.912-3.197-7.082-7.139-7.082" fill="#6DD595" mask="url(#d)"/></g></g></svg>