<?xml version="1.0" encoding="UTF-8"?>
<svg width="81px" height="81px" viewBox="0 0 81 81" version="1.1" xmlns="http://www.w3.org/2000/svg" xmlns:xlink="http://www.w3.org/1999/xlink">
    <g stroke="none" stroke-width="1" fill="none" fill-rule="evenodd">
        <g transform="translate(-905.000000, -4650.000000)" fill-rule="nonzero">
            <g transform="translate(905.000000, 4650.000000)">
                <polygon fill="#E4EDFB" points="64.3293457 81 0 81 0 20 81 20 81 64.2607422"></polygon>
                <polygon fill="#D7E1F2" points="0 21 81 21 81 31 0 31"></polygon>
                <path d="M15,10 L10,10 L10,2.5 C10,1.11938469 11.1193847,0 12.5,0 C13.8806153,0 15,1.11938469 15,2.5 L15,10 Z" fill="#BFC9D1"></path>
                <path d="M71,10 L66,10 L66,2.5 C66,1.11938469 67.1193847,0 68.5,0 C69.8806153,0 71,1.11938469 71,2.5 L71,10 Z" fill="#BFC9D1"></path>
                <polygon fill="#C8D5E8" points="64 64 64 81 81 64"></polygon>
                <g transform="translate(0.000000, 7.000000)" fill="#FF7761">
                    <path d="M81,17.7058824 L0,17.7058824 L0,5.05882353 C0,2.265108 2.26675415,0 5.0625,0 L75.9375,0 C78.7332458,0 81,2.265108 81,5.05882353 L81,17.7058824 Z"></path>
                    <path d="M27.84375,37.9411765 L53.15625,37.9411765 C54.554123,37.9411765 55.6875,39.0737304 55.6875,40.4705882 C55.6875,41.8674461 54.554123,43 53.15625,43 L27.84375,43 C26.445877,43 25.3125,41.8674461 25.3125,40.4705882 C25.3125,39.0737304 26.445877,37.9411765 27.84375,37.9411765 Z"></path>
                </g>
            </g>
        </g>
    </g>
</svg>
