<svg width="97" height="102" xmlns="http://www.w3.org/2000/svg"><g fill-rule="nonzero" fill="none"><path d="M48.44 44.802c3.869 8.94 21.095 17.39 25.66 3.203 6.204-19.273-18.359-19.279-25.66-19.279-7.303 0-31.866.006-25.663 19.28C27.343 62.19 44.57 53.74 48.44 44.801z" fill="#E1B89A"/><path d="M32.988 30.337c-7.442 2.073-13.703 6.816-10.21 17.668 3.388 10.528 13.747 8.588 20.448 3.234-10.37-.997-13.986-13.17-10.238-20.902z" fill="#D2996F"/><path d="M29.185 44.223a1.502 1.502 0 1 0-2.964.481 1.502 1.502 0 0 0 2.964-.48z" fill="#E1B89A"/><path d="M36.909 44.453a1.5 1.5 0 1 0-2.124 2.124 1.5 1.5 0 1 0 2.124-2.124z" fill="#D2996F"/><path d="M32.486 49.899a1.502 1.502 0 1 0-2.964.48 1.502 1.502 0 0 0 2.964-.48z" fill="#E1B89A"/><g fill="#D2996F"><path d="M69.636 43.034a1.502 1.502 0 1 0-.916 2.86 1.502 1.502 0 0 0 .916-2.86zM62.092 44.453a1.502 1.502 0 1 0-2.124 2.123 1.502 1.502 0 0 0 2.124-2.123zM66.248 48.686a1.502 1.502 0 1 0-.754 2.907 1.502 1.502 0 0 0 .754-2.907z"/></g><path d="M59.31 36.889l-5.819 5.82a7.144 7.144 0 0 1-10.104 0l-5.82-5.82c-2.01-2.01-1.274-5.428 1.387-6.433a26.866 26.866 0 0 1 18.97 0c2.66 1.005 3.397 4.422 1.386 6.433z" fill="#4E5660"/><path d="M45.467 28.898c-2.211.246-4.4.761-6.513 1.558-2.66 1.004-3.397 4.422-1.386 6.433l5.819 5.82a7.144 7.144 0 0 0 10.104 0l.022-.022c-6.863-.782-10.739-9.645-8.046-13.789z" fill="#383C43"/><path d="M49.74 62.4a2.13 2.13 0 0 1-2.602 0c-2.82-2.174-6.942-.823-7.927 2.597l-6.38 22.138c-1.795 6.226 2.038 12.675 8.363 14.074a33.555 33.555 0 0 0 14.49 0c6.325-1.399 10.158-7.848 8.363-14.074l-6.38-22.138c-.985-3.42-5.108-4.77-7.927-2.597z" fill="#EDA1AB"/><path d="M41.194 101.209a33.555 33.555 0 0 0 14.49 0 11.197 11.197 0 0 0 7.72-6.155c-26.263 6.586-24.265-22.052-20.015-33.66-1.881.256-3.59 1.56-4.178 3.604l-6.38 22.137c-1.795 6.226 2.038 12.675 8.363 14.074z" fill="#E26E7E"/><path d="M48.44 94.076c-.826 0-1.495-.669-1.495-1.494V69.817a1.494 1.494 0 1 1 2.988 0v22.765c0 .825-.669 1.494-1.494 1.494z" fill="#E26E7E"/><path d="M12.044 1.854c-7.818 8.009 8.126 23.03.292 31.75C4.503 42.326-1.818 24.19.476 18.56v-.004a60.788 60.788 0 0 1 11.568-16.7z" fill="#E1B89A"/><path d="M12.657 18.801c-2.146-6.296-4.82-12.637-.613-16.947C15.627-1.728 19.45.48 22.271 3.437a2.691 2.691 0 0 1-.15 3.86 49.9 49.9 0 0 0-9.468 11.493" fill="#FFD4BE"/><path d="M84.834 1.854c7.818 8.009-8.126 23.03-.292 31.75 7.833 8.721 14.153-9.415 11.859-15.045v-.004a60.77 60.77 0 0 0-11.567-16.7z" fill="#E1B89A"/><path d="M84.22 18.801c2.147-6.296 4.821-12.637.614-16.947C81.252-1.728 77.428.48 74.607 3.437a2.692 2.692 0 0 0 .15 3.86 49.88 49.88 0 0 1 9.468 11.493" fill="#FFD4BE"/></g></svg>