<svg width="148" height="148" xmlns="http://www.w3.org/2000/svg" xmlns:xlink="http://www.w3.org/1999/xlink"><defs><path id="a" d="M0 1.336h63.724v60.428H0z"/><path id="c" d="M0 1.336h63.724v60.428H0z"/></defs><g fill="none" fill-rule="evenodd"><circle fill="#F3F2EE" cx="74" cy="74" r="74"/><g transform="translate(34 52.9)"><mask id="b" fill="#fff"><use xlink:href="#a"/></mask><path d="M63.724 8.416v30.367c0 3.908-3.196 7.079-7.138 7.079l-24.724.103-14.483 15.8v-15.8H7.14C3.196 45.965 0 42.795 0 38.884V8.517c0-3.91 3.196-7.08 7.139-7.08l49.445-.101c3.944 0 7.14 3.17 7.14 7.08" fill="#EBBA16" mask="url(#b)"/></g><path d="M65.862 70.037H47.034c-.8 0-1.448-.644-1.448-1.437s.648-1.436 1.448-1.436h18.828c.801 0 1.448.643 1.448 1.436 0 .793-.647 1.437-1.448 1.437M84.69 78.655H47.034c-.8 0-1.448-.644-1.448-1.437s.648-1.436 1.448-1.436H84.69c.8 0 1.448.643 1.448 1.436 0 .793-.647 1.437-1.448 1.437M84.69 87.273H47.034c-.8 0-1.448-.644-1.448-1.436 0-.793.648-1.437 1.448-1.437H84.69c.8 0 1.448.644 1.448 1.437 0 .792-.647 1.436-1.448 1.436" fill="#FFF"/><g transform="translate(54.276 37.1)"><mask id="d" fill="#fff"><use xlink:href="#c"/></mask><path d="M56.586 1.436l-49.446-.1C3.197 1.336 0 4.506 0 8.416v8.793l36.31-.075c3.942 0 7.139 3.17 7.139 7.082v26.488l10.138 11.06v-15.8h2.999c3.942 0 7.139-3.17 7.139-7.08V8.518c0-3.912-3.197-7.082-7.139-7.082" fill="#FC852E" mask="url(#d)"/></g></g></svg>