<?xml version="1.0" encoding="UTF-8"?>
<svg width="44px" height="44px" viewBox="0 0 44 44" version="1.1" xmlns="http://www.w3.org/2000/svg" xmlns:xlink="http://www.w3.org/1999/xlink">
    <g stroke="none" stroke-width="1" fill="none" fill-rule="evenodd">
        <g transform="translate(-31.000000, -6753.000000)">
            <g transform="translate(33.000000, 6755.000000)">
                <g>
                    <ellipse id="Oval" stroke="#09333E" stroke-width="2.4" cx="19.9152542" cy="20" rx="19.9152542" ry="20"></ellipse>
                    <g transform="translate(8.762712, 8.000000)" fill="#09333E" fill-rule="nonzero">
                        <path d="M11.5508475,5.64324324 C8.26760608,5.64324324 5.6193312,8.30278738 5.6193312,11.6 C5.6193312,14.8972126 8.26760608,17.5567568 11.5508475,17.5567568 C14.8340888,17.5567568 17.4823637,14.8972126 17.4823637,11.6 C17.4823637,8.30278738 14.8340888,5.64324324 11.5508475,5.64324324 Z M11.5508475,15.4666667 C9.43241894,15.4666667 7.70056497,13.7326194 7.70056497,11.6 C7.70056497,9.46738063 9.42726461,7.73333333 11.5508475,7.73333333 C13.6744303,7.73333333 15.4011299,9.46738063 15.4011299,11.6 C15.4011299,13.7326194 13.669276,15.4666667 11.5508475,15.4666667 L11.5508475,15.4666667 Z M19.1473507,5.32972973 C19.1473507,6.08504773 18.5416185,6.68828829 17.7945488,6.68828829 C17.0424313,6.68828829 16.4417468,6.07997849 16.4417468,5.32972973 C16.4417468,4.57948097 17.0474791,3.97117117 17.7945488,3.97117117 C18.5416185,3.97117117 19.1473507,4.57948097 19.1473507,5.32972973 Z M23.0205233,6.81660158 C22.9329095,4.9581167 22.5103018,3.31188218 21.154865,1.9555506 C19.8045818,0.599219011 18.1656886,0.174718286 16.3154915,0.0815352003 C14.4086031,-0.0271784001 8.69309178,-0.0271784001 6.78620341,0.0815352003 C4.94116007,0.169541448 3.30226682,0.594042173 1.94682995,1.95037376 C0.591393082,3.30670534 0.173939142,4.95293986 0.0811715995,6.81142475 C-0.0270571998,8.72685485 -0.0270571998,14.4679683 0.0811715995,16.3833984 C0.16878539,18.2418833 0.591393082,19.8881178 1.94682995,21.2444494 C3.30226682,22.600781 4.93600631,23.0252817 6.78620341,23.1184648 C8.69309178,23.2271784 14.4086031,23.2271784 16.3154915,23.1184648 C18.1656886,23.0304586 19.8045818,22.6059578 21.154865,21.2444494 C22.5051481,19.8881178 22.9277558,18.2418833 23.0205233,16.3833984 C23.1287521,14.4679683 23.1287521,8.73203169 23.0205233,6.81660158 Z M20.5433366,18.4286362 C20.1418403,19.4418177 19.3645845,20.2223809 18.3505488,20.6307551 C16.8320689,21.2355624 13.2288964,21.0959915 11.5508475,21.0959915 C9.87279853,21.0959915 6.2644786,21.2303931 4.75114613,20.6307551 C3.74225782,20.2275502 2.96500203,19.446987 2.55835827,18.4286362 C1.95611372,16.9036948 2.09509323,13.2851896 2.09509323,11.6 C2.09509323,9.91481044 1.96126111,6.29113595 2.55835827,4.77136377 C2.95985464,3.75818232 3.73711043,2.97761906 4.75114613,2.5692449 C6.26962599,1.9644376 9.87279853,2.10400852 11.5508475,2.10400852 C13.2288964,2.10400852 16.8372163,1.9696069 18.3505488,2.5692449 C19.3594371,2.97244977 20.1366929,3.75301303 20.5433366,4.77136377 C21.1455812,6.29630525 21.0066017,9.91481044 21.0066017,11.6 C21.0066017,13.2851896 21.1455812,16.908864 20.5433366,18.4286362 Z"></path>
                    </g>
                </g>
            </g>
        </g>
    </g>
</svg>
