<svg width="148" height="148" xmlns="http://www.w3.org/2000/svg"><g fill="none" fill-rule="evenodd"><circle fill="#F3F2EE" cx="74" cy="74" r="74"/><g fill-rule="nonzero"><path d="M70.503 88h-5.306C57.92 88 52 82.199 52 75.069v-2.622C52 71.095 53.118 70 54.497 70h5.307C67.081 70 73 75.801 73 82.931v2.622C73 86.905 71.882 88 70.503 88z" fill="#00CAB1"/><path d="M75.498 82h5.306C88.08 82 94 76.199 94 69.068v-2.621C94 65.095 92.882 64 91.503 64h-5.307C78.92 64 73 69.801 73 76.931v2.622C73 80.905 74.119 82 75.498 82z" fill="#00ECCF"/><path d="M73 98c1.656 0 3-1.279 3-2.857V58.857C76 57.279 74.656 56 73 56c-1.657 0-3 1.279-3 2.857v36.286C70 96.721 71.343 98 73 98z" fill="#C7FFCF"/><path d="M70 95.143V58.857C70 57.279 71.343 56 73 56v42c-1.657 0-3-1.279-3-2.857z" fill="#00ECCF"/><path d="M60.866 125h24.268a2.836 2.836 0 0 0 2.793-2.38l3.034-18.304c.287-1.736-1.046-3.316-2.794-3.316H57.833c-1.75 0-3.08 1.583-2.794 3.316l3.033 18.304a2.837 2.837 0 0 0 2.794 2.38z" fill="#00347B"/><path d="M57.84 101H73v24H60.882a2.843 2.843 0 0 1-2.801-2.38l-3.042-18.304c-.288-1.733 1.047-3.316 2.801-3.316z" fill="#001737"/><path d="M51.824 107h42.352c1.56 0 2.824-1.289 2.824-2.877v-9.246C97 93.29 95.736 92 94.176 92H51.824C50.264 92 49 93.289 49 94.877v9.246c0 1.588 1.264 2.877 2.824 2.877z" fill="#0051BD"/><path d="M51.83 92H73v15H51.83c-1.563 0-2.83-1.288-2.83-2.877v-9.246C49 93.29 50.267 92 51.83 92z" fill="#00347B"/><path d="M73 62c.751 0 1.472-.303 2.003-.845l12.564-12.792c4.534-4.614 4.62-12.166 0-16.868-5.44-5.539-12.134-3.218-14.567-1.64-2.432-1.577-9.127-3.9-14.568 1.64-4.534 4.615-4.618 12.167 0 16.87l12.566 12.79A2.804 2.804 0 0 0 73 62z" fill="#FF5E91"/><path d="M73 29.825V62a2.816 2.816 0 0 1-1.96-.842L58.443 48.365c-4.632-4.702-4.547-12.255 0-16.87 5.42-5.504 12.08-3.247 14.558-1.67z" fill="#CF0050"/></g></g></svg>