<svg width="81" height="81" xmlns="http://www.w3.org/2000/svg"><g fill-rule="nonzero" fill="none"><path fill="#E4EDFB" d="M64.33 81H0V20h81v44.26z"/><path fill="#D7E1F2" d="M0 21h81v10H0z"/><path d="M15 10h-5V2.5a2.5 2.5 0 0 1 5 0V10zM71 10h-5V2.5a2.5 2.5 0 0 1 5 0V10z" fill="#BFC9D1"/><path fill="#C8D5E8" d="M64 64v17l17-17z"/><g fill="#FF7761"><path d="M81 24.706H0V12.059A5.06 5.06 0 0 1 5.063 7h70.874A5.06 5.06 0 0 1 81 12.059v12.647zM27.844 44.941h25.312a2.53 2.53 0 1 1 0 5.059H27.844a2.53 2.53 0 1 1 0-5.059z"/></g></g></svg>