<?xml version="1.0" encoding="UTF-8"?>
<svg width="245px" height="281px" viewBox="0 0 245 281" version="1.1" xmlns="http://www.w3.org/2000/svg" xmlns:xlink="http://www.w3.org/1999/xlink">
    <!-- Generator: Sketch 54.1 (76490) - https://sketchapp.com -->
    <title>Group 108</title>
    <desc>Created with Sketch.</desc>
    <defs>
        <polygon id="path-1" points="0.63299767 0.581405008 234.478425 0.581405008 234.478425 153.576093 0.63299767 153.576093"></polygon>
        <polygon id="path-3" points="0.970405128 0.0183610387 21.8698858 0.0183610387 21.8698858 14.6666667 0.970405128 14.6666667"></polygon>
        <polygon id="path-5" points="0.0714804979 0.810190476 9.17722979 0.810190476 9.17722979 17.7644549 0.0714804979 17.7644549"></polygon>
        <polygon id="path-7" points="0.708032046 0.710819048 22.1088447 0.710819048 22.1088447 20.1428571 0.708032046 20.1428571"></polygon>
        <polygon id="path-9" points="0 0.00188333333 29.697948 0.00188333333 29.697948 19.0428449 0 19.0428449"></polygon>
    </defs>
    <g id="Page-1" stroke="none" stroke-width="1" fill="none" fill-rule="evenodd">
        <g id="iPhone-XS" transform="translate(-62.000000, -6194.000000)">
            <g id="Group-108" transform="translate(62.000000, 6193.000000)">
                <g id="Group-3" transform="translate(10.068493, 60.737429)">
                    <mask id="mask-2" fill="white">
                        <use xlink:href="#path-1"></use>
                    </mask>
                    <g id="Clip-2"></g>
                    <path d="M233.427386,87.4326452 C225.58403,66.9160262 218.285491,80.7687167 218.285491,80.7687167 C218.285491,80.7687167 232.298596,54.9612405 227.026062,46.0513833 C219.9054,34.0149071 199.729258,59.2874786 199.729258,59.2874786 C199.729258,59.2874786 217.694806,17.5570738 206.694418,13.7489548 C201.76645,12.0424071 196.782546,17.3175976 192.780879,23.6592405 C195.904349,14.9038119 196.745628,5.23076429 187.408779,0.85305 C176.931952,-4.05956905 162.377386,59.2874786 162.377386,59.2874786 L73.3025457,80.6299548 C73.3025457,80.6299548 98.3507192,52.92905 80.9590753,45.5601214 C69.4519064,40.6833119 58.2512671,54.1678357 51.9875457,63.8509548 C58.7412671,51.167669 62.9208105,26.6538119 49.728847,23.6972881 C34.5545091,20.2976214 30.2362443,52.4400262 29.1522032,64.5772167 C29.4900571,59.110669 29.8390982,50.1918595 28.8244178,46.5415262 C15.3908105,-1.84833095 -6.75092466,47.360669 3.07144977,97.7983833 C11.0367466,138.695098 127.694783,156.417455 157.91145,153.208026 C204.177295,148.296526 241.269623,107.951502 233.427386,87.4326452" id="Fill-1" fill="#DBDACC" mask="url(#mask-2)"></path>
                </g>
                <g id="Group-6" transform="translate(105.159817, 266.523143)">
                    <mask id="mask-4" fill="white">
                        <use xlink:href="#path-3"></use>
                    </mask>
                    <g id="Clip-5"></g>
                    <path d="M21.8698858,0.0681309524 L21.8698858,14.6672262 L20.3842237,14.6672262 L19.2509589,6.87194048 L17.3435388,12.5298452 C16.9128311,13.8066786 15.7146804,14.6672262 14.3677397,14.6672262 L2.2989726,14.6672262 C1.49237443,14.6672262 0.83456621,13.9420833 0.994543379,13.1531548 C1.02810502,12.9830595 1.09746575,12.8398214 1.21716895,12.7514167 C1.75639269,12.3541548 9.36817352,12.9438929 11.5228311,11.3570833 C13.6763699,9.77027381 17.5538584,-0.792416667 21.8698858,0.0681309524" id="Fill-4" fill="#344252" mask="url(#mask-4)"></path>
                </g>
                <path d="M125.723037,261.993779 C125.723037,261.993779 128.481804,266.736302 126.042991,268.177636 C120.060068,271.714945 122.145365,278.60604 118.065388,279.603112 C114.731598,280.418898 108.915365,280.197326 106.900548,280.088779 C106.494452,280.066398 106.221484,279.651231 106.376986,279.274112 C106.783082,278.287112 108.090868,276.803255 112.174201,276.247088 C115.591895,275.781564 116.592032,262.825231 116.592032,262.825231 C116.592032,262.825231 121.877991,258.542636 125.723037,261.993779" id="Fill-7" fill="#FFC8A6"></path>
                <path d="M112.126879,275.958933 C111.046194,276.384171 110.093043,276.575529 109.341263,276.842981 L112.767906,280.175505 C114.658546,280.119552 116.601765,279.960648 118.066171,279.602552 C119.170349,279.332862 119.822564,278.6301 120.30697,277.67891 C118.136651,275.79779 115.578135,274.572433 114.017518,273.931219 C113.430189,274.939481 112.780212,275.701552 112.126879,275.958933" id="Fill-9" fill="#344252"></path>
                <path d="M126.739059,51.3680905 L80.6701096,53.6632571 C80.6701096,53.6632571 64.5761826,8.9136619 57.8806347,10.8272333 C51.1873242,12.7396857 46.9786941,45.057781 68.2109087,72.4341619 C81.2272329,89.2187571 121.121959,75.3436857 121.121959,75.3436857 L126.739059,51.3680905 Z" id="Fill-11" fill="#EFEFEF"></path>
                <path d="M190.814279,138.406831 L218.755466,138.406831 C220.587932,138.406831 221.148411,140.888879 219.493822,141.677807 C214.119484,144.238188 197.507589,160.669164 188.136059,164.30495 C178.76453,167.939617 184.112018,179.576593 179.333959,185.124831 C174.5559,190.673069 142.244986,194.882926 137.55195,179.76795 C132.858913,164.652974 190.814279,138.406831 190.814279,138.406831" id="Fill-13" fill="#344252"></path>
                <path d="M142.466717,45.7520381 C142.876169,47.8692762 143.500416,50.2494905 144.662767,48.9245381 C146.260301,47.1038476 147.374548,43.3998 147.599411,41.1717762 C146.302813,43.3214667 143.533977,45.114181 142.466717,45.7520381" id="Fill-15" fill="#344252"></path>
                <path d="M124.803224,59.62655 C124.059274,59.4318357 123.316443,59.2371214 122.579205,59.040169 C110.385142,55.7859786 96.6136804,69.4685738 87.0027443,69.0455738 C77.3906895,68.6236929 71.6527671,64.8760024 70.3617626,59.040169 C69.070758,53.2032167 62.7589315,49.0918357 58.3232009,39.908931 C56.0443653,35.1910262 53.9467626,30.9677405 52.4451134,27.973169 C52.4040457,40.1987643 56.310621,57.0919071 68.2104612,72.43405 C81.2279041,89.2186452 121.120393,75.3435738 121.120393,75.3435738 L124.803224,59.62655 Z" id="Fill-17" fill="#E5E5E5"></path>
                <path d="M108.671372,67.1008929 C108.671372,67.1008929 104.546646,74.5414405 103.057628,79.70025 C106.673336,79.13625 110.026144,78.4144643 112.839728,77.7195357 L108.671372,67.1008929 Z" id="Fill-19" fill="#344252"></path>
                <path d="M153.558952,120.892729 C152.972742,112.409229 155.393655,103.976086 160.145984,96.9260857 C163.108358,92.5327048 165.848107,87.9255857 166.713998,84.4632524 C170.583655,68.9857048 164.233792,59.7412524 147.779637,54.8062524 C136.910139,51.5453476 120.133792,48.1971571 111.153815,56.9906333 C106.85345,61.1993714 109.019295,72.9661571 110.802537,82.4198714 C112.957194,93.8341571 109.282194,104.024205 98.6834269,108.771205 C94.1548425,110.798919 155.286258,145.884419 153.558952,120.892729" id="Fill-21" fill="#FFC8A6"></path>
                <g id="Group-25" transform="translate(53.698630, 0.308857)">
                    <mask id="mask-6" fill="white">
                        <use xlink:href="#path-5"></use>
                    </mask>
                    <g id="Clip-24"></g>
                    <path d="M8.69101142,14.1027976 C8.69101142,14.1027976 8.0801895,9.99589286 8.71562329,8.53217857 C9.90818037,5.78939286 8.50530365,5.59467857 7.70765525,6.53244048 C6.91000685,7.47020238 6.81267808,8.33858333 6.81267808,8.33858333 C6.81267808,8.33858333 4.15123973,1.60527381 2.74724429,0.908107143 C1.34324886,0.213178571 2.52238128,3.38008333 2.92847717,4.74755952 C3.33345434,6.11503571 1.42044064,6.04229762 0.329687215,8.91825 C-0.76106621,11.7930833 1.77171918,16.83775 4.77884247,17.661369 C7.78484703,18.4849881 8.69101142,14.1027976 8.69101142,14.1027976" id="Fill-23" fill="#FFC8A6" mask="url(#mask-6)"></path>
                </g>
                <path d="M135.821064,120.552314 C141.889009,122.204029 147.937936,120.485171 153.500219,117.159362 C153.742982,109.960529 156.092297,102.939624 160.145425,96.9258619 C163.107799,92.532481 165.848667,87.9253619 166.713438,84.4630286 C170.583096,68.985481 164.233233,59.7421476 147.779078,54.8060286 C136.910699,51.5451238 120.134352,48.1969333 111.153256,56.9904095 C106.85289,61.1991476 109.018735,72.9670524 110.803096,82.4196476 C112.207091,89.8523619 111.134237,96.7658381 107.290311,101.995148 C110.253804,106.074076 118.904877,115.948552 135.821064,120.552314" id="Fill-26" fill="#EFEFEF"></path>
                <path d="M147.779637,54.8061405 C145.12603,54.0104976 142.117788,53.2103786 138.958518,52.5814738 C138.616189,54.5979976 137.650733,56.60445 135.618016,58.2763071 C135.618016,58.2763071 140.177925,73.6296405 141.635619,78.5086881 C143.093313,83.3877357 131.853518,80.9661167 130.961897,87.83595 C130.071395,94.7057833 136.242263,100.175688 135.219751,107.207783 C134.773381,110.281807 130.243678,113.712807 125.287742,116.59995 C128.370938,118.110664 131.866943,119.477021 135.821623,120.552426 C141.88845,122.20414 147.938495,120.485283 153.49966,117.159474 C153.742422,109.96064 156.092856,102.939736 160.145984,96.9259738 C163.10724,92.5325929 165.848107,87.9254738 166.713998,84.4631405 C170.583655,68.9855929 164.233792,59.7422595 147.779637,54.8061405" id="Fill-28" fill="#E5E5E5"></path>
                <path d="M135.821064,120.552314 C118.904877,115.948552 110.253804,106.074076 107.290311,101.995148 C105.230744,104.796124 102.379123,107.11591 98.6839863,108.770981 C94.1554018,110.799814 86.338895,114.616886 80.5383242,117.756933 C56.625653,130.705433 50.3552192,136.429362 41.7544886,161.592267 C33.358484,186.155362 9.3943516,247.97491 19.3207671,252.244076 C22.4878676,253.604838 36.1843744,256.061148 38.6578676,250.271195 C53.0043516,216.694171 73.8908813,164.223148 78.4463151,157.868076 C81.8270913,153.149052 84.5254475,148.430029 97.106589,147.1711 C92.423621,165.410457 60.750379,261.758219 83.5197169,262.642267 C86.2516347,262.747457 93.7459498,263.076457 95.6634384,260.824933 C109.892457,244.09741 120.435288,171.557386 121.217274,163.109695 C122.132388,153.226267 155.285699,145.884195 153.558393,120.892505 C153.472251,119.644767 153.458826,118.400386 153.500219,117.159362 C147.937936,120.485171 141.889009,122.204029 135.821064,120.552314" id="Fill-30" fill="#344252"></path>
                <path d="M143.754813,44.9384905 L146.143283,55.4194905 C146.010155,56.8932762 137.685749,60.1888714 135.546753,58.0951333 C134.921388,57.4830143 135.250292,56.090919 136.042347,54.6260857 L140.679447,46.6797286 L143.754813,44.9384905 Z" id="Fill-32" fill="#FFC8A6"></path>
                <path d="M139.747553,48.2770571 C141.398785,48.1506048 143.654128,47.9502952 143.654128,47.9502952 C143.654128,47.9502952 143.256982,50.5196286 140.801388,52.2396048 C139.502553,53.1493905 138.054927,53.5030095 136.720292,53.4649619 L139.747553,48.2770571 Z" id="Fill-34" fill="#344252"></path>
                <path d="M141.880059,40.9524429 L143.590584,46.8710857 C144.000037,48.8641095 142.751543,50.8258 140.771406,51.2879667 C139.187297,51.6572524 138.171498,51.623681 136.172342,51.3103476 C134.507685,51.0496095 133.705562,49.414681 133.782753,47.2224667 C133.88232,44.3789667 134.781772,41.7883714 135.341132,40.4287286 C136.615356,37.3289667 140.482776,37.1767762 141.880059,40.9524429" id="Fill-36" fill="#FFC8A6"></path>
                <path d="M137.921911,45.0745667 C137.921911,45.0745667 136.526865,45.3677571 134.581409,45.057781 C134.581409,45.057781 134.48408,46.3312571 135.241454,46.8001381 C135.996591,47.269019 137.407299,46.5796857 137.921911,45.0745667" id="Fill-38" fill="#FFFFFF"></path>
                <path d="M135.729329,49.1169024 C137.613256,48.8069262 138.934466,51.691831 142.355516,49.1213786 C142.993187,48.6424262 143.362365,47.4506405 143.553667,46.7411643 L143.590584,46.8709738 C144.000037,48.8639976 142.751543,50.8256881 140.771406,51.2878548 C139.187297,51.6571405 138.171498,51.623569 136.172342,51.3102357 C135.156543,51.151331 134.464055,50.4787833 134.094877,49.482831 C134.426018,49.5477357 135.153187,49.2109024 135.729329,49.1169024" id="Fill-40" fill="#FFAA75"></path>
                <path d="M135.617904,57.6386738 C135.617904,57.6386738 139.826534,57.2548405 141.892813,56.187269 C143.252059,55.4856262 145.378749,52.0635786 145.378749,52.0635786 C145.378749,52.0635786 148.169959,51.8341738 147.641922,57.5581024 L136.685164,62.5401024 C136.685164,62.5401024 135.848361,59.0732929 135.617904,58.2754119 C135.492607,57.8412214 135.617904,57.6386738 135.617904,57.6386738" id="Fill-42" fill="#EFEFEF"></path>
                <path d="M135.617904,57.6386738 L135.672721,56.116769 C135.698452,55.3658881 137.341854,52.378031 137.538749,52.0635786 C137.538749,52.0635786 133.910735,53.1367452 132.790895,53.7455071 C131.672174,54.354269 130.961785,54.9675071 130.961785,54.9675071 L131.668817,60.1140071 C131.668817,60.1140071 134.388429,58.1332929 135.547425,58.0952452 C135.641397,58.0918881 135.544068,57.6062214 135.617904,57.6386738" id="Fill-44" fill="#EFEFEF"></path>
                <path d="M147.599299,41.1715524 C147.648523,40.6847667 147.656354,40.2662429 147.61608,39.9562667 C147.495258,39.0263381 146.596925,38.0080048 145.788089,37.2616 C145.007221,36.5420524 144.370669,35.6803857 143.936605,34.7112905 C143.415281,33.5508381 142.717199,31.8677905 141.185669,31.5656476 C133.863637,30.1198381 133.985578,36.8520286 134.661285,38.6290762 C135.291126,40.2886238 134.912998,41.5565048 134.912998,41.5565048 C135.387336,40.0323619 136.233089,38.8170762 137.63261,38.672719 C140.480874,38.3772905 141.117427,41.4625048 140.639733,43.1231714 C140.196719,44.6674571 141.512336,45.3411238 141.789779,44.9349095 C142.067221,44.5298143 141.835646,43.0426 141.835646,43.0426 C142.013523,43.0135048 142.1914,44.3227905 142.466605,45.7518143 C143.533865,45.1139571 146.302701,43.3212429 147.599299,41.1715524" id="Fill-46" fill="#344252"></path>
                <path d="M141.709678,43.8565952 C141.803651,43.4861905 141.83945,43.1068333 141.852874,42.7252381 C141.878605,42.0000952 142.086687,40.9291667 143.14276,41.4965238 C144.678765,42.322381 144.329724,46.178619 142.526345,46.4080238 C141.188354,46.5792381 141.473628,44.7887619 141.709678,43.8565952" id="Fill-48" fill="#FFC8A6"></path>
                <path d="M135.156879,57.7807929 C135.156879,57.7807929 135.681559,57.8423405 135.980258,58.2351262 C135.980258,58.2351262 139.582541,56.8318405 140.587153,58.18365 C141.590646,59.5354595 139.603797,63.1544595 138.198683,62.8086738 C136.79245,62.4640071 135.793432,59.6037214 135.793432,59.6037214 C135.793432,59.6037214 135.098705,60.0692452 134.522564,59.4448167 C134.522564,59.4448167 129.943637,61.0394595 130.292678,59.2791976 C130.642838,57.5200548 132.840007,54.0353405 134.120943,55.2394357 C135.402998,56.443531 135.156879,57.7807929 135.156879,57.7807929" id="Fill-50" fill="#344252"></path>
                <path d="M159.956584,69.0455738 C159.956584,69.0455738 168.000192,59.86155 171.443616,69.0455738 C174.887041,78.2295976 186.04405,101.645669 186.04405,101.645669 C186.04405,101.645669 205.937155,126.327383 206.509941,135.318931 C207.083845,144.311598 188.73905,143.865098 180.32179,135.127574 C173.593799,128.143598 159.739553,101.296526 157.551333,83.8919786 C156.613845,76.4335262 159.956584,69.0455738 159.956584,69.0455738" id="Fill-52" fill="#E5E5E5"></path>
                <path d="M160.36089,42.2927262 C160.36089,42.2927262 159.008356,37.1272024 152.943767,39.1291786 C146.341073,41.3090833 146.499932,49.52625 147.64774,55.0935119 C148.795548,60.6596548 150.994954,63.5300119 147.408333,64.1510833 C144.802831,64.6031786 143.726621,69.2696071 147.408333,71.2301786 C151.090046,73.191869 159.427877,70.0630119 164.655662,64.8594405 C169.883447,59.655869 170.408128,55.4460119 169.930434,50.7102024 C169.45274,45.9755119 163.277397,39.8050833 160.36089,42.2927262" id="Fill-54" fill="#344252"></path>
                <path d="M184.057201,102.779264 C182.549164,91.2967167 187.993982,76.9303833 179.242224,65.5228119 C171.034164,54.8224786 156.641813,64.2426214 157.468548,71.281431 C157.522247,71.7402405 154.029598,79.5288119 155.240055,81.6180738 C155.565603,82.1775976 156.077977,82.7102643 156.722361,83.1869786 C159.061607,84.9147881 160.26647,87.7851452 159.674667,90.6331214 C159.086219,93.4631929 157.754941,96.943431 155.240055,101.995931 C152.594279,107.313645 135.541607,117.681621 123.810694,125.435502 C103.154621,139.089002 95.9858539,154.607955 102.644484,199.283693 C104.76558,213.526931 111.791151,242.822479 116.580397,265.410455 C118.401676,265.360098 124.335374,269.346145 126.268525,263.091788 C126.17679,261.87874 135.453228,195.130907 128.842703,171.541383 C124.905922,157.49286 133.778502,156.043693 137.442315,156.61105 C127.049393,185.411979 163.798274,252.873764 171.3709,264.391002 C174.409347,269.01155 179.38542,260.650026 179.38542,260.650026 C179.38542,260.650026 178.190626,214.207312 164.419164,178.429121 C159.773114,166.357955 168.28211,159.718645 183.3401,154.996264 C207.454142,147.43374 185.028251,110.173931 184.057201,102.779264" id="Fill-56" fill="#FFC8A6"></path>
                <path d="M164.415137,178.419386 C159.409977,182.102171 154.408174,186.751814 153.62395,191.055671 C151.98726,200.048338 153.871187,203.009338 153.871187,203.009338 C153.871187,203.009338 157.545068,223.58079 164.137694,232.764814 C170.731438,241.948838 172.463219,253.302695 176.473836,258.24441 C177.233447,259.179933 178.22016,259.318695 179.3221,258.918076 C178.949566,250.193981 176.620388,210.128719 164.419612,178.429457 C164.417374,178.424981 164.416256,178.422743 164.415137,178.419386" id="Fill-58" fill="#FFAA75"></path>
                <path d="M171.25858,200.699736 L153.871411,203.008331 C153.871411,203.008331 162.051502,214.424855 174.383169,215.449902 C173.502735,210.632402 172.470155,205.672783 171.25858,200.699736" id="Fill-60" fill="#344252"></path>
                <path d="M164.950445,54.6907667 L170.079783,62.6471952 C170.918824,63.9609571 169.795628,69.3928143 166.665445,69.0291238 C165.749212,68.9216952 165.411358,66.6041476 165.127203,64.8741 L162.377386,56.9993619 L164.950445,54.6907667 Z" id="Fill-62" fill="#FFC8A6"></path>
                <path d="M164.010943,61.6760857 C165.399276,60.0680143 165.508911,56.4042524 165.508911,56.4042524 L162.770281,58.1231095 L164.010943,61.6760857 Z" id="Fill-64" fill="#344252"></path>
                <path d="M161.726514,49.5551214 L164.138477,52.3303595 C166.051491,54.5315262 166.010098,57.9300738 163.848728,59.8884071 C161.855167,61.6967881 158.876011,61.763931 156.764984,59.1352881 C154.888888,56.7987167 155.314002,53.4986452 155.24576,51.9521214 C155.090258,48.4260024 158.71939,46.5661452 161.726514,49.5551214" id="Fill-66" fill="#FFC8A6"></path>
                <path d="M162.839753,51.9429452 C162.869959,51.6206595 162.853178,51.2983738 162.81626,50.9772071 C162.744662,50.3673262 162.780461,49.4441119 163.738087,49.7831833 C165.129776,50.2789214 165.330027,53.5510167 163.849959,53.9740167 C162.751374,54.288469 162.762562,52.7542548 162.839753,51.9429452" id="Fill-68" fill="#FFC8A6"></path>
                <path d="M112.910208,175.443614 C111.436852,186.273757 112.090185,186.273757 114.823221,196.029614 C117.557377,205.78771 117.546189,214.589019 116.691486,222.6249 C115.917331,229.906543 121.87676,254.547971 115.356852,259.713495 C115.777491,261.648329 116.186943,263.552948 116.579614,265.410567 C118.400893,265.36021 124.33571,269.346257 126.267742,263.0919 C126.176007,261.878852 135.452445,195.131019 128.84192,171.541495 C127.990573,168.502162 127.741098,166.053686 127.90555,164.087519 C122.921646,164.987233 113.966281,167.677424 112.910208,175.443614" id="Fill-70" fill="#FFAA75"></path>
                <path d="M156.322977,55.3546976 C156.112658,55.1085071 155.941493,54.8343405 155.788228,54.5501024 C155.496242,54.0096024 154.936881,53.2743881 154.347315,54.1024833 C153.492612,55.3076976 155.207612,58.1019595 156.66195,57.597269 C157.741516,57.2235071 156.852132,55.973531 156.322977,55.3546976" id="Fill-72" fill="#FFC8A6"></path>
                <path d="M131.154989,203.00889 C131.297066,196.378533 131.217637,190.006676 130.804829,184.377867 L112.90976,175.44339 C112.90976,175.44339 122.775765,195.177795 131.154989,203.00889" id="Fill-74" fill="#344252"></path>
                <path d="M162.948941,59.0577381 C162.042776,59.665381 160.17563,60.3289762 159.148644,60.1902143 C158.236886,60.067119 156.950356,59.197619 156.669557,59.0017857 C156.702,59.0465476 156.729968,59.0924286 156.765767,59.1349524 C158.875676,61.7635952 161.854831,61.6964524 163.849511,59.8880714 C165.18079,58.6817381 165.704352,56.9281905 165.464945,55.2440238 C164.950333,57.2135476 163.76337,58.5116429 162.948941,59.0577381" id="Fill-76" fill="#FFAA75"></path>
                <path d="M158.164952,57.2091833 C158.164952,57.2091833 160.140614,56.7358262 161.533422,55.7555405 C161.533422,55.7555405 162.336664,56.6116119 160.741368,57.7754214 C159.144952,58.94035 158.164952,57.2091833 158.164952,57.2091833" id="Fill-78" fill="#FFFFFF"></path>
                <g id="Group-82" transform="translate(166.689498, 261.046952)">
                    <mask id="mask-8" fill="white">
                        <use xlink:href="#path-7"></use>
                    </mask>
                    <g id="Clip-81"></g>
                    <path d="M15.1761279,0.710819048 L22.1088447,13.5563667 L20.8010594,14.2624857 L16.1035479,7.94210476 L17.1103973,13.8271762 C17.1484338,14.0487476 17.1484338,14.3217952 17.1148721,14.6272952 C16.846379,17.1160571 14.866242,19.0844619 12.3972237,19.4940333 C8.36311416,20.1654619 1.01758904,20.9857238 0.736789954,18.1321524 C0.720009132,17.959819 0.678616438,17.8065095 0.742383562,17.6722238 C1.02765753,17.066819 10.2895525,17.981081 11.4306484,15.5617 C12.5739817,13.1412 10.9697352,2.0044381 15.1761279,0.710819048" id="Fill-80" fill="#344252" mask="url(#mask-8)"></path>
                </g>
                <path d="M178.532395,258.332926 C178.532395,258.332926 183.212007,261.196569 181.750957,263.622664 C178.165454,269.577117 183.272418,274.650879 180.15566,277.467521 C177.60945,279.768283 167.432441,279.087902 167.389929,278.682807 C167.278057,277.619712 169.649747,277.322045 172.977943,274.893712 C175.765797,272.858164 170.892646,263.403331 170.892646,263.403331 C170.892646,263.403331 173.511573,257.122117 178.532395,258.332926" id="Fill-83" fill="#FFC8A6"></path>
                <path d="M170.981025,276.191695 C170.981025,276.191695 173.312441,276.567695 173.839358,280.011005 C173.839358,280.011005 180.628879,279.292576 181.298993,277.6196 L181.967989,275.945505 C181.967989,275.945505 178.270614,271.493933 173.831527,272.3086 C173.831527,272.3086 173.783422,273.8596 173.324747,274.360933 C172.867189,274.862267 170.981025,276.191695 170.981025,276.191695" id="Fill-85" fill="#344252"></path>
                <path d="M184.057201,102.779264 C183.424005,97.953931 184.015808,92.6183119 184.267521,87.2065976 C177.471288,83.4991929 170.809301,68.4077167 171.443616,65.2598357 C171.932498,62.8292643 173.819781,62.3682167 175.375922,62.0974071 C174.027863,61.3386929 172.619393,60.9078595 171.207566,60.7590262 C167.377064,63.3955024 166.227018,70.8640262 161.735352,69.0455738 C160.675922,68.6169786 160.63453,66.416931 160.900785,64.3108833 C158.602932,66.348669 157.194461,68.9448595 157.468548,71.281431 C157.522247,71.7402405 154.029598,79.5288119 155.240055,81.6180738 C155.565603,82.1775976 156.077977,82.7102643 156.721242,83.1858595 C159.061607,84.9159071 160.26647,87.7851452 159.674667,90.6331214 C159.086219,93.4643119 157.754941,96.94455 155.240055,101.995931 C152.594279,107.313645 135.541607,117.681621 123.810694,125.435502 C111.11768,133.826121 103.519324,142.92286 101.09058,159.05505 C126.696995,201.230836 160.063982,205.688002 172.930397,206.23186 C175.161128,206.326979 176.663571,203.979217 175.633228,201.998502 C171.857543,194.743717 168.28211,159.718645 183.3401,154.996264 C207.454142,147.43374 185.028251,110.173931 184.057201,102.779264" id="Fill-87" fill="#098485"></path>
                <path d="M184.057201,102.779264 C183.424005,97.953931 184.015808,92.6183119 184.267521,87.2065976 C177.471288,83.4991929 170.809301,68.4077167 171.443616,65.2598357 C171.932498,62.8292643 173.819781,62.3682167 175.375922,62.0974071 C174.027863,61.3386929 172.619393,60.9078595 171.207566,60.7590262 C167.377064,63.3955024 166.227018,70.8640262 161.735352,69.0455738 C160.675922,68.6169786 160.63453,66.416931 160.900785,64.3108833 C158.602932,66.348669 157.194461,68.9448595 157.468548,71.281431 C157.522247,71.7402405 154.029598,79.5288119 155.240055,81.6180738 C155.556653,82.1652881 156.054484,82.6845262 156.676493,83.1522881 C159.012384,84.9047167 160.269826,87.7694786 159.675785,90.6286452 C159.457635,91.681669 159.135443,92.8242167 158.687954,94.1044071 C161.460146,94.948169 164.52768,96.6681452 165.524461,100.17636 C167.479986,107.064098 171.176242,119.11736 166.363502,130.59655 C162.114598,140.729526 159.580694,153.842526 159.656767,165.332907 C159.68921,170.082145 158.60405,174.793336 156.37332,178.985288 C155.112521,181.354312 153.516105,183.526383 151.603091,184.551431 C146.247772,187.420669 160.063982,205.688002 172.930397,206.23186 C175.161128,206.326979 176.663571,203.979217 175.633228,201.998502 C171.857543,194.743717 168.28211,159.718645 183.3401,154.996264 C207.454142,147.43374 185.028251,110.173931 184.057201,102.779264" id="Fill-89" fill="#066364"></path>
                <path d="M155.240279,101.995707 C155.108269,102.260921 154.931511,102.542921 154.730142,102.831636 C158.80005,101.367921 168.474753,97.1077071 169.215347,89.4791595 C169.704228,84.460231 164.718087,86.5215167 159.804662,89.6682786 C159.783406,89.9894452 159.740895,90.311731 159.67489,90.6340167 C159.086443,93.4640881 157.755164,96.9443262 155.240279,101.995707" id="Fill-91" fill="#344252"></path>
                <path d="M173.668642,62.5399905 C166.418208,67.1012286 152.560605,86.6532286 146.143619,87.8293476 C143.694737,88.2769667 122.450217,67.3765143 119.526998,72.4099905 C117.33766,76.1767048 127.882728,103.033848 147.109075,101.603705 C163.832842,100.360443 177.718413,80.1515619 178.764418,75.9663238 C180.732249,68.0893476 176.368116,60.8423952 173.668642,62.5399905" id="Fill-93" fill="#FFC8A6"></path>
                <path d="M121.820712,72.016869 C121.817356,71.52225 121.183041,70.3539643 120.656123,69.8000357 C119.650393,68.7414167 120.222059,67.9905357 120.232128,67.3795357 C120.242196,66.7696548 119.234228,67.1646786 118.962379,68.5355119 C118.787858,69.4150833 119.32037,70.2935357 118.626763,69.9264881 C117.932037,69.5594405 115.476443,66.2996548 115.343315,68.0699881 C115.011055,72.4823929 115.770667,72.8315357 118.781146,74.27175 C119.635849,74.6802024 121.838612,74.7753214 121.820712,72.016869" id="Fill-95" fill="#FFC8A6"></path>
                <path d="M203.210943,137.419495 C203.666263,136.859971 204.453842,136.13259 205.601651,135.797995 C206.749459,135.462281 211.318317,134.823305 214.044642,137.027829 C216.769847,139.232352 217.508203,140.724043 215.977792,140.628924 C214.447381,140.532686 211.580098,138.2364 210.384185,138.332638 C209.188272,138.427757 208.470053,138.810471 209.857267,139.193186 C211.244482,139.5759 213.017655,140.066043 213.061285,140.634519 C213.157495,141.874424 208.995852,141.169424 207.083957,141.153757 C205.535646,141.143686 201.60334,139.391257 203.210943,137.419495" id="Fill-97" fill="#FFC8A6"></path>
                <g id="Group-101" transform="translate(0.000000, 247.499333)">
                    <mask id="mask-10" fill="white">
                        <use xlink:href="#path-9"></use>
                    </mask>
                    <g id="Clip-100"></g>
                    <path d="M16.9252489,6.42074048 C17.5327146,5.8007881 20.1326233,0.709121429 20.4402717,0.00188333333 C24.8983767,1.65135952 26.3694954,2.67976429 28.3294954,2.44140714 C28.307121,4.27105 31.1419612,18.0510024 28.7154543,18.7996452 C24.0761164,20.2309071 -0.516737443,14.9803357 0.00794292237,12.5564786 C0.713856164,9.29893095 16.0336279,7.33052619 16.9252489,6.42074048" id="Fill-99" fill="#344252" mask="url(#mask-10)"></path>
                </g>
                <path d="M77.0281119,264.2669 C77.5449612,263.569733 79.4288881,258.170329 79.6358516,257.429519 C84.2763082,258.455686 85.8749612,259.274829 87.7846187,258.771257 C88.0106005,260.586352 92.6958059,273.851543 90.3923584,274.92359 C85.9913082,276.973686 60.9140479,275.121662 61.1042306,272.648567 C61.3581804,269.326114 76.2685,265.28971 77.0281119,264.2669" id="Fill-102" fill="#344252"></path>
                <path d="M136.301779,156.513805 C140.319107,149.920376 131.869404,143.799186 125.286847,152.408019 C121.14534,157.826448 119.7626,171.197948 119.877829,182.800233 C125.162669,187.849376 130.491139,191.810805 135.666345,194.9184 C134.723263,183.402281 133.365135,161.335781 136.301779,156.513805" id="Fill-104" fill="#066364"></path>
                <path d="M171.638721,78.2214286 C164.157831,82.3988333 159.675114,90.6327857 154.119543,93.719119 C148.563973,96.8054524 143.378699,97.7365 138.881438,93.8623571 C134.384178,89.9882143 132.763151,88.5535952 128.6071,85.3967619 C125.640251,83.143 121.784018,79.4031429 119.819543,77.4459286 C122.21137,86.3121429 131.966621,102.72969 147.108516,101.603929 C163.832283,100.360667 177.718973,80.1517857 178.763858,75.9665476 C179.341119,73.6590714 179.371324,71.4086667 179.062557,69.417881 C177.706667,72.4975 175.405457,76.1187381 171.638721,78.2214286" id="Fill-106" fill="#FFAA75"></path>
            </g>
        </g>
    </g>
</svg>