<svg width="245" height="281" xmlns="http://www.w3.org/2000/svg" xmlns:xlink="http://www.w3.org/1999/xlink"><defs><path id="a" d="M.633.581h233.845v152.995H.633z"/><path id="c" d="M.97.018h20.9v14.649H.97z"/><path id="e" d="M.071.81h9.106v16.954H.071z"/><path id="g" d="M.708.71h21.4v19.433H.709z"/><path id="i" d="M0 .002h29.698v19.04H0z"/></defs><g fill="none" fill-rule="evenodd"><g transform="translate(10.068 59.737)"><mask id="b" fill="#fff"><use xlink:href="#a"/></mask><path d="M233.427 87.433c-7.843-20.517-15.142-6.664-15.142-6.664S232.3 54.96 227.026 46.05c-7.12-12.036-27.297 13.236-27.297 13.236s17.966-41.73 6.965-45.538c-4.928-1.707-9.911 3.569-13.913 9.91 3.123-8.755 3.965-18.428-5.372-22.806-10.477-4.913-25.032 58.434-25.032 58.434L73.303 80.63s25.048-27.7 7.656-35.07c-11.507-4.877-22.708 8.608-28.971 18.291 6.753-12.683 10.933-37.197-2.26-40.154-15.173-3.4-19.492 28.743-20.576 40.88.338-5.466.687-14.385-.328-18.035C15.391-1.848-6.75 47.36 3.071 97.798c7.966 40.897 124.624 58.62 154.84 55.41 46.266-4.911 83.359-45.256 75.516-65.775" fill="#DBDACC" mask="url(#b)"/></g><g transform="translate(105.16 265.523)"><mask id="d" fill="#fff"><use xlink:href="#c"/></mask><path d="M21.87.068v14.6h-1.486l-1.133-7.796-1.907 5.658a3.142 3.142 0 0 1-2.976 2.137H2.299c-.807 0-1.464-.725-1.304-1.514.033-.17.102-.313.222-.402.54-.397 8.151.193 10.306-1.394C13.676 9.77 17.553-.793 21.87.068" fill="#344252" mask="url(#d)"/></g><path d="M125.723 260.994s2.759 4.742.32 6.184c-5.983 3.537-3.898 10.428-7.978 11.425-3.333.816-9.15.594-11.164.486a.595.595 0 0 1-.524-.815c.406-.987 1.714-2.47 5.797-3.027 3.418-.465 4.418-13.422 4.418-13.422s5.286-4.282 9.131-.831" fill="#FFC8A6"/><path d="M112.127 274.959c-1.08.425-2.034.617-2.786.884l3.427 3.333c1.89-.056 3.834-.215 5.298-.573 1.104-.27 1.757-.973 2.241-1.924-2.17-1.881-4.729-3.107-6.29-3.748-.587 1.008-1.237 1.77-1.89 2.028" fill="#344252"/><path d="M126.74 50.368l-46.07 2.295S64.576 7.913 57.88 9.827c-6.693 1.913-10.901 34.23 10.33 61.607 13.017 16.785 52.912 2.91 52.912 2.91l5.617-23.976z" fill="#EFEFEF"/><path d="M190.814 137.407h27.941c1.833 0 2.393 2.482.739 3.27-5.375 2.561-21.986 18.992-31.358 22.628-9.371 3.635-4.024 15.272-8.802 20.82s-37.089 9.758-41.782-5.357c-4.693-15.115 53.262-41.361 53.262-41.361M142.467 44.752c.41 2.117 1.033 4.497 2.196 3.173 1.597-1.821 2.712-5.525 2.936-7.753-1.296 2.15-4.065 3.942-5.132 4.58" fill="#344252"/><path d="M124.803 58.627c-.744-.195-1.487-.39-2.224-.587-12.194-3.254-25.965 10.429-35.576 10.006-9.612-.422-15.35-4.17-16.641-10.006-1.291-5.837-7.603-9.948-12.039-19.131a909.269 909.269 0 0 0-5.878-11.936C52.404 39.2 56.311 56.092 68.21 71.434c13.018 16.785 52.91 2.91 52.91 2.91l3.683-15.717z" fill="#E5E5E5"/><path d="M108.671 66.1s-4.124 7.441-5.613 12.6a115.166 115.166 0 0 0 9.782-1.98L108.67 66.1z" fill="#344252"/><path d="M153.559 119.893c-.586-8.484 1.835-16.917 6.587-23.967 2.962-4.393 5.702-9 6.568-12.463 3.87-15.477-2.48-24.722-18.934-29.657-10.87-3.26-27.646-6.609-36.626 2.185-4.3 4.208-2.135 15.975-.351 25.429 2.154 11.414-1.52 21.604-12.12 26.351-4.528 2.028 56.603 37.113 54.876 12.122" fill="#FFC8A6"/><g transform="translate(53.699 -.691)"><mask id="f" fill="#fff"><use xlink:href="#e"/></mask><path d="M8.691 14.103s-.61-4.107.025-5.57c1.192-2.744-.21-2.938-1.008-2-.798.937-.895 1.806-.895 1.806S4.15 1.605 2.747.909c-1.404-.696-.225 2.471.181 3.839C3.333 6.115 1.42 6.042.33 8.918c-1.091 2.875 1.442 7.92 4.449 8.743 3.006.824 3.912-3.558 3.912-3.558" fill="#FFC8A6" mask="url(#f)"/></g><path d="M135.821 119.552c6.068 1.652 12.117-.067 17.68-3.393.242-7.198 2.591-14.22 6.644-20.233 2.963-4.394 5.704-9 6.568-12.463 3.87-15.478-2.48-24.72-18.934-29.657-10.868-3.26-27.645-6.61-36.626 2.184-4.3 4.21-2.134 15.977-.35 25.43 1.404 7.432.331 14.346-3.513 19.575 2.964 4.08 11.615 13.954 28.531 18.557" fill="#EFEFEF"/><path d="M147.78 53.806c-2.654-.796-5.662-1.596-8.821-2.225-.343 2.017-1.308 4.023-3.341 5.695 0 0 4.56 15.354 6.018 20.233 1.457 4.879-9.782 2.457-10.674 9.327-.89 6.87 5.28 12.34 4.258 19.372-.447 3.074-4.976 6.505-9.932 9.392a59.139 59.139 0 0 0 10.534 3.952c6.066 1.652 12.116-.067 17.678-3.393.242-7.198 2.593-14.22 6.646-20.233 2.961-4.393 5.702-9 6.568-12.463 3.87-15.477-2.48-24.72-18.934-29.657" fill="#E5E5E5"/><path d="M135.821 119.552c-16.916-4.603-25.567-14.478-28.53-18.557-2.06 2.801-4.912 5.12-8.607 6.776-4.529 2.029-12.345 5.846-18.146 8.986-23.912 12.948-30.183 18.672-38.784 43.835-8.396 24.563-32.36 86.383-22.433 90.652 3.167 1.36 16.863 3.817 19.337-1.973 14.346-33.577 35.233-86.048 39.788-92.403 3.381-4.719 6.08-9.438 18.66-10.697-4.682 18.24-36.356 114.587-13.586 115.471 2.732.105 10.226.434 12.143-1.817 14.23-16.728 24.772-89.268 25.554-97.715.915-9.884 34.069-17.226 32.341-42.217a36.492 36.492 0 0 1-.058-3.734c-5.562 3.326-11.611 5.045-17.679 3.393" fill="#344252"/><path d="M143.755 43.938l2.388 10.481c-.133 1.474-8.457 4.77-10.596 2.676-.626-.612-.297-2.004.495-3.469l4.637-7.946 3.076-1.742z" fill="#FFC8A6"/><path d="M139.748 47.277c1.65-.126 3.906-.327 3.906-.327s-.397 2.57-2.853 4.29a6.753 6.753 0 0 1-4.08 1.225l3.027-5.188z" fill="#344252"/><path d="M141.88 39.952l1.71 5.92a3.757 3.757 0 0 1-2.819 4.416c-1.584.37-2.6.336-4.599.022-1.664-.26-2.466-1.895-2.39-4.088.1-2.843 1-5.434 1.56-6.793 1.273-3.1 5.14-3.252 6.538.523" fill="#FFC8A6"/><path d="M137.922 44.075s-1.395.293-3.34-.017c0 0-.098 1.273.66 1.742.755.469 2.165-.22 2.68-1.725" fill="#FFF"/><path d="M135.73 48.117c1.883-.31 3.204 2.575 6.626.004.637-.479 1.006-1.67 1.198-2.38l.037.13a3.757 3.757 0 0 1-2.82 4.417c-1.584.37-2.6.336-4.599.022-1.015-.159-1.708-.831-2.077-1.827.331.065 1.058-.272 1.634-.366" fill="#FFAA75"/><path d="M135.618 56.639s4.209-.384 6.275-1.452c1.36-.701 3.486-4.123 3.486-4.123s2.791-.23 2.263 5.494l-10.957 4.982s-.837-3.467-1.067-4.265c-.125-.434 0-.636 0-.636" fill="#EFEFEF"/><path d="M135.618 56.639l.055-1.522c.025-.751 1.669-3.739 1.866-4.053 0 0-3.628 1.073-4.748 1.682-1.119.608-1.83 1.222-1.83 1.222l.708 5.146s2.72-1.98 3.878-2.019c.094-.003-.003-.489.07-.456" fill="#EFEFEF"/><path d="M147.6 40.172c.049-.487.056-.906.016-1.216-.12-.93-1.02-1.948-1.828-2.694a7.829 7.829 0 0 1-1.851-2.55c-.522-1.161-1.22-2.844-2.751-3.146-7.322-1.446-7.2 5.286-6.525 7.063.63 1.66.252 2.928.252 2.928.474-1.525 1.32-2.74 2.72-2.884 2.848-.296 3.484 2.79 3.007 4.45-.443 1.544.872 2.218 1.15 1.812.277-.405.046-1.892.046-1.892.178-.03.355 1.28.63 2.709 1.068-.638 3.837-2.43 5.133-4.58" fill="#344252"/><path d="M141.71 42.857c.094-.37.13-.75.143-1.132.026-.725.234-1.796 1.29-1.228 1.536.825 1.187 4.682-.617 4.911-1.338.171-1.052-1.62-.816-2.551" fill="#FFC8A6"/><path d="M135.157 56.78s.525.062.823.455c0 0 3.603-1.403 4.607-.051 1.004 1.351-.983 4.97-2.388 4.625-1.407-.345-2.406-3.205-2.406-3.205s-.694.465-1.27-.16c0 0-4.58 1.595-4.23-.165.35-1.759 2.547-5.244 3.828-4.04 1.282 1.205 1.036 2.542 1.036 2.542" fill="#344252"/><path d="M159.957 68.046s8.043-9.184 11.487 0c3.443 9.184 14.6 32.6 14.6 32.6s19.893 24.681 20.466 33.673c.574 8.993-17.77 8.546-26.188-.191-6.728-6.984-20.582-33.831-22.77-51.236-.938-7.458 2.405-14.846 2.405-14.846" fill="#E5E5E5"/><path d="M160.36 41.293s-1.352-5.166-7.416-3.164c-6.603 2.18-6.444 10.397-5.296 15.965 1.148 5.566 3.347 8.436-.24 9.057-2.605.452-3.681 5.119 0 7.08 3.682 1.96 12.02-1.168 17.248-6.372 5.227-5.203 5.752-9.413 5.274-14.149-.477-4.734-6.653-10.905-9.57-8.417" fill="#344252"/><path d="M184.057 101.78c-1.508-11.483 3.937-25.85-4.815-37.257-8.208-10.7-22.6-1.28-21.773 5.758.053.46-3.44 8.248-2.229 10.337.326.56.838 1.092 1.482 1.569 2.34 1.728 3.544 4.598 2.953 7.446-.589 2.83-1.92 6.31-4.435 11.363-2.646 5.318-19.698 15.686-31.43 23.44-20.655 13.653-27.824 29.172-21.166 73.848 2.122 14.243 9.147 43.538 13.936 66.126 1.822-.05 7.755 3.936 9.689-2.318-.092-1.213 9.184-67.961 2.574-91.55-3.937-14.05 4.936-15.498 8.6-14.93-10.394 28.8 26.355 96.262 33.928 107.779 3.038 4.62 8.014-3.741 8.014-3.741s-1.194-46.443-14.966-82.22c-4.646-12.072 3.863-18.711 18.921-23.434 24.114-7.562 1.688-44.822.717-52.217" fill="#FFC8A6"/><path d="M164.415 177.42c-5.005 3.682-10.007 8.332-10.791 12.636-1.637 8.992.247 11.953.247 11.953s3.674 20.572 10.267 29.756c6.593 9.184 8.325 20.538 12.336 25.48.76.935 1.746 1.074 2.848.673-.372-8.724-2.702-48.79-14.902-80.489a.07.07 0 0 1-.005-.01" fill="#FFAA75"/><path d="M171.259 199.7l-17.388 2.308s8.18 11.417 20.512 12.442a259.784 259.784 0 0 0-3.124-14.75" fill="#344252"/><path d="M164.95 53.69l5.13 7.957c.839 1.314-.284 6.746-3.415 6.382-.916-.107-1.254-2.425-1.538-4.155L162.377 56l2.573-2.308z" fill="#FFC8A6"/><path d="M164.01 60.676c1.39-1.608 1.499-5.272 1.499-5.272l-2.739 1.72 1.24 3.552z" fill="#344252"/><path d="M161.727 48.555l2.411 2.775c1.913 2.202 1.872 5.6-.29 7.558-1.993 1.809-4.972 1.876-7.083-.753-1.876-2.336-1.451-5.636-1.52-7.183-.155-3.526 3.474-5.386 6.482-2.397" fill="#FFC8A6"/><path d="M162.84 50.943c.03-.322.013-.645-.024-.966-.071-.61-.036-1.533.922-1.194 1.392.496 1.592 3.768.112 4.191-1.099.314-1.087-1.22-1.01-2.031" fill="#FFC8A6"/><path d="M112.91 174.444c-1.473 10.83-.82 10.83 1.913 20.586 2.734 9.758 2.723 18.559 1.868 26.595-.774 7.282 5.186 31.923-1.334 37.088.42 1.935.83 3.84 1.223 5.698 1.82-.05 7.756 3.935 9.688-2.32-.092-1.212 9.184-67.96 2.574-91.55-.851-3.039-1.1-5.487-.936-7.453-4.984.9-13.94 3.59-14.996 11.356" fill="#FFAA75"/><path d="M156.323 54.355a4.55 4.55 0 0 1-.535-.805c-.292-.54-.851-1.276-1.44-.448-.855 1.206.86 4 2.314 3.495 1.08-.373.19-1.623-.339-2.242" fill="#FFC8A6"/><path d="M131.155 202.009c.142-6.63.063-13.002-.35-18.631l-17.895-8.935s9.866 19.735 18.245 27.566" fill="#344252"/><path d="M162.949 58.058c-.906.607-2.773 1.271-3.8 1.132-.912-.123-2.199-.992-2.48-1.188.033.045.061.09.097.133 2.11 2.629 5.089 2.561 7.084.753 1.33-1.206 1.854-2.96 1.615-4.644-.515 1.97-1.702 3.268-2.516 3.814" fill="#FFAA75"/><path d="M158.165 56.21s1.976-.474 3.368-1.454c0 0 .804.856-.792 2.02-1.596 1.164-2.576-.567-2.576-.567" fill="#FFF"/><g transform="translate(166.69 260.047)"><mask id="h" fill="#fff"><use xlink:href="#g"/></mask><path d="M15.176.71l6.933 12.846-1.308.706-4.697-6.32 1.006 5.885c.038.222.038.495.005.8-.269 2.49-2.249 4.457-4.718 4.867-4.034.671-11.38 1.492-11.66-1.362-.017-.172-.058-.325.005-.46.286-.605 9.548.31 10.689-2.11 1.143-2.42-.461-13.558 3.745-14.851" fill="#344252" mask="url(#h)"/></g><path d="M178.532 257.333s4.68 2.864 3.219 5.29c-3.586 5.954 1.521 11.028-1.595 13.845-2.547 2.3-12.724 1.62-12.766 1.215-.112-1.063 2.26-1.361 5.588-3.79 2.788-2.035-2.085-11.49-2.085-11.49s2.619-6.28 7.64-5.07" fill="#FFC8A6"/><path d="M170.981 275.192s2.331.376 2.858 3.819c0 0 6.79-.718 7.46-2.391l.669-1.674s-3.697-4.452-8.136-3.637c0 0-.049 1.55-.507 2.052-.458.501-2.344 1.83-2.344 1.83" fill="#344252"/><path d="M184.057 101.78c-.633-4.826-.041-10.162.21-15.573-6.796-3.708-13.458-18.8-12.823-21.947.488-2.43 2.376-2.892 3.932-3.163a10.753 10.753 0 0 0-4.168-1.338c-3.83 2.637-4.981 10.105-9.473 8.287-1.06-.429-1.1-2.63-.834-4.735-2.298 2.038-3.707 4.634-3.432 6.97.053.46-3.44 8.248-2.229 10.337.326.56.838 1.092 1.481 1.568 2.34 1.73 3.545 4.6 2.954 7.447-.589 2.831-1.92 6.312-4.435 11.363-2.646 5.318-19.698 15.686-31.43 23.44-12.692 8.39-20.29 17.487-22.72 33.619 25.607 42.176 58.974 46.633 71.84 47.177 2.231.095 3.734-2.253 2.703-4.233-3.775-7.255-7.35-42.28 7.707-47.003 24.114-7.562 1.688-44.822.717-52.217" fill="#098485"/><path d="M184.057 101.78c-.633-4.826-.041-10.162.21-15.573-6.796-3.708-13.458-18.8-12.823-21.947.488-2.43 2.376-2.892 3.932-3.163a10.753 10.753 0 0 0-4.168-1.338c-3.83 2.637-4.981 10.105-9.473 8.287-1.06-.429-1.1-2.63-.834-4.735-2.298 2.038-3.707 4.634-3.432 6.97.053.46-3.44 8.248-2.229 10.337.317.547.814 1.067 1.436 1.534 2.336 1.753 3.594 4.617 3 7.477a27.395 27.395 0 0 1-.988 3.475c2.772.844 5.84 2.564 6.836 6.072 1.956 6.888 5.652 18.941.84 30.42-4.25 10.134-6.783 23.247-6.707 34.737.032 4.75-1.053 9.46-3.284 13.652-1.26 2.37-2.857 4.541-4.77 5.566-5.355 2.87 8.461 21.137 21.327 21.68 2.231.096 3.734-2.252 2.703-4.232-3.775-7.255-7.35-42.28 7.707-47.003 24.114-7.562 1.688-44.822.717-52.217" fill="#066364"/><path d="M155.24 100.996a6.803 6.803 0 0 1-.51.836c4.07-1.464 13.745-5.724 14.485-13.353.49-5.019-4.497-2.957-9.41.19a7.168 7.168 0 0 1-.13.965c-.589 2.83-1.92 6.31-4.435 11.362" fill="#344252"/><path d="M173.669 61.54c-7.25 4.561-21.108 24.113-27.525 25.29-2.45.447-23.694-20.453-26.617-15.42-2.19 3.767 8.356 30.624 27.582 29.194 16.724-1.244 30.61-21.452 31.655-25.638 1.968-7.877-2.396-15.124-5.095-13.426" fill="#FFC8A6"/><path d="M121.82 71.017c-.003-.495-.637-1.663-1.164-2.217-1.006-1.059-.434-1.81-.424-2.42.01-.61-.998-.215-1.27 1.156-.174.88.358 1.758-.335 1.39-.695-.367-3.15-3.626-3.284-1.856-.332 4.412.428 4.762 3.438 6.202.855.408 3.058.503 3.04-2.255M203.21 136.42c.456-.56 1.244-1.287 2.392-1.622 1.147-.336 5.716-.975 8.443 1.23 2.725 2.204 3.463 3.696 1.933 3.6-1.53-.095-4.398-2.392-5.594-2.295-1.196.095-1.914.477-.527.86s3.16.873 3.204 1.442c.096 1.24-4.065.534-5.977.519-1.548-.01-5.48-1.763-3.873-3.735" fill="#FFC8A6"/><g transform="translate(0 246.5)"><mask id="j" fill="#fff"><use xlink:href="#i"/></mask><path d="M16.925 6.42C17.533 5.8 20.133.71 20.44.003c4.458 1.65 5.93 2.678 7.89 2.44-.023 1.829 2.812 15.609.385 16.358C24.076 20.23-.517 14.98.008 12.556.714 9.3 16.034 7.331 16.925 6.421" fill="#344252" mask="url(#j)"/></g><path d="M77.028 263.267c.517-.697 2.4-6.097 2.608-6.837 4.64 1.026 6.239 1.845 8.149 1.341.226 1.815 4.91 15.08 2.607 16.153-4.4 2.05-29.478.198-29.288-2.275.254-3.323 15.165-7.36 15.924-8.382" fill="#344252"/><path d="M136.302 155.514c4.017-6.594-4.433-12.715-11.015-4.106-4.142 5.418-5.524 18.79-5.41 30.392 5.286 5.05 10.614 9.01 15.79 12.118-.944-11.516-2.302-33.582.635-38.404" fill="#066364"/><path d="M171.639 77.221c-7.481 4.178-11.964 12.412-17.52 15.498-5.555 3.086-10.74 4.018-15.238.143-4.497-3.874-6.118-5.308-10.274-8.465-2.967-2.254-6.823-5.994-8.787-7.951 2.391 8.866 12.147 25.284 27.289 24.158 16.723-1.243 30.61-21.452 31.655-25.637.577-2.308.607-4.558.299-6.55-1.356 3.08-3.658 6.702-7.424 8.804" fill="#FFAA75"/></g></svg>