<?xml version="1.0" encoding="UTF-8"?>
<svg width="422px" height="665px" viewBox="0 0 422 665" version="1.1" xmlns="http://www.w3.org/2000/svg" xmlns:xlink="http://www.w3.org/1999/xlink">
    <defs>
        <polygon id="path-1" points="0.0932003251 0.208820988 164.181758 0.208820988 164.181758 244.302386 0.0932003251 244.302386"></polygon>
        <polygon id="path-3" points="0.436821176 0.874110204 130.073478 0.874110204 130.073478 240.793718 0.436821176 240.793718"></polygon>
        <polygon id="path-5" points="0 0.626937647 14.2129666 0.626937647 14.2129666 23.6173358 0 23.6173358"></polygon>
        <polygon id="path-7" points="0.00882733717 0.451363636 45.9415344 0.451363636 45.9415344 47.7773027 0.00882733717 47.7773027"></polygon>
        <polygon id="path-9" points="0 0.707927273 66.3851789 0.707927273 66.3851789 19.7272727 0 19.7272727"></polygon>
        <polygon id="path-11" points="0.00882733717 0.451363636 45.9415344 0.451363636 45.9415344 47.7773027 0.00882733717 47.7773027"></polygon>
        <polygon id="path-13" points="0 0.707927273 66.3851789 0.707927273 66.3851789 19.7272727 0 19.7272727"></polygon>
    </defs>
    <g stroke="none" stroke-width="1" fill="none" fill-rule="evenodd">
        <g transform="translate(-469.000000, -397.000000)">
            <g transform="translate(469.000000, 397.000000)">
                <g>
                    <path d="M290.86292,58.0228139 C290.86292,58.0228139 165.834232,98.5898545 163.279429,126.46141 C157.254308,192.215244 254.407022,159.019874 273.938028,147.232515 C293.474436,135.445157 290.86292,58.0228139 290.86292,58.0228139" fill="#D95F76"></path>
                    <path d="M305.094196,642.334007 C301.224183,636.567851 300.162833,630.226162 299.714527,625.013925 L278.395699,610.052725 C278.395699,610.052725 281.739088,631.54746 278.474018,636.700251 C277.048082,638.945647 272.908005,640.607402 267.20426,642.979794 C258.165228,647.575966 247.006196,653.501541 246.609203,656.581868 C245.947546,661.721149 299.069075,661.780594 307.916362,656.841264 C312.542553,654.258113 309.336897,648.65408 305.094196,642.334007" fill="#09333E"></path>
                    <path d="M402.683603,642.334007 C398.810889,636.567851 397.752239,630.226162 397.301233,625.013925 L378.042991,624.932864 C378.042991,624.932864 379.328494,631.54746 376.060724,636.700251 C374.634787,638.945647 370.497411,640.607402 364.790966,642.979794 C355.754634,647.575966 344.595603,653.501541 344.198609,656.581868 C343.536953,661.721149 396.658482,661.780594 405.505768,656.841264 C410.131959,654.258113 406.926303,648.65408 402.683603,642.334007" fill="#09333E"></path>
                    <path d="M317.626772,32.2558824 C317.626772,32.2558824 315.855154,21.0937518 317.626772,16.5029845 C319.39839,11.9149192 321.928887,-2.45453388 341.910899,0.363694694 C364.790696,3.58722939 355.265549,41.9805273 348.295205,44.1070335 C341.327562,46.2335396 317.626772,32.2558824 317.626772,32.2558824" fill="#09333E"></path>
                    <path d="M401.366232,253.650569 C381.370716,255.493361 329.718334,258.727704 279.181315,249.313793 C272.986054,264.364161 255.915327,355.836349 253.133671,371.675712 C235.228448,473.693965 266.588245,573.029091 273.766538,624.932593 C274.841391,632.717173 288.971124,630.852765 296.643633,632.544242 C311.656474,635.856944 313.933111,632.755002 320.447047,624.932593 C332.643124,610.287532 310.187327,441.585614 310.187327,441.585614 L328.738003,328.605181 C332.200219,370.424667 339.616168,407.572324 344.193748,441.585614 C351.042563,492.500169 351.625901,579.197851 365.553085,627.969687 C367.573162,635.038226 390.517773,632.179467 402.495098,630.733875 C405.608932,630.355589 407.323837,627.631932 407.777544,624.524585 C416.049595,567.752006 414.029518,421.939075 414.029518,421.939075 C414.029518,421.939075 418.285722,315.13821 416.28185,268.16323 C416.044194,262.645663 402.619327,258.411565 401.366232,253.650569 Z" fill="#0D4351"></path>
                    <path d="M416.28185,268.16323 C416.044194,262.645663 402.619327,258.411565 401.366232,253.650569 C394.949518,254.242316 385.262334,254.974569 373.409238,255.387981 L373.409238,255.390683 C365.501773,283.227108 374.149213,348.911018 379.261518,373.299638 C384.373824,397.682855 389.877722,518.828855 384.765417,537.708014 C381.454436,549.937451 365.415353,557.540993 354.520983,561.383296 C357.021773,586.304218 360.35706,609.774144 365.553085,627.969687 C367.573162,635.038226 390.517773,632.179467 402.495098,630.733875 C405.608932,630.355589 407.323837,627.631932 407.777544,624.524585 C416.049595,567.752006 414.029518,421.939075 414.029518,421.939075 C414.029518,421.939075 418.285722,315.13821 416.28185,268.16323" fill="#09333E"></path>
                    <path d="M274.537839,265.570622 C272.193687,275.225014 269.479546,287.757079 266.77891,300.867381 C291.009024,304.393544 346.212744,310.21374 369.30319,294.374377 C392.312617,278.586353 312.854476,269.123806 274.537839,265.570622" fill="#0D4351"></path>
                    <g transform="translate(257.560510, 52.533078)">
                        <mask fill="white">
                            <use xlink:href="#path-1"></use>
                        </mask>
                        <path d="M164.180408,63.8462522 C164.40186,34.1832482 151.671057,15.5851012 104.501732,4.59319918 C57.7510064,-6.30142939 15.3131975,4.22301959 6.76838217,23.8722604 C-7.69352866,57.1181706 5.51258599,83.5657461 7.74871338,116.752211 C11.508,172.606097 13.4416561,228.427558 13.4416561,228.427558 C13.4416561,228.427558 61.1646115,262.759689 158.301121,230.445983 C161.739032,229.300318 163.93465,225.925469 163.580866,222.320946 L157.474726,160.20373 C157.474726,160.20373 163.999465,87.8376727 164.180408,63.8462522" fill="#FF9791" mask="url(#mask-2)"></path>
                    </g>
                    <g transform="translate(291.668790, 55.235118)">
                        <mask fill="white">
                            <use xlink:href="#path-3"></use>
                        </mask>
                        <path d="M123.365366,157.500608 C123.365366,157.500608 129.890104,85.134551 130.071047,61.1431306 C130.292499,31.4828286 117.564397,12.8819796 70.3950726,1.89277959 C68.8314038,1.52530204 67.2704357,1.19024898 65.7175694,0.874110204 C70.3842701,13.8979469 73.5872255,93.7864857 50.2429197,96.6479469 C-12.1877045,104.29202 1.76918726,167.879147 1.76918726,167.879147 C1.76918726,167.879147 49.9782573,205.937392 63.8649325,240.793718 C81.259735,239.250853 101.363276,235.338298 124.194461,227.742861 C127.629671,226.599898 129.82799,223.225049 129.474206,219.620527 L123.365366,157.500608 Z" fill="#D95F76" mask="url(#mask-4)"></path>
                    </g>
                    <path d="M348.204194,22.1640302 C341.012397,26.7629037 325.370308,26.6818424 316.976729,26.257622 C317.200882,29.5487078 317.627582,32.2561527 317.627582,32.2561527 C317.627582,32.2561527 341.328372,46.2338098 348.296015,44.1073037 C352.746665,42.7508792 358.220856,26.6169935 355.657952,14.2821771 C354.221213,16.9409853 351.914869,19.7916384 348.204194,22.1640302" fill="#09333E"></path>
                    <path d="M344.261264,31.65684 L354.38055,61.9710359 C354.418359,66.3672563 330.755378,78.5453543 323.820143,72.9764482 C321.791964,71.3444155 322.361799,67.1319339 324.27655,62.5654849 L335.673238,37.7040073 L344.261264,31.65684 Z" fill="#FFC9A7"></path>
                    <path d="M325.76028,59.3276294 L331.861019,46.0227804 L342.725682,48.8788376 C342.725682,48.8788376 334.005325,56.9741518 325.76028,59.3276294" fill="#09333E"></path>
                    <path d="M337.237987,19.596551 L345.885427,35.7385429 C348.310599,41.2804286 345.901631,47.7599224 340.43014,50.3349673 C336.057809,52.3912204 333.081707,52.9262245 327.078191,53.2585755 C322.079312,53.5314816 318.733223,49.2757673 317.596255,42.8557184 C316.119006,34.5253265 317.126344,26.4354163 317.906828,22.1364694 C319.689248,12.3334653 330.832076,9.48821633 337.237987,19.596551" fill="#FFC9A7"></path>
                    <path d="M328.534645,35.5423747 C328.534645,35.5423747 324.451282,36.6799339 318.620606,36.1395257 C318.620606,36.1395257 318.850161,39.5197788 321.431969,40.1034196 C324.289243,40.7519094 327.295052,40.1061216 328.534645,35.5423747" fill="#FFFFFF"></path>
                    <path d="M323.434222,48.4521853 C328.716668,46.37972 337.391113,51.5946588 343.691699,43.0535078 C345.096031,41.1431649 345.579445,37.5683649 345.695572,35.387818 L345.884617,35.7390833 C348.309789,41.280969 345.90082,47.7604629 340.42933,50.3355078 C336.056999,52.3917608 333.080897,52.9267649 327.080082,53.2564139 C324.53068,53.39692 322.416082,52.3566343 320.801101,50.4570996 C320.482425,50.0815159 321.819241,49.0844629 323.434222,48.4521853" fill="#FFAA74"></path>
                    <path d="M316.840887,9.33338939 C314.275282,11.9597731 315.847052,18.2528261 319.174237,19.8010955 C322.911918,21.5385078 330.406186,22.6625567 332.982594,23.5191037 C336.733778,24.7728506 335.856071,29.4689976 338.462186,29.5743771 C341.068301,29.6770547 341.427485,25.921218 341.635434,23.8325404 C341.843383,21.7465649 343.509676,11.9408588 335.272734,8.29040163 C329.979485,5.9450302 322.541931,3.49157714 316.840887,9.33338939" fill="#09333E"></path>
                    <path d="M339.2424,28.6210971 C339.28561,27.48624 339.15598,26.362191 338.958833,25.2435461 C338.583445,23.11704 338.518629,19.874591 341.943037,20.868942 C346.923011,22.3145339 348.297636,33.7414645 343.201534,35.5302155 C339.417941,36.8569176 339.137075,31.4771543 339.2424,28.6210971" fill="#FFC9A7"></path>
                    <path d="M301.42295,359.157967 C293.952989,380.771592 302.208836,431.480792 286.485727,443.096865 C270.759918,454.715641 297.037116,472.811208 278.394619,496.799927 C271.761855,505.341078 262.809243,511.97729 254.029473,516.99498 C260.527205,561.1112 270.17388,598.958686 273.765727,624.930702 C274.840581,632.717984 288.973014,630.853576 296.642823,632.545053 C311.655664,635.855053 313.932301,632.755812 320.446237,624.930702 C332.645014,610.285641 310.186517,441.586424 310.186517,441.586424 L328.737192,328.60329 C328.737192,328.60329 308.892912,337.544343 301.42295,359.157967" fill="#09333E"></path>
                    <path d="M268.704194,227.991449 C285.178079,233.46038 320.380882,242.452771 339.698538,227.407808 C360.774308,210.995612 292.699353,200.381996 267.040601,197.042273 C267.667149,207.882861 268.22348,218.342461 268.704194,227.991449" fill="#09333E"></path>
                    <path d="M163.861957,25.1168204 C163.861957,25.1168204 161.955307,15.7623551 169.93839,11.1418653 C177.921473,6.52137551 190.711689,16.9647633 195.648454,26.1598082 C203.485702,40.7670408 203.358772,51.2077265 200.188224,63.4560776 C197.017676,75.7044286 167.470008,69.181702 152.584097,58.9409673 C137.698186,48.7029347 151.060938,27.7999469 163.861957,25.1168204" fill="#09333E"></path>
                    <path d="M195.647103,26.1603486 C193.273243,21.7371078 189.073753,17.0409608 184.474568,13.8525527 C187.304836,19.702471 192.036352,30.688969 190.367358,35.6985527 C188.036708,42.7049445 165.543103,40.7675812 161.370619,35.1041037 C159.615205,32.7209037 157.916504,30.4214669 156.533778,28.5516547 C146.930313,35.5445363 140.60002,50.6948792 152.585447,58.9415078 C167.468657,69.1795404 197.019027,75.704969 200.189575,63.456618 C203.357422,51.2082669 203.484352,40.7675812 195.647103,26.1603486" fill="#09333E"></path>
                    <path d="M211.813926,190.337159 C220.758436,191.988106 231.385442,182.439094 235.374283,169.23422 C240.419073,152.519396 228.860346,108.087037 214.109468,98.0678694 C199.353187,88.048702 193.838487,156.929127 197.708499,172.230784 C200.46855,183.141624 203.644499,188.826718 211.813926,190.337159" fill="#0D4351"></path>
                    <path d="M127.883261,75.1969853 C127.883261,75.1969853 69.2227261,114.209051 71.2265987,140.718773 C73.2250701,167.228496 123.462318,141.218651 142.458599,117.710896 C161.45758,94.2031404 127.883261,75.1969853 127.883261,75.1969853" fill="#0D4351"></path>
                    <path d="M138.635577,57.5440122 C138.635577,57.5440122 169.017743,64.7638653 172.717615,77.4337347 C176.414787,90.100902 157.915424,90.5872694 152.268392,84.7562653 C146.621361,78.9225592 138.635577,57.5440122 138.635577,57.5440122" fill="#D95F76"></path>
                    <path d="M160.773508,337.670798 C160.773508,337.670798 180.885152,448.562553 185.803011,475.836953 C190.718171,503.114056 232.726578,635.019582 232.726578,635.019582 L259.092897,635.019582 C259.092897,635.019582 265.369177,537.989296 255.984464,478.965917 C254.069712,466.912113 239.626706,443.171982 237.641738,430.229207 C229.907113,379.779402 233.174884,326.492456 233.174884,326.492456 L160.773508,337.670798 Z" fill="#FFC9A7"></path>
                    <path d="M260.372729,607.72978 C261.536703,574.61627 262.24427,518.338164 255.984194,478.966727 C254.069442,466.912923 239.626436,443.172793 237.641468,430.230017 C229.906843,379.780213 233.174614,326.490564 233.174614,326.490564 L203.049009,331.143478 C200.556321,338.174189 198.830614,344.215952 198.266181,348.614874 C194.739149,376.124352 217.532525,404.741666 221.108168,448.114825 C224.681111,491.485282 238.983684,541.567609 243.769213,574.656801 C244.709034,581.174123 251.436321,604.27387 260.372729,607.72978" fill="#FFAA74"></path>
                    <path d="M168.588071,638.56574 C172.431078,644.223814 187.908428,638.852157 187.908428,638.852157 C189.374874,612.366753 173.929931,503.37183 146.405039,458.5801 C135.896861,441.473479 143.35602,380.018263 144.984504,337.933977 C111.080708,335.221128 85.3814471,327.722965 68.8265427,321.556908 C62.6879949,407.987087 93.021549,527.228149 168.588071,638.56574" fill="#FFC9A7"></path>
                    <path d="M146.40531,458.579289 C135.894431,441.472669 143.35629,380.020154 144.984775,337.935869 C133.363934,337.006367 122.734227,335.504032 113.07945,333.696367 C112.193641,335.566179 111.375348,337.611624 110.659679,339.905656 C100.291934,372.994848 114.891577,404.889738 112.506915,424.563297 C110.122252,444.236856 119.955271,463.318669 125.318736,475.240073 C129.348087,484.197338 126.425997,523.09862 115.898915,544.804113 C130.101564,576.08564 147.590889,607.629264 168.588341,638.56493 C172.431348,644.223003 187.908698,638.854048 187.908698,638.854048 C189.375144,612.365942 173.927501,503.37102 146.40531,458.579289" fill="#FFC9A7"></path>
                    <path d="M243.768132,336.501896 C236.751878,312.472647 239.56054,296.465757 239.43091,284.906426 C238.996107,247.199447 217.277585,224.064573 204.430655,208.425161 C197.174043,199.592189 190.052464,192.610116 185.210222,185.59832 C150.212668,185.503749 114.234782,176.322214 101.317636,172.677161 C99.7863745,178.702712 97.9472408,185.20112 95.6571006,192.310189 C79.148107,240.184949 65.1345019,283.117675 68.3941707,329.011838 C84.9490752,335.177896 114.148362,338.341985 148.052158,341.052132 C149.853483,294.379781 148.173687,280.39672 152.267852,280.883087 C155.187241,281.228949 149.864285,292.882851 153.998961,341.833022 C181.947852,350.636271 215.298018,352.873561 243.768132,336.501896" fill="#FF9791"></path>
                    <path d="M239.429559,284.907237 C238.997457,247.197555 217.278935,224.062682 204.429304,208.423269 C197.175394,199.593 190.053814,192.608224 185.211572,185.599131 C177.582273,185.577514 169.904362,185.123571 162.428999,184.391318 C162.345279,196.718029 164.016973,208.047686 168.891623,215.543147 C185.803011,241.534078 204.861406,258.52451 210.081738,280.435359 C214.324438,298.260722 198.641839,321.709033 198.266451,348.613253 C213.795113,348.280902 229.402094,344.760143 243.766782,336.502706 C236.753228,312.473457 239.56189,296.466567 239.429559,284.907237" fill="#D95F76"></path>
                    <path d="M185.211032,185.59805 C182.467185,181.623348 181.948662,175.308678 181.948662,170.885438 C181.948662,142.85987 225.291185,132.257062 199.181427,100.675609 C187.930573,87.0654294 173.071669,72.9742865 141.344586,72.9823927 C135.197936,72.9850947 132.394675,78.4486212 126.501885,84.4930865 C106.25251,105.263674 120.266115,129.290221 101.318446,172.676891 C79.4783949,217.971201 145.411745,228.368654 185.211032,185.59805" fill="#0D4351"></path>
                    <path d="M181.948662,59.3289804 L178.043541,85.8305967 C177.057809,90.1835845 161.766803,98.8057967 156.208892,91.6940253 C154.580408,89.6107518 158.61786,84.260711 161.572357,80.1941396 L172.067032,58.7345314 L181.948662,59.3289804 Z" fill="#FFC9A7"></path>
                    <path d="M165.834502,71.4789771 C175.878171,71.3006424 179.602349,63.3593445 179.602349,63.3593445 L170.571419,61.7975649 L165.834502,71.4789771 Z" fill="#066364"></path>
                    <path d="M185.253432,43.3712678 L184.456744,53.8768024 C183.827496,62.2044922 176.822043,68.9649984 168.485177,68.5029494 C160.788362,68.078729 154.657916,62.1423453 155.759776,52.5473984 C156.737406,44.0197576 164.312693,38.2427943 167.326604,34.9895371 C174.197024,27.5751371 185.285839,31.2228922 185.253432,43.3712678" fill="#FFC9A7"></path>
                    <path d="M182.679185,53.0410612 C183.203108,52.2790857 183.610904,51.4468571 183.964688,50.5930122 C184.639847,48.9663837 186.014471,46.7047755 187.934624,48.8934286 C190.727083,52.0737306 186.662624,60.5392245 182.374013,59.5313633 C179.187261,58.7856 181.353172,54.9595102 182.679185,53.0410612" fill="#FFC9A7"></path>
                    <path d="M162.131659,44.9176457 C162.212678,43.9962498 162.431429,43.0964702 162.704194,42.2129029 C163.220015,40.5268294 163.600805,37.9085518 160.727327,38.3678988 C156.552143,39.0353029 154.283608,48.1492865 158.229238,50.1109682 C161.159429,51.5700702 161.929111,47.2414008 162.131659,44.9176457" fill="#FFC9A7"></path>
                    <path d="M172.10349,55.319422 C172.10349,55.319422 167.852688,54.6763363 162.678268,51.7473241 C162.678268,51.7473241 162.413605,56.2083935 164.058293,58.3321976 C165.70028,60.4587037 169.059873,59.0293241 172.10349,55.319422" fill="#FFFFFF"></path>
                    <path d="M168.363918,64.9957004 C165.304097,64.374231 160.191791,61.9018637 158.403969,59.5294718 C156.826797,57.424582 156.003103,53.05268 155.835664,52.0853494 C155.814059,52.2420678 155.77895,52.39068 155.760046,52.5501004 C154.658186,62.1423453 160.788632,68.078729 168.485447,68.5029494 C173.622059,68.7866637 178.24825,66.3251045 181.194645,62.4449739 C176.149855,65.363178 171.115868,65.5550229 168.363918,64.9957004" fill="#FFAA74"></path>
                    <path d="M131.873452,304.432454 C127.592943,313.754495 116.644561,308.817866 107.629834,337.105531 C119.82321,338.640291 133.499236,339.888633 148.050268,341.050511 C149.497809,303.584013 148.701121,287.196136 150.451134,282.43514 C146.257045,286.101809 135.873096,295.718372 131.873452,304.432454" fill="#D95F76"></path>
                    <path d="M232.878354,98.3818465 C232.878354,98.3818465 209.053335,79.7674873 197.008494,79.9593322 C184.963654,80.1511771 192.406609,98.4439935 201.73731,102.83481 C211.06531,107.225626 232.878354,98.3818465 232.878354,98.3818465" fill="#D95F76"></path>
                    <path d="M68.9650854,258.852538 C78.1337478,237.157852 72.6055439,212.76653 80.0349962,190.207191 C85.2904357,174.246236 103.279378,153.591836 113.59041,143.143044 C123.823124,147.263656 132.424652,156.731607 142.425111,159.179656 C149.530487,160.917069 155.882385,162.232962 160.489671,163.11653 C162.026334,193.174032 158.566818,225.971403 154.140474,250.89773 C148.582563,282.200873 139.305875,307.837836 130.288448,313.971469 C119.053799,321.61284 103.557544,309.464464 109.120856,287.337452 C114.77869,264.832154 110.698028,225.233746 110.657518,225.393167 C104.427149,249.146807 109.879735,313.871493 60.9901045,290.123256 C54.8893656,287.16182 63.6907414,271.341371 68.9650854,258.852538" fill="#098485"></path>
                    <path d="M61.9682752,290.580442 C109.799256,312.98036 104.468199,248.982523 110.658059,225.393707 C110.658059,225.393707 105.802313,215.542066 95.3022369,211.129633 C89.0340586,208.495144 89.8307465,236.839552 89.1042752,246.229144 C88.3994089,255.294491 78.7905427,286.451723 59.4188739,282.341919 C59.1623134,283.433544 59.0083771,284.436001 58.957065,285.354695 C59.7105427,286.843519 60.7205809,288.667397 61.9682752,290.580442" fill="#066364"></path>
                    <path d="M91.2056408,291.018442 C89.3746089,297.022377 66.8431949,299.351536 56.1783796,288.654157 C42.9371567,275.368222 15.5662013,244.151544 14.9828637,225.391275 C14.9126471,223.072924 16.5384306,218.782083 21.3509656,217.968769 C25.8988382,217.201389 31.8132331,222.735169 37.8221503,226.291055 C85.915093,254.72463 93.6686217,282.928532 91.2056408,291.018442" fill="#098485"></path>
                    <path d="M14.6755312,218.046318 C16.0825631,217.451869 18.1053401,216.173803 19.0694675,215.541526 C19.3449325,217.01684 22.0509707,218.670489 23.2851618,220.010701 C24.8407287,221.694073 22.0212637,226.446962 18.7967032,226.214587 C14.8645758,225.936277 14.6566268,222.261501 10.8487287,224.647403 C12.5987414,221.626522 13.3819261,218.59213 14.6755312,218.046318" fill="#FFC9A7"></path>
                    <path d="M1.52558981,229.400563 L12.9546854,206.660188 C12.9546854,206.660188 15.6310166,207.17898 17.5808764,210.691633 C18.5666089,212.461469 18.7907618,214.044865 19.0689274,215.541796 C18.1048,216.174073 16.2494624,217.835829 15.0503796,218.781543 C13.3138701,220.148776 12.6009019,221.626792 10.8481885,224.647673 C10.7266599,224.726033 10.6132331,224.78818 10.4836025,224.877347 C3.92105478,229.400563 1.52558981,229.400563 1.52558981,229.400563" fill="#066364"></path>
                    <g transform="translate(0.000000, 205.847363)">
                        <mask fill="white">
                            <use xlink:href="#path-5"></use>
                        </mask>
                        <path d="M10.4846828,0.81417551 C13.7794599,-0.0639877551 15.4430522,2.23544898 13.1529121,5.85618367 C13.1340076,5.88860816 4.55138344,24.4678408 0.821803822,23.5869755 C-2.9077758,22.7088122 7.06027516,1.72746531 10.4846828,0.81417551" fill="#FF9791" mask="url(#mask-6)"></path>
                    </g>
                    <path d="M138.152973,83.0774873 C131.598527,91.5456833 124.395929,98.7709404 117.412082,101.599977 C105.65891,106.360973 90.3598013,113.945602 78.846986,119.871177 C73.8616102,127.066712 70.7369732,134.262247 71.2230879,140.720124 C73.2242599,167.227144 123.464209,141.220002 142.460489,117.709544 C154.019215,103.407642 146.114451,90.7810057 138.152973,83.0774873" fill="#09333E"></path>
                    <path d="M218.027552,101.599707 C216.661029,109.122189 215.540265,117.093209 215.599679,122.756687 C215.742813,136.90187 221.081972,144.056874 220.757896,151.881984 C220.514838,157.799454 212.237386,174.325136 200.840698,181.547691 C203.198354,186.500531 206.409411,189.337674 211.813386,190.337429 C220.757896,191.988376 231.384902,182.439364 235.373743,169.234491 C239.962125,154.032809 230.817768,115.917821 218.027552,101.599707" fill="#09333E"></path>
                    <path d="M175.582181,84.8030106 C175.582181,84.8030106 163.064729,75.1972555 148.862079,62.3625616 C134.478487,49.3603412 125.274716,65.2834678 128.177901,78.5667004 C129.903608,86.4566596 138.113544,103.393051 138.113544,103.393051 L175.582181,84.8030106 Z" fill="#FF9791"></path>
                    <path d="M123.457727,300.478287 C123.252479,306.59841 122.644836,311.829561 122.145218,316.209569 C124.878262,316.431136 127.695027,315.73401 130.287638,313.972279 C139.305065,307.838647 148.584454,282.201683 154.139664,250.89854 C158.566008,225.969512 162.025524,193.174842 160.488861,163.11734 C155.881575,162.231071 149.529676,160.917879 142.424301,159.180467 C137.023027,157.856467 132.03225,154.487022 126.971256,151.020304 C123.833116,150.152949 121.894059,149.674687 121.894059,149.674687 C121.894059,149.674687 142.672759,189.45143 144.014976,206.660728 C145.354492,223.872728 127.478976,235.051071 132.955868,249.361079 C138.427358,263.668385 141.252224,271.269226 139.280759,279.540173 C137.311995,287.813822 124.205804,278.043242 123.457727,300.478287" fill="#066364"></path>
                    <path d="M201.947689,61.0323469 C201.947689,61.0323469 207.743256,59.9596367 210.033396,64.4180041 C212.326237,68.8790735 211.729396,77.9795469 215.302339,80.0601184 C218.880683,82.1433918 214.111358,86.3423633 208.674976,83.6106 C203.238594,80.8761347 198.320734,68.8790735 198.620504,66.7903959 C198.917575,64.7044204 201.947689,61.0323469 201.947689,61.0323469" fill="#09333E"></path>
                    <path d="M200.573605,59.7815722 C200.573605,59.7815722 213.44214,69.2603314 197.800051,81.6221682 C190.637962,87.2802416 187.740178,64.8019641 187.740178,64.8019641 L200.573605,59.7815722 Z" fill="#09333E"></path>
                    <path d="M179.633136,76.75228 L167.364143,91.4973167 C165.354869,93.9318555 166.278487,105.131815 172.662792,105.169643 C174.528932,105.180451 175.776627,100.603194 176.773162,97.1905167 L184.240423,82.0293657 L179.633136,76.75228 Z" fill="#FFC9A7"></path>
                    <path d="M179.807327,91.0344571 C177.406461,87.4596571 178.089722,80.0614694 178.089722,80.0614694 L183.175022,84.1928898 L179.807327,91.0344571 Z" fill="#066364"></path>
                    <path d="M187.379103,67.2148865 L181.845498,72.2055559 C177.459664,76.1613437 176.708887,83.0083151 180.570797,87.4774906 C184.135638,91.6035069 190.109447,92.4735641 195.000301,87.704462 C199.351027,83.467662 199.305116,76.7260702 199.820938,73.6322335 C201.001116,66.5772049 194.163103,61.9432049 187.379103,67.2148865" fill="#FFC9A7"></path>
                    <path d="M190.520214,79.8739478 C190.520214,79.8739478 192.375552,81.9761355 195.648724,83.6081682 C195.648724,83.6081682 194.463144,85.8049273 192.985896,85.1780539 C191.360112,84.4890335 189.880163,83.1812457 190.520214,79.8739478" fill="#FFFFFF"></path>
                    <path d="M182.587093,86.0289265 C184.256087,87.4718163 187.850634,89.2659714 189.95173,89.238951 C191.812469,89.2173347 194.613029,87.7852531 195.228775,87.4610082 C195.150456,87.5420694 195.08294,87.6258327 195.001921,87.7041918 C190.108367,92.4732939 184.134558,91.6032367 180.569717,87.4772204 C178.190456,84.7238408 177.56931,81.0679796 178.46322,77.7390653 C179.01415,81.8272531 181.082838,84.7292449 182.587093,86.0289265" fill="#FFAA74"></path>
                    <path d="M198.031225,69.5934931 C195.71678,69.4178604 193.388831,69.5367502 191.201315,70.3068318 C187.963251,71.4470931 181.843608,73.9816073 178.586639,77.3078196 C176.607073,79.3262441 176.409926,75.9162686 176.272194,72.1604318 C175.969722,63.8705706 182.208194,49.7497053 191.244525,52.7813951 C201.755404,56.3048563 205.30134,65.2729298 201.704092,68.0965624 C200.08641,69.3692237 198.873824,69.658342 198.031225,69.5934931" fill="#09333E"></path>
                    <path d="M183.08266,72.8391845 C183.279806,72.2150131 183.571475,71.6286702 183.898252,71.0612416 C184.513997,69.9804253 185.183755,68.2295029 183.131271,68.1025069 C180.141666,67.9133641 177.165564,73.8524498 179.582634,75.8195355 C181.378558,77.2813396 182.580341,74.4144743 183.08266,72.8391845" fill="#FFC9A7"></path>
                    <path d="M188.969238,54.1967241 C188.969238,54.1967241 187.243531,49.9302016 183.173671,49.8653527 C179.103811,49.8005037 174.410104,53.2158833 173.964499,57.3959404 C173.516194,61.5732955 160.966334,67.9501118 165.603327,70.7629363 C170.240321,73.5730588 182.479608,63.2134343 184.515888,58.9658261 C186.552168,54.718218 188.969238,54.1967241 188.969238,54.1967241" fill="#09333E"></path>
                    <path d="M178.042731,85.8295159 C178.042731,85.8295159 203.174859,90.5391731 223.994069,94.5598098 C244.81598,98.5831486 240.389636,120.891198 208.748973,123.749957 C177.10561,126.608716 164.866324,122.90692 160.701941,113.560561 C156.534859,104.216904 162.508668,90.4608139 178.042731,85.8295159" fill="#FF9791"></path>
                    <path d="M184.955282,90.1017127 C184.955282,90.1017127 171.54932,80.660782 159.682721,78.9720065 C147.813422,77.283231 128.595689,104.260407 121.147332,121.550766 C113.698976,138.841125 87.3326573,159.854896 93.1417274,172.078929 C98.9507975,184.30026 149.444606,200.247704 163.228657,186.983386 C177.012708,173.716366 185.152428,118.719027 184.955282,109.029509 C184.758135,99.3426922 184.955282,90.1017127 184.955282,90.1017127" fill="#FF9791"></path>
                    <path d="M164.576545,147.857835 C161.443806,160.379092 164.031017,160.514194 158.092316,165.296807 C152.153615,170.079419 122.784189,174.686398 120.105157,179.382545 C119.23015,180.9119 117.923042,183.586921 116.55652,186.491615 C133.64345,192.400978 154.989284,194.911174 163.228927,186.983386 C173.394125,177.199296 180.483297,144.736978 183.426991,124.471672 C183.391883,124.498692 167.703883,135.35279 164.576545,147.857835" fill="#D95F76"></path>
                    <path d="M77.3070828,133.549448 C77.3070828,133.549448 81.9089682,120.976852 96.4708025,113.540836 C111.027236,106.102118 148.625503,99.8712114 157.956204,103.038003 C167.286904,106.207497 122.964051,145.551913 106.965478,149.721162 C90.9723057,153.890411 69.3077962,152.555603 77.3070828,133.549448" fill="#FFC9A7"></path>
                    <path d="M42.1934013,331.857628 C42.1934013,331.857628 35.1906497,332.454779 32.6601529,333.794991 C30.1269554,335.135203 30.7237962,350.03966 34.1482038,356.300289 C37.5753121,362.560918 42.3446369,364.944118 44.129758,360.474942 C45.9175796,356.003064 41.4507261,344.516689 44.129758,342.881954 C46.8114904,341.24722 49.1961529,337.075269 48.302242,335.432428 C47.4083312,333.794991 46.3280764,331.341538 42.1934013,331.857628" fill="#098485"></path>
                    <path d="M215.213488,164.318127 C199.647017,147.714087 135.963297,143.334078 127.791169,149.308291 C119.619042,155.282503 170.442329,190.522519 199.95759,191.987025 C226.037641,193.281303 221.803042,171.348838 215.213488,164.318127" fill="#FFC9A7"></path>
                    <path d="M229.151745,108.433979 C220.809478,109.625579 218.91093,109.476967 211.813656,110.371342 C204.719083,111.265718 193.846318,114.246069 193.846318,114.246069 C193.846318,114.246069 183.948484,121.114656 183.432662,124.470591 C190.046522,124.916428 198.342879,124.692158 208.748433,123.749146 C228.671032,121.949587 237.793783,112.438403 236.629809,104.637611 C235.190369,106.27775 232.870522,107.904379 229.151745,108.433979" fill="#D95F76"></path>
                    <path d="M139.281839,301.76581 C139.281839,301.76581 131.236642,319.915418 116.242706,326.827238 C101.248769,333.736357 63.1049732,347.143883 51.6839796,345.8415 C41.5133809,344.685026 31.4562089,332.342104 46.6634955,324.403508 C58.5516994,318.19692 95.2398522,288.350177 114.976107,287.442291 C128.04719,286.839736 139.281839,301.76581 139.281839,301.76581" fill="#098485"></path>
                    <path d="M131.744362,294.154431 C128.503597,298.293958 122.967292,304.986913 116.30482,311.512341 C105.580591,322.017876 99.771521,321.572039 85.4689478,326.492456 C72.4059669,330.983247 52.045865,340.353925 38.9261707,334.857974 C39.3906803,340.313394 45.5103236,345.141941 51.6839796,345.84177 C63.1049732,347.144153 101.248769,333.736627 116.242706,326.827509 C131.236642,319.915688 139.281839,301.76608 139.281839,301.76608 C139.281839,301.76608 136.346247,297.880545 131.744362,294.154431" fill="#066364"></path>
                    <path d="M32.6593427,333.794451 C30.1288459,335.134663 30.722986,350.041822 34.1500943,356.299749 C37.5745019,362.560377 42.3438268,364.943577 44.1289478,360.474402 C45.6710115,356.615887 42.5679796,347.55054 43.4051771,344.08112 C42.3546293,340.495512 42.1088713,334.832034 42.0548586,331.867896 C41.1096357,331.954361 34.992693,332.556916 32.6593427,333.794451" fill="#066364"></path>
                    <path d="M44.1292178,342.882224 C46.8109503,341.24749 49.1956127,337.075539 48.3017019,335.432698 C47.4077911,333.795261 46.3275363,331.341808 42.1928611,331.857898 C42.1928611,331.857898 42.1388484,331.863302 42.0551287,331.868706 C42.1091414,334.832845 42.3548994,340.496322 43.4027465,344.079229 C43.5377783,343.528012 43.7619312,343.106494 44.1292178,342.882224" fill="#FFC9A7"></path>
                    <path d="M41.5314752,362.754384 C42.2363414,361.941069 39.3628637,336.776963 35.9384561,334.391061 C34.9770293,333.723657 34.0318064,333.521004 33.1622013,333.561535 C32.9812586,333.637192 32.8111185,333.715551 32.6598828,333.79391 C30.1266854,335.134122 30.7235261,350.041282 34.1506344,356.299208 C36.4434752,360.490073 39.3331567,362.930016 41.5314752,362.754384" fill="#FF9791"></path>
                    <path d="M75.1892433,284.907237 C64.6864662,283.564322 54.4105427,275.963482 46.3653452,266.798159 C38.3201478,257.630135 27.5932178,236.392094 21.3385427,231.25011 C18.9592815,229.293833 16.7960713,226.916037 15.0244535,224.716576 C15.0028484,224.951653 14.9785427,225.186731 14.9839439,225.392086 C15.5672815,244.152355 42.9382369,275.369033 56.1794599,288.654967 C66.8442752,299.352347 89.3756892,297.023188 91.206721,291.019253 C91.6226191,289.646616 91.7360459,287.682233 91.4200713,285.250396 C86.4563006,286.909449 81.0118166,285.650298 75.1892433,284.907237" fill="#066364"></path>
                    <path d="M203.066023,181.617403 C189.049717,180.944595 177.979806,172.673648 164.576545,164.624269 C151.170583,156.577591 149.377361,158.142073 136.862609,155.791297 C130.075908,154.515934 127.737157,152.292154 127.007985,150.522318 C125.023017,158.966195 172.019501,190.601689 199.95759,191.987836 C215.823832,192.77413 220.460825,184.965232 220.18266,177.142824 C215.621284,179.65302 209.615068,181.93084 203.066023,181.617403" fill="#FFAA74"></path>
                    <path d="M141.053997,150.237793 C141.053997,150.237793 133.381488,144.498658 125.114838,143.604282 C121.18001,143.180062 115.081972,145.638919 114.976647,147.479009 C114.830813,150.013523 140.457157,163.056274 141.053997,150.237793" fill="#FFC9A7"></path>
                    <path d="M112.507455,131.984696 C103.792499,135.11366 87.7021045,140.928451 82.5627924,139.361268 C80.6723465,138.785733 78.5091363,137.299611 76.5295694,135.651366 C70.9770599,152.641798 91.5829197,153.728019 106.965748,149.720892 C119.593926,146.432509 149.857264,121.230574 157.459557,109.198386 C153.497722,109.757709 148.520448,110.957415 144.237238,113.540566 C135.522283,118.793333 121.22241,128.853031 112.507455,131.984696" fill="#FFAA74"></path>
                    <path d="M146.0256,104.796762 C146.0256,104.796762 153.69811,99.0576269 161.964759,98.1632514 C165.899587,97.739031 171.997625,100.195186 172.10295,102.037978 C172.248785,104.572492 164.576275,104.42388 160.846696,108.671488 C158.929243,110.857439 146.622441,117.615243 146.0256,104.796762" fill="#FFC9A7"></path>
                    <path d="M382.40506,88.3483584 C373.249901,100.837191 361.153748,161.014342 338.462996,162.081648 C334.744219,162.257281 235.665952,142.780971 235.665952,142.780971 C235.665952,142.780971 222.675888,166.005011 235.171735,187.669975 C250.989366,215.087583 322.143047,241.129852 364.518741,220.653787 C406.891735,200.177722 416.511404,135.963722 417.402614,117.946513 C419.584729,73.8762278 392.626971,74.4058278 382.40506,88.3483584" fill="#FF9791"></path>
                    <path d="M405.479302,81.8872384 C407.656015,92.6278506 410.753646,112.695908 407.172601,126.927557 C402.060296,147.233393 389.483429,187.256022 367.859429,190.522789 C346.23813,193.789557 341.91441,206.526977 323.579786,204.168096 C305.242461,201.806512 260.147225,174.275418 247.686487,158.227998 C243.189926,152.437524 237.861569,150.008389 232.884296,149.259924 C229.924397,157.674079 226.726843,173.024373 235.171735,187.669434 C250.989366,215.087042 322.143047,241.129312 364.518741,220.653247 C406.891735,200.177181 416.511404,135.963181 417.402614,117.945973 C418.450461,96.7998016 412.781824,85.9402996 405.479302,81.8872384" fill="#D95F76"></path>
                    <path d="M232.137299,157.805669 C226.371439,156.984248 215.833554,149.183456 216.397987,143.249775 C219.087822,115.024256 226.190497,140.255913 227.967516,139.888436 C229.955185,139.472322 227.567822,136.032624 228.702089,131.795824 C229.21251,129.893587 232.037376,129.504493 232.002268,130.398869 C231.691694,138.999464 246.356153,138.064558 242.596866,152.412395 C241.743465,155.668354 235.467185,158.278526 232.137299,157.805669" fill="#FFC9A7"></path>
                </g>
                <g transform="translate(198.000000, 606.000000)">
                    <g transform="translate(17.478261, 0.367382)">
                        <mask fill="white">
                            <use xlink:href="#path-7"></use>
                        </mask>
                        <path d="M23.3049304,2.5371 C15.2299739,3.59391818 6.74642425,-3.67292965 9.66529382,3.68534308 C12.4676416,10.7477067 18.6673652,33.2609182 18.2653652,34.0697364 C17.9420174,34.7235545 9.99814783,37.3641909 3.76714783,40.5797364 C0.999756522,42.9977364 -1.69189565,46.0892818 1.36097391,46.9882818 C6.58697391,48.5326455 37.1069304,48.0845545 39.8918,43.1555545 C40.826887,41.5012818 42.0212348,40.1880091 43.3583217,39.1621909 C41.5217391,32.1169932 44.9882609,30.8403956 43.3583217,20.2576948 C42.6619357,15.7362716 43.7486696,-0.137354545 39.084887,0.474190909 L23.3049304,2.5371 Z" fill="#FFC9A7" mask="url(#mask-8)"></path>
                    </g>
                    <g transform="translate(0.000000, 38.821927)">
                        <mask fill="white">
                            <use xlink:href="#path-9"></use>
                        </mask>
                        <path d="M57.3709348,4.70129091 C54.5831522,9.63029091 24.0661087,10.0783818 18.8371957,8.53401818 C15.7872391,7.63501818 18.4759783,4.54347273 21.2462826,2.12547273 C11.895413,6.95301818 0.356847826,13.1671091 0.00436956522,16.2896545 C-0.584065217,21.4920182 54.9443696,20.4859273 64.088413,15.3145636 C68.8687174,12.6091091 65.4021957,7.00656364 60.8345435,0.707927273 C59.5003696,1.73374545 58.3031087,3.04701818 57.3709348,4.70129091" fill="#066364" mask="url(#mask-10)"></path>
                    </g>
                </g>
                <g transform="translate(131.000000, 604.000000)">
                    <g transform="translate(17.478261, 0.367382)">
                        <mask fill="white">
                            <use xlink:href="#path-11"></use>
                        </mask>
                        <path d="M23.3049304,2.5371 C15.2299739,3.59391818 3.46127826,5.24255455 6.38014783,12.6008273 C9.18249565,19.6631909 18.6673652,33.2609182 18.2653652,34.0697364 C17.9420174,34.7235545 9.99814783,37.3641909 3.76714783,40.5797364 C0.999756522,42.9977364 -1.69189565,46.0892818 1.36097391,46.9882818 C6.58697391,48.5326455 37.1069304,48.0845545 39.8918,43.1555545 C40.826887,41.5012818 42.0212348,40.1880091 43.3583217,39.1621909 C40.1015391,34.6671909 33.7944813,26.5281636 36.4074813,14.6326182 C37.3862639,10.1742545 37.3862639,5.68534308 36.4074813,-3.26191307 L23.3049304,2.5371 Z" fill="#FFC9A7" mask="url(#mask-12)"></path>
                    </g>
                    <g transform="translate(0.000000, 38.821927)">
                        <mask fill="white">
                            <use xlink:href="#path-13"></use>
                        </mask>
                        <path d="M57.3709348,4.70129091 C54.5831522,9.63029091 24.0661087,10.0783818 18.8371957,8.53401818 C15.7872391,7.63501818 18.4759783,4.54347273 21.2462826,2.12547273 C11.895413,6.95301818 0.356847826,13.1671091 0.00436956522,16.2896545 C-0.584065217,21.4920182 54.9443696,20.4859273 64.088413,15.3145636 C68.8687174,12.6091091 65.4021957,7.00656364 60.8345435,0.707927273 C59.5003696,1.73374545 58.3031087,3.04701818 57.3709348,4.70129091" fill="#066364" mask="url(#mask-14)"></path>
                    </g>
                </g>
            </g>
        </g>
    </g>
</svg>
