<?xml version="1.0" encoding="UTF-8"?>
<svg width="1440px" height="1504px" viewBox="0 0 1440 1504" version="1.1" xmlns="http://www.w3.org/2000/svg" xmlns:xlink="http://www.w3.org/1999/xlink">
    <defs>
        <polygon id="wave-path-1" points="0 0 2446 0 2446 1626 0 1626"></polygon>
        <polygon id="wave-path-2" points="0 0 8798 0 8798 1626 0 1626"></polygon>
    </defs>
    <g stroke="none" stroke-width="1" fill="none" fill-rule="evenodd">
        <g transform="translate(0.000000, -228.000000)">
            <g transform="translate(-4976.000000, -249.000000)">
                <g transform="translate(4843.000000, 0.000000)">
                    <mask id="mask-2" fill="white">
                        <use xlink:href="#wave-path-1"></use>
                    </mask>
                    <path d="M2212.31077,620.6294 C2272.00219,963.87579 2201.76499,1420.62359 489.067599,1619.04013 C-76.1978028,1684.5263 -105.734218,1268.03041 168.46278,1201.09979 C341.419889,1158.88527 373.556664,1256.61928 529.140624,1228.54199 C657.806857,1205.32308 619.839321,1108.22416 710.535727,1011.12983 C866.367122,844.300825 1050.12202,1047.01172 1142.9285,755.721851 C1189.86097,608.418094 1316.90055,630.46998 1377.05476,557.305316 C1514.1567,390.55197 1829.29962,518.534532 1874.83454,641.738957 C1931.78356,795.827028 1983.98319,4.30692338 2121.61436,0.0515375609 C2238.8161,-3.56875027 2138.62552,184.663289 2279.80785,211.133348 C2392.61532,232.284174 2260.2284,332.563167 2366.2864,369.444706 C2619.36894,457.450486 2186.61647,472.867089 2212.31077,620.6294" fill="#49C5B6" mask="url(#mask-2)"></path>
                </g>
                <g id="Group-3-Copy" transform="translate(4470.000000, 1903.310411) scale(-1, -1) rotate(8.000000) translate(-4470.000000, -1903.310411) translate(71.000000, 1090.310411)">
                    <mask id="mask-4" fill="white">
                        <use xlink:href="#wave-path-2"></use>
                    </mask>
                    <path d="M7957.44487,620.6294 C8172.1485,963.87579 7919.51285,1420.62359 1759.12377,1619.04013 C-274.075335,1684.5263 -380.314656,1268.03041 605.942576,1201.09979 C1228.05077,1158.88527 1343.64331,1256.61928 1903.26215,1228.54199 C2366.0608,1205.32308 2229.49564,1108.22416 2555.7209,1011.12983 C3116.22974,844.300825 3777.17643,1047.01172 4110.99139,755.721851 C4279.80248,608.418094 4736.75022,630.46998 4953.11849,557.305316 C5446.25946,390.55197 6579.79479,518.534532 6743.57903,641.738957 C6948.41853,795.827028 7136.17502,4.30692338 7631.21961,0.0515375609 C8052.78172,-3.56875027 7692.40693,184.663289 8200.22462,211.133348 C8605.98104,232.284174 8129.79946,332.563167 8511.27872,369.444706 C9421.58951,457.450486 7865.02523,472.867089 7957.44487,620.6294" fill="#49C5B6" mask="url(#mask-4)"></path>
                </g>
            </g>
        </g>
    </g>
</svg>
