<?xml version="1.0" encoding="UTF-8"?>
<svg width="1440px" height="752px" viewBox="0 0 1440 752" version="1.1" xmlns="http://www.w3.org/2000/svg" xmlns:xlink="http://www.w3.org/1999/xlink">
    <!-- Generator: Sketch 54.1 (76490) - https://sketchapp.com -->
    <title>Combined Shape</title>
    <desc>Created with Sketch.</desc>
    <defs>
        <path d="M8847.66029,420.641169 L8654.0415,1798.31041 L3926.66303,1133.9207 L3926.66303,1151.68959 L2486.66303,1151.68959 L2486.66303,931.541893 L1085.37627,734.603882 C1089.21109,735.142832 1093.11704,735.674532 1097.09557,736.198878 C1587.91465,800.881795 1884.00222,43.1953634 2065.40332,224.292008 C2210.44689,369.091777 3315.13899,653.586448 3826.68833,557.087893 C4051.13347,514.747904 4500.5652,600.180018 4688.23415,477.803774 C5059.34016,235.806778 5685.64266,528.530908 6263.91478,441.333222 C6600.47815,390.585587 6478.75559,275.425433 6940.28177,316.841615 C7498.36204,366.921458 7599.22769,479.791704 8221.1567,524.568731 C8608.18368,552.43118 8836.01105,503.528578 8847.66029,420.641169 Z M8847.66031,420.641039 C8863.53736,307.669341 8477.83299,131.56611 7546.28454,0.645689585 L8880.33697,188.134531 L8847.66031,420.641039 Z M0.214412527,157.250767 C0.214409657,157.250787 0.214406786,157.250807 0.214403916,157.250828 L0.214412527,157.250767 Z" id="path-1"></path>
    </defs>
    <g id="Page-1" stroke="none" stroke-width="1" fill="none" fill-rule="evenodd">
        <g id="Desktop-HD-Copy-2" transform="translate(0.000000, -5059.000000)">
            <g id="Group-19" transform="translate(-2544.663035, 3622.310411)">
                <g id="Clip-2-+-Fill-1-Mask" transform="translate(59.000000, 1037.000000)">
                    <mask id="mask-2" fill="white">
                        <use xlink:href="#path-1"></use>
                    </mask>
                    <use id="Combined-Shape" fill="#09333E" xlink:href="#path-1"></use>
                </g>
            </g>
        </g>
    </g>
</svg>