<svg width="422" height="665" xmlns="http://www.w3.org/2000/svg" xmlns:xlink="http://www.w3.org/1999/xlink"><defs><path id="a" d="M.093.209h164.089v244.093H.093z"/><path id="c" d="M.437.874h129.636v239.92H.437z"/><path id="e" d="M0 .627h14.213v22.99H0z"/><path id="g" d="M.009.451h45.933v47.326H.009z"/><path id="i" d="M0 .708h66.385v19.02H0z"/><path id="k" d="M.009.451h45.933v47.326H.009z"/><path id="m" d="M0 .708h66.385v19.02H0z"/></defs><g fill="none" fill-rule="evenodd"><path d="M290.863 58.023S165.834 98.59 163.279 126.46c-6.025 65.754 91.128 32.559 110.659 20.772 19.536-11.788 16.925-89.21 16.925-89.21" fill="#D95F76"/><path d="M305.094 642.334c-3.87-5.766-4.931-12.108-5.38-17.32l-21.318-14.961s3.343 21.494.078 26.647c-1.426 2.246-5.566 3.907-11.27 6.28-9.039 4.596-20.198 10.522-20.595 13.602-.661 5.14 52.46 5.199 61.307.26 4.627-2.584 1.42-8.188-2.822-14.508M402.684 642.334c-3.873-5.766-4.932-12.108-5.383-17.32l-19.258-.081s1.285 6.614-1.982 11.767c-1.426 2.246-5.564 3.907-11.27 6.28-9.036 4.596-20.195 10.522-20.592 13.602-.662 5.14 52.46 5.199 61.307.26 4.626-2.584 1.42-8.188-2.822-14.508M317.627 32.256s-1.772-11.162 0-15.753c1.771-4.588 4.302-18.958 24.284-16.14 22.88 3.224 13.355 41.618 6.384 43.744-6.967 2.127-30.668-11.851-30.668-11.851" fill="#09333E"/><path d="M401.366 253.65c-19.995 1.843-71.648 5.078-122.185-4.336-6.195 15.05-23.266 106.522-26.047 122.362-17.906 102.018 13.454 201.353 20.633 253.257 1.074 7.784 15.204 5.92 22.877 7.611 15.012 3.313 17.29.211 23.803-7.611 12.196-14.645-10.26-183.347-10.26-183.347l18.551-112.98c3.462 41.819 10.878 78.966 15.456 112.98 6.849 50.914 7.432 137.612 21.36 186.384 2.02 7.068 24.964 4.21 36.941 2.764 3.114-.378 4.829-3.102 5.283-6.21 8.272-56.772 6.252-202.585 6.252-202.585s4.256-106.8 2.252-153.776c-.238-5.517-13.663-9.751-14.916-14.512z" fill="#0D4351"/><path d="M416.282 268.163c-.238-5.517-13.663-9.751-14.916-14.512-6.416.591-16.104 1.324-27.957 1.737v.003c-7.907 27.836.74 93.52 5.853 117.909 5.112 24.383 10.616 145.529 5.503 164.408-3.31 12.23-19.35 19.833-30.244 23.675 2.5 24.921 5.836 48.391 11.032 66.587 2.02 7.068 24.965 4.21 36.942 2.764 3.114-.378 4.829-3.102 5.283-6.21 8.272-56.772 6.252-202.585 6.252-202.585s4.256-106.8 2.252-153.776" fill="#09333E"/><path d="M274.538 265.57c-2.344 9.655-5.058 22.187-7.76 35.297 24.231 3.527 79.435 9.347 102.525-6.493 23.01-15.788-56.449-25.25-94.765-28.803" fill="#0D4351"/><g transform="translate(257.56 52.533)"><mask id="b" fill="#fff"><use xlink:href="#a"/></mask><path d="M164.18 63.846c.222-29.663-12.509-48.26-59.678-59.253C57.75-6.3 15.313 4.223 6.768 23.873c-14.462 33.245-1.255 59.693.98 92.88 3.76 55.853 5.694 111.675 5.694 111.675s47.723 34.332 144.86 2.018a7.773 7.773 0 0 0 5.279-8.125l-6.106-62.117s6.524-72.366 6.705-96.358" fill="#FF9791" mask="url(#b)"/></g><g transform="translate(291.669 55.235)"><mask id="d" fill="#fff"><use xlink:href="#c"/></mask><path d="M123.365 157.5s6.525-72.365 6.706-96.357c.221-29.66-12.507-48.261-59.676-59.25A159.602 159.602 0 0 0 65.718.874c4.666 13.024 7.87 92.912-15.475 95.774-62.43 7.644-48.474 71.231-48.474 71.231s48.21 38.058 62.096 72.915c17.395-1.543 37.498-5.456 60.33-13.051a7.77 7.77 0 0 0 5.28-8.122l-6.11-62.12z" fill="#D95F76" mask="url(#d)"/></g><path d="M348.204 22.164c-7.192 4.599-22.834 4.518-31.227 4.094.224 3.29.65 5.998.65 5.998s23.701 13.978 30.669 11.851c4.45-1.356 9.925-17.49 7.362-29.825-1.437 2.659-3.743 5.51-7.454 7.882" fill="#09333E"/><path d="M344.261 31.657l10.12 30.314c.037 4.396-23.626 16.574-30.56 11.005-2.029-1.632-1.46-5.844.456-10.41l11.396-24.862 8.588-6.047z" fill="#FFC9A7"/><path d="M325.76 59.328l6.101-13.305 10.865 2.856s-8.72 8.095-16.966 10.449" fill="#09333E"/><path d="M337.238 19.597l8.647 16.142c2.426 5.541.017 12.02-5.455 14.596-4.372 2.056-7.348 2.591-13.352 2.924-4.999.272-8.345-3.983-9.482-10.403-1.477-8.33-.47-16.42.31-20.72 1.783-9.803 12.926-12.648 19.332-2.54" fill="#FFC9A7"/><path d="M328.535 35.542s-4.084 1.138-9.914.598c0 0 .23 3.38 2.811 3.963 2.857.649 5.863.003 7.103-4.56" fill="#FFF"/><path d="M323.434 48.452c5.283-2.072 13.957 3.143 20.258-5.398 1.404-1.91 1.887-5.486 2.004-7.666l.189.351c2.425 5.542.016 12.021-5.456 14.597-4.372 2.056-7.348 2.59-13.349 2.92-2.55.14-4.664-.9-6.279-2.799-.319-.375 1.018-1.373 2.633-2.005" fill="#FFAA74"/><path d="M316.84 9.333c-2.565 2.627-.993 8.92 2.334 10.468 3.738 1.738 11.232 2.862 13.809 3.718 3.75 1.254 2.873 5.95 5.48 6.055 2.605.103 2.964-3.653 3.172-5.741.208-2.086 1.875-11.892-6.362-15.543-5.294-2.345-12.731-4.798-18.432 1.043" fill="#09333E"/><path d="M339.242 28.621c.044-1.135-.086-2.259-.283-3.377-.376-2.127-.44-5.37 2.984-4.375 4.98 1.446 6.355 12.872 1.259 14.661-3.784 1.327-4.065-4.053-3.96-6.909" fill="#FFC9A7"/><path d="M301.423 359.158c-7.47 21.614.786 72.323-14.937 83.939-15.726 11.619 10.551 29.714-8.091 53.703-6.633 8.541-15.586 15.177-24.366 20.195 6.498 44.116 16.145 81.964 19.737 107.936 1.075 7.787 15.207 5.923 22.877 7.614 15.013 3.31 17.29.21 23.803-7.614 12.199-14.645-10.26-183.345-10.26-183.345l18.551-112.983s-19.844 8.941-27.314 30.555M268.704 227.991c16.474 5.47 51.677 14.462 70.995-.583 21.075-16.412-47-27.026-72.658-30.366.626 10.84 1.182 21.3 1.663 30.95M163.862 25.117s-1.907-9.355 6.076-13.975c7.983-4.62 20.774 5.823 25.71 15.018 7.838 14.607 7.71 25.048 4.54 37.296-3.17 12.248-32.718 5.726-47.604-4.515-14.886-10.238-1.523-31.141 11.278-33.824" fill="#09333E"/><path d="M195.647 26.16c-2.374-4.423-6.573-9.119-11.172-12.307 2.83 5.85 7.561 16.836 5.892 21.846-2.33 7.006-24.824 5.069-28.996-.595a4360.354 4360.354 0 0 0-4.837-6.552c-9.604 6.993-15.934 22.143-3.949 30.39 14.884 10.238 44.434 16.763 47.605 4.515 3.167-12.249 3.294-22.69-4.543-37.297" fill="#09333E"/><path d="M211.814 190.337c8.944 1.651 19.571-7.898 23.56-21.103 5.045-16.715-6.514-61.147-21.265-71.166-14.756-10.02-20.27 58.861-16.4 74.163 2.76 10.91 5.935 16.596 14.105 18.106M127.883 75.197s-58.66 39.012-56.656 65.522c1.998 26.51 52.235.5 71.232-23.008 18.999-23.508-14.576-42.514-14.576-42.514" fill="#0D4351"/><path d="M138.636 57.544s30.382 7.22 34.082 19.89c3.697 12.667-14.803 13.153-20.45 7.322-5.647-5.833-13.632-27.212-13.632-27.212" fill="#D95F76"/><path d="M160.774 337.67s20.111 110.893 25.029 138.167c4.915 27.277 46.924 159.183 46.924 159.183h26.366s6.276-97.03-3.109-156.054c-1.914-12.054-16.357-35.794-18.342-48.737-7.735-50.45-4.467-103.737-4.467-103.737l-72.401 11.179z" fill="#FFC9A7"/><path d="M260.373 607.73c1.164-33.114 1.871-89.392-4.389-128.763-1.915-12.054-16.358-35.794-18.343-48.737-7.734-50.45-4.466-103.74-4.466-103.74l-30.126 4.653c-2.493 7.031-4.218 13.073-4.783 17.472-3.527 27.51 19.267 56.127 22.842 99.5 3.573 43.37 17.876 93.453 22.661 126.542.94 6.517 7.667 29.617 16.604 33.073" fill="#FFAA74"/><path d="M168.588 638.566c3.843 5.658 19.32.286 19.32.286 1.467-26.485-13.978-135.48-41.503-180.272-10.508-17.107-3.049-78.562-1.42-120.646-33.904-2.713-59.604-10.211-76.158-16.377-6.139 86.43 24.195 205.671 99.761 317.009" fill="#FFC9A7"/><path d="M146.405 458.58c-10.51-17.107-3.049-78.56-1.42-120.644a305.377 305.377 0 0 1-31.906-4.24 47.354 47.354 0 0 0-2.42 6.21c-10.367 33.089 4.233 64.984 1.848 84.657-2.385 19.674 7.448 38.756 12.812 50.677 4.03 8.957 1.107 47.859-9.42 69.564 14.203 31.282 31.692 62.825 52.69 93.76 3.842 5.659 19.32.29 19.32.29 1.466-26.488-13.981-135.483-41.504-180.275" fill="#FFC9A7"/><path d="M243.768 336.502c-7.016-24.03-4.207-40.036-4.337-51.596-.435-37.707-22.153-60.841-35-76.48-7.257-8.834-14.379-15.816-19.22-22.828-34.998-.094-70.976-9.276-83.893-12.92a323.787 323.787 0 0 1-5.66 19.632c-16.51 47.875-30.523 90.808-27.264 136.702 16.555 6.166 45.754 9.33 79.658 12.04 1.801-46.672.122-60.655 4.216-60.169 2.92.346-2.404 12 1.731 60.95 27.949 8.803 61.299 11.04 89.77-5.331" fill="#FF9791"/><path d="M239.43 284.907c-.433-37.71-22.151-60.844-35-76.484-7.255-8.83-14.376-15.815-19.218-22.824-7.63-.021-15.308-.475-22.783-1.208-.084 12.327 1.588 23.657 6.463 31.152 16.911 25.991 35.97 42.982 41.19 64.892 4.242 17.826-11.44 41.274-11.816 68.178 15.53-.332 31.136-3.853 45.5-12.11-7.013-24.03-4.204-40.036-4.336-51.596" fill="#D95F76"/><path d="M185.211 185.598c-2.744-3.975-3.262-10.29-3.262-14.713 0-28.025 43.342-38.628 17.232-70.21-11.25-13.61-26.11-27.7-57.836-27.693-6.147.003-8.95 5.467-14.843 11.511-20.25 20.77-6.236 44.797-25.184 88.184-21.84 45.294 44.094 55.692 83.893 12.921" fill="#0D4351"/><path d="M181.949 59.329l-3.905 26.502c-.986 4.353-16.277 12.975-21.835 5.863-1.629-2.083 2.409-7.433 5.363-11.5l10.495-21.46 9.882.595z" fill="#FFC9A7"/><path d="M165.835 71.479c10.043-.178 13.767-8.12 13.767-8.12l-9.03-1.561-4.737 9.681z" fill="#066364"/><path d="M185.253 43.371l-.796 10.506c-.63 8.327-7.635 15.088-15.972 14.626-7.697-.424-13.827-6.36-12.725-15.956.977-8.527 8.553-14.304 11.567-17.557 6.87-7.415 17.959-3.767 17.926 8.381" fill="#FFC9A7"/><path d="M182.68 53.041c.523-.762.93-1.594 1.285-2.448.675-1.627 2.05-3.888 3.97-1.7 2.792 3.18-1.272 11.646-5.561 10.638-3.187-.745-1.02-4.571.305-6.49M162.132 44.918c.08-.922.3-1.822.572-2.705.516-1.686.897-4.304-1.977-3.845-4.175.667-6.443 9.781-2.498 11.743 2.93 1.46 3.7-2.87 3.903-5.193" fill="#FFC9A7"/><path d="M172.103 55.32s-4.25-.644-9.425-3.573c0 0-.264 4.461 1.38 6.585 1.642 2.127 5.002.697 8.045-3.013" fill="#FFF"/><path d="M168.364 64.996c-3.06-.622-8.172-3.094-9.96-5.467-1.577-2.104-2.4-6.476-2.568-7.444-.022.157-.057.306-.076.465-1.102 9.592 5.029 15.529 12.725 15.953 5.137.284 9.763-2.178 12.71-6.058-5.045 2.918-10.08 3.11-12.831 2.55" fill="#FFAA74"/><path d="M131.873 304.432c-4.28 9.322-15.228 4.386-24.243 32.674 12.193 1.534 25.87 2.783 40.42 3.945 1.448-37.467.651-53.855 2.401-58.616-4.194 3.667-14.578 13.283-18.578 21.997M232.878 98.382s-23.825-18.615-35.87-18.423c-12.044.192-4.601 18.485 4.73 22.876 9.327 4.39 31.14-4.453 31.14-4.453" fill="#D95F76"/><path d="M68.965 258.853c9.169-21.695 3.64-46.086 11.07-68.646 5.255-15.96 23.244-36.615 33.555-47.064 10.233 4.12 18.835 13.589 28.835 16.037a372.672 372.672 0 0 0 18.065 3.937c1.536 30.057-1.923 62.854-6.35 87.78-5.557 31.304-14.834 56.94-23.852 63.074-11.234 7.642-26.73-4.507-21.167-26.634 5.658-22.505 1.577-62.103 1.537-61.944-6.23 23.754-.778 88.478-49.668 64.73-6.1-2.961 2.7-18.782 7.975-31.27" fill="#098485"/><path d="M61.968 290.58c47.831 22.4 42.5-41.597 48.69-65.186 0 0-4.856-9.852-15.356-14.264-6.268-2.635-5.471 25.71-6.198 35.1-.705 9.064-10.313 40.222-29.685 36.112-.257 1.092-.41 2.094-.462 3.013a55.743 55.743 0 0 0 3.011 5.225" fill="#066364"/><path d="M91.206 291.018c-1.831 6.004-24.363 8.334-35.028-2.364-13.24-13.286-40.612-44.502-41.195-63.263-.07-2.318 1.555-6.609 6.368-7.422 4.548-.768 10.462 4.766 16.471 8.322 48.093 28.434 55.847 56.638 53.384 64.727" fill="#098485"/><path d="M14.676 218.046c1.407-.594 3.43-1.872 4.393-2.504.276 1.475 2.982 3.128 4.216 4.469 1.556 1.683-1.264 6.436-4.488 6.204-3.932-.279-4.14-3.953-7.948-1.568 1.75-3.02 2.533-6.055 3.827-6.6" fill="#FFC9A7"/><path d="M1.526 229.4l11.429-22.74s2.676.519 4.626 4.032c.986 1.77 1.21 3.353 1.488 4.85-.964.632-2.82 2.294-4.019 3.24-1.736 1.367-2.45 2.845-4.202 5.866-.121.078-.235.14-.364.23C3.92 229.4 1.526 229.4 1.526 229.4" fill="#066364"/><g transform="translate(0 205.847)"><mask id="f" fill="#fff"><use xlink:href="#e"/></mask><path d="M10.485.814c3.294-.878 4.958 1.421 2.668 5.042C13.134 5.89 4.55 24.468.822 23.587c-3.73-.878 6.238-21.86 9.663-22.773" fill="#FF9791" mask="url(#f)"/></g><path d="M138.153 83.077c-6.554 8.469-13.757 15.694-20.74 18.523-11.754 4.761-27.053 12.346-38.566 18.271-4.985 7.196-8.11 14.391-7.624 20.85 2.001 26.506 52.241.499 71.237-23.011 11.56-14.302 3.654-26.929-4.307-34.633M218.028 101.6c-1.367 7.522-2.488 15.493-2.428 21.157.143 14.145 5.482 21.3 5.158 29.125-.243 5.917-8.52 22.443-19.917 29.666 2.357 4.953 5.568 7.79 10.972 8.79 8.945 1.65 19.572-7.899 23.56-21.104 4.59-15.201-4.555-53.316-17.345-67.634" fill="#09333E"/><path d="M175.582 84.803s-12.517-9.606-26.72-22.44c-14.384-13.003-23.587 2.92-20.684 16.204 1.726 7.89 9.936 24.826 9.936 24.826l37.468-18.59z" fill="#FF9791"/><path d="M123.458 300.478c-.206 6.12-.813 11.352-1.313 15.732 2.733.221 5.55-.476 8.143-2.238 9.017-6.133 18.296-31.77 23.852-63.073 4.426-24.93 7.886-57.724 6.349-87.782-4.607-.886-10.96-2.2-18.065-3.937-5.401-1.324-10.392-4.693-15.453-8.16-3.138-.867-5.077-1.345-5.077-1.345s20.779 39.776 22.121 56.986c1.34 17.212-16.536 28.39-11.06 42.7 5.472 14.307 8.297 21.908 6.326 30.18-1.969 8.273-15.075-1.498-15.823 20.937" fill="#066364"/><path d="M201.948 61.032s5.795-1.072 8.085 3.386c2.293 4.461 1.696 13.562 5.27 15.642 3.578 2.083-1.192 6.282-6.628 3.55-5.436-2.734-10.354-14.73-10.054-16.82.297-2.086 3.327-5.758 3.327-5.758" fill="#09333E"/><path d="M200.574 59.782s12.868 9.478-2.774 21.84c-7.162 5.658-10.06-16.82-10.06-16.82l12.834-5.02z" fill="#09333E"/><path d="M179.633 76.752l-12.269 14.745c-2.01 2.435-1.086 13.635 5.299 13.673 1.866.01 3.114-4.567 4.11-7.98l7.467-15.16-4.607-5.278z" fill="#FFC9A7"/><path d="M179.807 91.034c-2.4-3.574-1.717-10.973-1.717-10.973l5.085 4.132-3.368 6.841z" fill="#066364"/><path d="M187.38 67.215l-5.535 4.99c-4.385 3.956-5.136 10.803-1.274 15.272 3.565 4.127 9.538 4.997 14.43.227 4.35-4.236 4.304-10.978 4.82-14.072 1.18-7.055-5.658-11.689-12.442-6.417" fill="#FFC9A7"/><path d="M190.52 79.874s1.856 2.102 5.129 3.734c0 0-1.186 2.197-2.663 1.57-1.626-.689-3.106-1.997-2.466-5.304" fill="#FFF"/><path d="M182.587 86.029c1.67 1.443 5.264 3.237 7.365 3.21 1.86-.022 4.661-1.454 5.277-1.778-.079.081-.146.165-.227.243-4.894 4.77-10.867 3.9-14.432-.227-2.38-2.753-3-6.409-2.107-9.738.551 4.088 2.62 6.99 4.124 8.29" fill="#FFAA74"/><path d="M198.031 69.593c-2.314-.175-4.642-.056-6.83.714-3.238 1.14-9.357 3.675-12.614 7-1.98 2.02-2.177-1.39-2.315-5.147-.302-8.29 5.936-22.41 14.973-19.379 10.51 3.524 14.056 12.492 10.46 15.316-1.619 1.272-2.831 1.561-3.674 1.496" fill="#09333E"/><path d="M183.083 72.84c.197-.625.488-1.211.815-1.779.616-1.08 1.286-2.831-.767-2.958-2.99-.19-5.965 5.75-3.548 7.717 1.796 1.461 2.997-1.406 3.5-2.98" fill="#FFC9A7"/><path d="M188.97 54.197s-1.726-4.267-5.796-4.332c-4.07-.064-8.764 3.35-9.21 7.53-.448 4.178-12.998 10.555-8.36 13.368 4.636 2.81 16.876-7.55 18.912-11.797 2.036-4.248 4.453-4.77 4.453-4.77" fill="#09333E"/><path d="M178.043 85.83s25.132 4.71 45.951 8.73c20.822 4.023 16.396 26.331-15.245 29.19-31.643 2.859-43.883-.843-48.047-10.19-4.167-9.343 1.807-23.1 17.34-27.73" fill="#FF9791"/><path d="M184.955 90.102s-13.406-9.441-25.272-11.13c-11.87-1.689-31.087 25.288-38.536 42.579-7.448 17.29-33.814 38.304-28.005 50.528 5.809 12.221 56.303 28.169 70.087 14.904 13.784-13.267 21.923-68.264 21.726-77.953-.197-9.687 0-18.928 0-18.928" fill="#FF9791"/><path d="M164.577 147.858c-3.133 12.521-.546 12.656-6.485 17.439-5.938 4.782-35.308 9.39-37.987 14.086-.875 1.529-2.182 4.204-3.548 7.109 17.086 5.909 38.432 8.42 46.672.491 10.165-9.784 17.254-42.246 20.198-62.511-.035.027-15.723 10.88-18.85 23.386" fill="#D95F76"/><path d="M77.307 133.55s4.602-12.573 19.164-20.01c14.556-7.438 52.155-13.669 61.485-10.502 9.33 3.17-34.992 42.514-50.99 46.683-15.994 4.17-37.658 2.835-29.659-16.172" fill="#FFC9A7"/><path d="M42.193 331.858s-7.002.597-9.533 1.937c-2.533 1.34-1.936 16.245 1.488 22.505 3.427 6.26 8.197 8.644 9.982 4.175 1.788-4.472-2.68-15.958 0-17.593 2.681-1.635 5.066-5.807 4.172-7.45-.894-1.637-1.974-4.09-6.109-3.574" fill="#098485"/><path d="M215.213 164.318c-15.566-16.604-79.25-20.984-87.422-15.01-8.172 5.975 42.651 41.215 72.167 42.679 26.08 1.294 21.845-20.638 15.255-27.669" fill="#FFC9A7"/><path d="M229.152 108.434c-8.343 1.192-10.241 1.043-17.338 1.937-7.095.895-17.968 3.875-17.968 3.875s-9.898 6.869-10.413 10.225c6.614.445 14.91.221 25.315-.722 19.923-1.8 29.046-11.31 27.882-19.111-1.44 1.64-3.76 3.266-7.478 3.796" fill="#D95F76"/><path d="M139.282 301.766s-8.045 18.15-23.04 25.061c-14.993 6.91-53.137 20.317-64.558 19.014-10.17-1.156-20.228-13.499-5.02-21.437 11.888-6.207 48.576-36.054 68.312-36.962 13.071-.602 24.306 14.324 24.306 14.324" fill="#098485"/><path d="M131.744 294.154c-3.24 4.14-8.777 10.833-15.44 17.358-10.723 10.506-16.532 10.06-30.835 14.98-13.063 4.491-33.423 13.862-46.543 8.366.465 5.455 6.584 10.284 12.758 10.984 11.421 1.302 49.565-12.105 64.559-19.014 14.994-6.912 23.039-25.062 23.039-25.062s-2.936-3.885-7.538-7.612" fill="#066364"/><path d="M32.66 333.794c-2.531 1.34-1.937 16.248 1.49 22.506 3.425 6.26 8.194 8.644 9.979 4.174 1.542-3.858-1.561-12.923-.724-16.393-1.05-3.585-1.296-9.249-1.35-12.213-.945.086-7.062.689-9.396 1.926" fill="#066364"/><path d="M44.13 342.882c2.681-1.635 5.066-5.806 4.172-7.45-.894-1.637-1.974-4.09-6.11-3.574 0 0-.053.005-.137.01.054 2.965.3 8.628 1.348 12.211.135-.551.359-.973.726-1.197" fill="#FFC9A7"/><path d="M41.531 362.754c.705-.813-2.168-25.977-5.593-28.363-.961-.667-1.906-.87-2.776-.83-.18.076-.35.155-.502.233-2.533 1.34-1.936 16.247 1.49 22.505 2.293 4.191 5.183 6.631 7.381 6.455" fill="#FF9791"/><path d="M75.19 284.907c-10.504-1.343-20.78-8.944-28.825-18.109-8.045-9.168-18.772-30.406-25.026-35.548-2.38-1.956-4.543-4.334-6.315-6.533-.021.235-.045.47-.04.675.583 18.76 27.954 49.977 41.195 63.263 10.665 10.697 33.197 8.368 35.028 2.364.416-1.372.529-3.337.213-5.769-4.964 1.66-10.408.4-16.23-.343" fill="#066364"/><path d="M203.066 181.617c-14.016-.672-25.086-8.943-38.49-16.993-13.405-8.046-15.199-6.482-27.713-8.833-6.787-1.275-9.126-3.499-9.855-5.269-1.985 8.444 45.012 40.08 72.95 41.466 15.866.786 20.503-7.023 20.225-14.845-4.562 2.51-10.568 4.788-17.117 4.474" fill="#FFAA74"/><path d="M141.054 150.238s-7.673-5.74-15.94-6.634c-3.934-.424-10.032 2.035-10.137 3.875-.146 2.535 25.48 15.577 26.077 2.759" fill="#FFC9A7"/><path d="M112.507 131.985c-8.715 3.129-24.805 8.943-29.944 7.376-1.89-.575-4.054-2.061-6.033-3.71-5.553 16.99 15.053 18.077 30.436 14.07 12.628-3.288 42.891-28.49 50.494-40.523-3.962.56-8.94 1.76-13.223 4.343-8.715 5.252-23.015 15.312-31.73 18.444" fill="#FFAA74"/><path d="M146.026 104.797s7.672-5.74 15.939-6.634c3.935-.424 10.033 2.032 10.138 3.875.146 2.534-7.527 2.386-11.256 6.633-1.918 2.186-14.225 8.944-14.821-3.874" fill="#FFC9A7"/><path d="M382.405 88.348c-9.155 12.49-21.251 72.666-43.942 73.734-3.719.175-102.797-19.301-102.797-19.301s-12.99 23.224-.494 44.889c15.817 27.418 86.971 53.46 129.347 32.984 42.373-20.476 51.992-84.69 52.884-102.707 2.182-44.07-24.776-43.541-34.998-29.599" fill="#FF9791"/><path d="M405.48 81.887c2.176 10.74 5.274 30.809 1.693 45.04-5.113 20.306-17.69 60.329-39.314 63.596-21.62 3.267-25.945 16.004-44.28 13.645-18.337-2.361-63.432-29.893-75.893-45.94-4.496-5.79-9.824-8.22-14.802-8.968-2.96 8.414-6.157 23.764 2.288 38.41 15.817 27.417 86.971 53.46 129.347 32.983 42.373-20.476 51.992-84.69 52.884-102.707 1.047-21.146-4.621-32.006-11.924-36.059" fill="#D95F76"/><path d="M232.137 157.806c-5.766-.822-16.303-8.623-15.739-14.556 2.69-28.226 9.792-2.994 11.57-3.362 1.987-.416-.4-3.855.734-8.092.51-1.902 3.335-2.292 3.3-1.397-.31 8.6 14.354 7.666 10.595 22.013-.854 3.256-7.13 5.867-10.46 5.394" fill="#FFC9A7"/><g><g transform="translate(215.478 606.367)"><mask id="h" fill="#fff"><use xlink:href="#g"/></mask><path d="M23.305 2.537C15.23 3.594 6.746-3.673 9.665 3.685c2.803 7.063 9.002 29.576 8.6 30.385-.323.654-8.267 3.294-14.498 6.51C1 42.998-1.692 46.09 1.361 46.988c5.226 1.545 35.746 1.097 38.53-3.832a13.15 13.15 0 0 1 3.467-3.994c-1.836-7.045 1.63-8.322 0-18.904-.696-4.522.39-20.395-4.273-19.784l-15.78 2.063z" fill="#FFC9A7" mask="url(#h)"/></g><g transform="translate(198 644.822)"><mask id="j" fill="#fff"><use xlink:href="#i"/></mask><path d="M57.37 4.701c-2.787 4.93-33.304 5.377-38.533 3.833-3.05-.899-.361-3.99 2.41-6.409C11.894 6.953.356 13.167.003 16.29c-.588 5.202 54.94 4.196 64.084-.975 4.78-2.706 1.314-8.308-3.253-14.607A13.142 13.142 0 0 0 57.37 4.7" fill="#066364" mask="url(#j)"/></g></g><g><g transform="translate(148.478 604.367)"><mask id="l" fill="#fff"><use xlink:href="#k"/></mask><path d="M23.305 2.537C15.23 3.594 3.46 5.243 6.38 12.601c2.802 7.062 12.287 20.66 11.885 21.469-.323.654-8.267 3.294-14.498 6.51C1 42.998-1.692 46.09 1.361 46.988c5.226 1.545 35.746 1.097 38.53-3.832a13.15 13.15 0 0 1 3.467-3.994c-3.256-4.495-9.564-12.634-6.95-24.53.978-4.458.978-8.947 0-17.894l-13.103 5.8z" fill="#FFC9A7" mask="url(#l)"/></g><g transform="translate(131 642.822)"><mask id="n" fill="#fff"><use xlink:href="#m"/></mask><path d="M57.37 4.701c-2.787 4.93-33.304 5.377-38.533 3.833-3.05-.899-.361-3.99 2.41-6.409C11.894 6.953.356 13.167.003 16.29c-.588 5.202 54.94 4.196 64.084-.975 4.78-2.706 1.314-8.308-3.253-14.607A13.142 13.142 0 0 0 57.37 4.7" fill="#066364" mask="url(#n)"/></g></g></g></svg>