<svg width="363" height="337" xmlns="http://www.w3.org/2000/svg" xmlns:xlink="http://www.w3.org/1999/xlink"><defs><path id="a" d="M.136.08h17.915v28.102H.136z"/><path id="c" d="M.094.401h11.535v16.452H.094z"/><path id="e" d="M.323.24h29.445v19.913H.323z"/><path id="g" d="M0 .227h19.966V29.19H0z"/></defs><g fill="none" fill-rule="evenodd"><path d="M236.038 321.728c-1.925-2.505-2.573-5.34-2.913-7.68l-8.85.445s.758 2.952-.611 5.358c-.597 1.05-2.457 1.902-5.017 3.117-4.036 2.297-9.01 5.25-9.115 6.651-.175 2.332 24.232 1.033 28.17-1.417 2.062-1.281.446-3.73-1.664-6.474" fill="#1E1240"/><g transform="translate(344.516 262.547)"><mask id="b" fill="#fff"><use xlink:href="#a"/></mask><path d="M11.303.848C8.24 1.667 5.34 1.19 3.021.614L.136 8.9s3.049.423 4.792 2.588c.76.945.866 2.974 1.048 5.782.648 4.571 1.557 10.251 2.83 10.877 2.123 1.042 10.01-21.835 9.185-26.376-.431-2.374-3.329-1.819-6.688-.923" fill="#1E1240" mask="url(#b)"/></g><path d="M232.617 50.073c-11.818-17.068-46.32 19.95-46.32 19.95s6.346-42.257-2.918-56.804c0 0-10.256-10.894-17.723 4.692-4.66 9.723-21.29 66.655-7.051 81.79 22.464 23.881 93.111-22.046 74.012-49.628M288.226 219.86c-.772-19.824 1.378-35.059-3.766-57.494-2.104-9.18-10.534-34.338-11.694-41.036a28.79 28.79 0 0 1-.303-2.3c-26.472 4.854-53.112-.122-59.48-1.472a36.263 36.263 0 0 1-5.147 14.569c-10.562 17.041-23.186 61.947-21.712 89.886 3.296 62.504 23.394 80.33 32.02 91.297a10.708 10.708 0 0 0 8.915 4.085c5.291-.246 13.068.478 19.312-1.032 17.045-4.121-23.759-84.51-27.12-89.853a9.756 9.756 0 0 1-.755-8.934l19.273-54.111c1.377 4.302 8.991 37.265 19.574 67.814 11.757 33.937 42.952 34.388 78.955 58.828 4.084 2.772 18.14-22.522 15.799-28.128-9.722-23.274-63.008-19.966-63.87-42.12" fill="#1E1240"/><path d="M284.331 153.239c-11.593-32.078 5.814-60.053-.69-81.003-5.142-16.558-14.303-28.29-51.247-27.405-12.958.31-23.9 9.51-24.03 22.453-.125 12.596 4.399 51.56-2.418 67.971-14.23 34.256 80.603 24.12 78.385 17.984" fill="#1E1240"/><path d="M253.347 47.473s-3.177-1.712-5.776 1.544c-16.218 20.321-8.99 62.383-8.99 62.383s19.408-49.634 20.653-56.255c1.245-6.622-5.887-7.672-5.887-7.672" fill="#FFEBF1"/><path d="M263.495 79.148c6.35 10.096 31.47 28.083 44.386 33.148 5.145 2.018-5.716 49.5-1.184 62.061 0 0 19.142 8.335 29.816-5.194 6.658-8.438 10.393-49.611-5.112-75.331-7.805-12.947-45.658-32.899-57.813-38.878-13.915-6.846-14.495 17.198-10.093 24.194M246.34 31.872s-1.605-10.35 1.596-13.055c6.894-5.828 13.109 2.568 14.361 4.785 2.4 4.25 2.309 8.828-2.19 13.553-3.097 3.252-13.018.947-13.767-5.283" fill="#1E1240"/><path d="M259.085 34.708l1.976 13.876c-.34 1.9-11.648 5.265-14.227 2.312-.754-.865-.166-2.637 1.038-4.452l6.978-9.812 4.235-1.924z" fill="#FFC9A7"/><path d="M253.757 38.626c2.138.02 5.063.004 5.063.004s-.793 3.424-4.138 5.465a8.377 8.377 0 0 1-5.384 1.19l4.459-6.659z" fill="#1E1240"/><path d="M257.144 28.93l1.64 8.295c.326 2.777-1.59 5.317-4.328 5.72-2.187.321-3.56.158-6.233-.502-2.226-.55-3.125-2.88-2.77-5.87.46-3.88 1.976-7.322 2.89-9.116 2.081-4.094 7.34-3.855 8.8 1.473" fill="#FFC9A7"/><path d="M250.979 34.007s-1.89.245-4.445-.419c0 0-.273 1.775.68 2.524.956.748 2.91-.053 3.765-2.105" fill="#FFF"/><path d="M247.676 39.33c2.634-.208 4.123 3.957 9.14.787.935-.592 1.585-2.206 1.932-3.17l.035.184c.332 2.821-1.618 5.402-4.406 5.812-2.227.326-3.626.16-6.345-.51-1.383-.34-2.26-1.357-2.654-2.786.449.13 1.493-.252 2.298-.316" fill="#FFAA74"/><path d="M254.9 25.247s1.588 3.27 1.215 4.88c-.374 1.611-.664 2.271-.194 2.775.469.504 2.138-.551 2.3-2.247.16-1.696-.023-6.004-3.322-5.408" fill="#1E1240"/><path d="M256.483 32.623c.178-.52.275-1.06.34-1.608.124-1.038.547-2.552 1.981-1.608 2.086 1.372 1.125 6.867-1.464 6.978-1.925.083-1.304-2.451-.857-3.762" fill="#FFC9A7"/><path d="M249.298 52.04s4.895-1.345 7.115-3.055c1.46-1.123 4.362-5.32 4.362-5.32s3.223 2.897 3.082 6.63l-12.271 7.364s-.78-2.958-1.22-3.86c-.239-.493-1.068-1.758-1.068-1.758M249.15 52.2l-.253-1.823c-.124-.9.236-5.176.401-5.593 0 0-3.083 2.415-4.27 3.376-1.186.962-1.89 1.84-1.89 1.84l1.896 5.98s2.877-4.08 4.115-3.78" fill="#FFF"/><g transform="translate(172.564)"><mask id="d" fill="#fff"><use xlink:href="#c"/></mask><path d="M.094 13.914S.513 5.907 1.912 3.552C3.313 1.197 9.6-1.07 10.991 1.619c1.391 2.69-1.02 5.263-.696 6 .321.736 1.933.936 1.095 3.04-.838 2.106-5.61 10.607-11.296 3.255" fill="#FFC9A7" mask="url(#d)"/></g><path d="M316.484 168.923s1.152 8.095.229 10.728c-.925 2.63-6.707 6.13-8.61 3.71-1.903-2.419-.02-5.468-.485-6.14-.463-.674-2.099-.559-1.681-2.83.418-2.272 3.477-11.714 10.547-5.468" fill="#FFC9A7"/><path d="M251.047 53.312l5.611-.891c.683-.108 1.184.53 1.005 1.276l-1.144 4.75c-.182.754-.994 1.139-1.514.719l-3.762-3.036s-.906.307-1.208.244c-.344-.068-1.143-.787-1.143-.787l-4.562 1.21c-.731.33-1.392-.348-1.137-1.168l1.889-4.914c.238-.767 1.07-1.136 1.617-.718l4.348 3.315z" fill="#1E1240"/><path d="M88.839 58.438c10.947.1 32.817 32.295 35.753 31.705 8.849-1.777-.837-37.106 12.059-35.807 5.027.505 20.881 57.269-4.14 61.149-27.366 4.243-44.871-26.878-51.21-40.666-2.268-4.935-1.153-10.87 2.973-14.415 1.36-1.17 2.905-1.981 4.565-1.966" fill="#FFC9A7"/><path d="M139.985 59.339c-2.098 1.252-3.91 3.823-4.002 6.636-.16 4.922 6.463 15.02 3.761 16.679-2.704 1.657-3.39 5.348-1.498 12.049 1.893 6.7-5.924 10.022-14.491 8.973-8.566-1.048-15.08-6.365-22.829-16.798-4.648-6.258-14.021-12.24-20.78-16.026.13 1.397.486 2.787 1.094 4.106 6.345 13.742 23.867 44.757 51.258 40.528 20.682-3.192 13.463-42.325 7.487-56.147" fill="#FFAA74"/><path d="M82.775 29.051s2.072-3.46 6.155-1.663c5.617 2.473 1.273 10.038 3.353 11.724 2.249 1.824 4.923 1.142 6.147 5.715 2.212 8.277-14.494 14.269-25.373 6.252-10.879-8.017-1.716-15.24.13-16.1 1.847-.857 2.6-7.568 9.588-5.928" fill="#1E1240"/><path d="M112.031 183.211c-7.515-38.64-13.76-49.516-18.158-56.364-.538-.838.264-2.767-.084-3.69-11.446 3.542-27.082 25.038-27.082 25.038 2.331.148 11.926 47.863 13.478 66.82 1.824 22.28-35.784-2.704-60.53 6.022-.02.552.693 10.296 3.205 11.727 105.939 60.318 90.965-40.326 89.171-49.553" fill="#FFC9A7"/><path d="M112.03 183.443a526.422 526.422 0 0 0-1.438-7.106c-2.078 3.379-3.876 7.736-3.773 12.626.242 11.344-1.089 32.148-6.735 36.662-5.645 4.517.516 12.888-13.178 19.688-10.614 5.27-25.096-3.54-34.425-7.301-9.331-3.761-22.594-6.43-25.953-5.31-.603.2-1.008.735-1.272 1.47 103.316 57.25 88.555-41.603 86.775-50.729" fill="#FFAA74"/><path d="M136.452 58.317s2.49-4.625 2.505-6.413c.017-1.788-2.745-5.166-4.444-4.126-1.697 1.039-1.218 3.29-1.65 3.593-.431.303-1.406-.125-1.65 1.335-.246 1.46-.46 7.821 5.239 5.611M92.388 96.617c1.463-5.554 7.082-7.564 8.728-13.27 2.98-10.331-2.185-13.539-7.54-21.426-5.441-8.016-25.644-6.7-31.145-3.155-5.783 3.726-2.09 7.635-2.432 19.857-4.642 18.572-20.324 39.567-27.155 59.796-6.837 20.249 6.102 60.21 6.854 81.661.254 7.213-1.445 21.583-1.704 27.2-.84 18.152 9.119 72.195 9.119 72.195s9.013.414 9.548-.045c1.973-8.957 14.322-54.238 15.36-93.938 1.017-38.842-9.02-77.303-5.38-77.071 0 0 24.265-46.181 25.747-51.804" fill="#FFC9A7"/><path d="M49.98 318.658c2.033 1.641 10.43 11.487 13.212 11.613 1.5.068 2.71-.173 3.511-.409-1.835-1.288-3.945-4.447-5.906-7.908-1.32-2.33-2.194-5.45-2.43-10.145l-11.739 1.195s-.426 3.87-.648 4.642c1.088-.084 2.747 0 4 1.012" fill="#FFC9A7"/><g transform="translate(44.86 316.847)"><mask id="f" fill="#fff"><use xlink:href="#e"/></mask><path d="M29.222 16.019c-1.08-.918-2.982-1.965-6.313-2.955-.33-.097-.673-.285-1.026-.533-.8.236-2.01.478-3.508.409-2.78-.126-11.17-10.012-13.2-11.658C3.921.264 2.264.18 1.176.265.679 2.004-.043 5.12.54 7.023c.843 2.75 2.932 10.619 2.79 13.13l3.455-.19-.39-7.249s2.61-.423 4.074 1.035c.55.545 1.103 1.505 1.577 2.49.987 2.045 3.122 3.263 5.373 3.138l10.862-.596c1.4-.078 2.014-1.85.941-2.762" fill="#098485" mask="url(#f)"/></g><path d="M18.726 224.493c-1.69 1.963-11.709 9.979-11.92 12.73a10.604 10.604 0 0 0 .296 3.491c1.333-1.778 4.53-3.772 8.022-5.608 2.35-1.235 5.47-2.007 10.132-2.096l-.822-11.664s-3.825-.541-4.581-.785c.05 1.08-.084 2.721-1.127 3.932" fill="#FFC9A7"/><g transform="translate(.05 218.882)"><mask id="h" fill="#fff"><use xlink:href="#g"/></mask><path d="M3.323 28.682c.95-1.047 2.058-2.91 3.152-6.198.108-.324.306-.661.567-1.005a10.594 10.594 0 0 1-.3-3.507C6.955 15.21 17.102 7.157 18.814 5.186c1.057-1.217 1.193-2.865 1.142-3.95-1.723-.55-4.819-1.363-6.74-.84C10.44 1.15 2.507 2.988 0 2.77L.08 6.217l7.262-.168s.342 2.613-1.161 4.027c-.564.53-1.541 1.052-2.541 1.495-2.075.92-3.362 3.009-3.308 5.252L.59 27.66c.034 1.397 1.787 2.063 2.733 1.023" fill="#098485" mask="url(#h)"/></g><path d="M69.68 181.375c-2.804 2.152-8.34 7.115-9.027 13.212-.927 8.207 2.81 37.41 2.692 49.18-.117 11.769-4.317 11.618-4.977 27.4-.581 13.911-8.873 32.804.321 40.642 4.108-16.875 12.682-53.397 13.542-86.131.412-15.666-.98-31.268-2.55-44.303" fill="#FFAA74"/><path d="M98.43 44.76c-1.223-4.605-3.898-3.918-6.147-5.755-.932-.762-.575-2.712-.401-4.857-.164 1.142-.474 2.18-1.033 2.836-1.958 2.303-11.634 5.2-14.242 4.305-1.236-.425-3.476-2.615-5.329-5.074-2.929 2.627-6.785 8.483 1.78 14.838 10.878 8.071 27.584 2.04 25.372-6.293" fill="#1E1240"/><path d="M112.548 183.122c-7.486-38.589-14.516-49.482-17.634-56.985-7.464-17.965-2.527-23.13-1.045-28.756 1.463-5.56 5.551-8.302 7.196-14.011 2.979-10.34-2.183-13.55-7.534-21.445-5.437-8.022-25.625-6.705-31.123-3.157-5.778 3.73-2.088 7.642-2.43 19.875-4.638 18.587-20.31 39.6-27.134 59.845-4.889 14.498.333 39.086 3.978 59.768 6.767 2.134 19.36 5.234 34.684 4.931 2.285-.045 4.632-.168 7.03-.38 11.011-.97 23.081-3.848 35.216-10.038-.377-4.738-.932-8.249-1.204-9.647L-265.904 58.22" fill="#098485"/><path d="M114.313 192.566c-.38-4.736-.939-8.247-1.213-9.646-7.53-38.588-14.601-49.48-17.738-56.983-7.51-17.964-2.542-23.128-1.052-28.754 1.472-5.559 5.584-8.3 7.24-14.011 2.996-10.339-2.197-13.55-7.58-21.443-1.23-1.802-3.21-3.129-5.6-4.07a31.047 31.047 0 0 0 3.926 5.945c3.94 4.718 6.717 13.671 5.712 18.53-1.003 4.859-4.022 9.827-6.531 9.33-2.508-.495-18.68-1.133-21.428-5.03-2.748-3.897-3.398 4.356.636 7.678 4.034 3.32 11.922 7.571 12.418 14.624.495 7.054-8.245 19.035-.518 27.97 7.727 8.937 10.4 2.092 12.154 13.25 1.753 11.157-4.475 8.713-4.899 17.208-.423 8.495 1.367 11.053 5.318 20.574 1.63 3.931 2.015 8.059 1.906 11.551a95.126 95.126 0 0 0 17.249-6.723" fill="#066364"/><path d="M53.502 95.726s18.3 12.816 37.607 11.514c0 0-.145 2.6-.115 3.468.03.866.354 3.449.354 3.449s-23.299 1.428-40.888-12.305l3.042-6.126z" fill="#1E1240"/><path d="M88.832 68.465c-.555-2.47-1.524-8.303-3.612-11.53-3.782-.925-8.136-1.123-12.103-.83-.632.351-1.279.925-1.37 1.825-.187 1.82 13.879 14.681 15.419 18.381 1.539 3.702 2.423-4.482 1.666-7.846M66.748 69.085c-6.872 7.987-37.291 27.013-37.291 27.013s37.336 2.588 34.115 14.654c-1.256 4.704-55.283 12.74-55.12-11.666.18-26.692 50.842-42.31 56.336-40.761 2.6.734 5.484 6.663 1.96 10.76" fill="#FFC9A7"/><path d="M76.204 46.463l-.538 11.954c-.08 1.968 4.754 7.178 8.035 4.783.961-.702-.184-3.444-1.002-5.514L80.615 47.34l-4.411-.878z" fill="#FFC9A7"/><path d="M81.826 53.181c-4.348-1.225-5.04-5.038-5.04-5.038l4.11.367.93 4.671z" fill="#311E69"/><path d="M78.484 37.944l-1.734 4.23c-1.373 3.35.021 7.34 3.332 8.786 3.055 1.338 6.579.233 8.017-3.703 1.278-3.499-.527-7.217-1.06-9.066-1.214-4.215-6.209-4.963-8.555-.247" fill="#FFC9A7"/><path d="M81.826 46.037s2.167-.808 4.481-.68c0 0-.033 1.075-1.071 1.922-1.04.847-2.462-.24-3.41-1.242" fill="#FFF"/><path d="M80.88 49.544c1.36.371 3.923.411 5.122-.185 1.065-.529 2.282-2.128 2.546-2.485-.022.066-.04.135-.063.202-1.5 4.103-5.176 5.256-8.364 3.86-2.128-.93-3.494-2.866-3.896-5.032 1.443 2.205 3.435 3.306 4.656 3.64" fill="#FFAA74"/><path d="M77.1 41.942a6.215 6.215 0 0 1-.18-1.243c-.045-.8-.29-1.975-1.397-1.323-1.61.949-1.148 5.19.77 5.4 1.425.154 1.08-1.811.807-2.834" fill="#FFC9A7"/><path d="M66.756 68.86c1.326-1.547 1.74-3.352 1.603-5.043-1.438 1.832-4.185 4.437-8.57 5.235-6.986 1.27-9.992-.72-13.079 2.747-3.088 3.467-15.812 12.791-15.812 12.791s-12.902 6.035-8.734 10.88c4.168 4.845 10.376.825 16.296 5.447 5.92 4.621 17.165 5.212 19.03 4.76.723-.176 2.267-.691 3.89-1.257-7.784-6.902-31.776-8.571-31.776-8.571s30.306-19.01 37.152-26.99" fill="#FFAA74"/><path d="M60.12 103.597s6.122-2.742 5.49.23c-.258 1.213 5.968-2.073 4.106 2.904-.81 2.166-4.886 5.25-8.964 3.681a5.257 5.257 0 0 1-.176-.07c-2.831-1.186-3.06-5.12-.456-6.745" fill="#FFC9A7"/></g></svg>