<svg width="1440" height="1504" xmlns="http://www.w3.org/2000/svg" xmlns:xlink="http://www.w3.org/1999/xlink"><defs><path id="a" d="M0 0h2446v1626H0z"/><path id="c" d="M0 0h8798v1626H0z"/></defs><g fill="none" fill-rule="evenodd"><g transform="translate(-133 -477)"><mask id="b" fill="#fff"><use xlink:href="#a"/></mask><path d="M2212.31 620.63c59.692 343.246-10.545 799.994-1723.242 998.41-565.266 65.486-594.802-351.01-320.605-417.94 172.957-42.215 205.094 55.52 360.678 27.442 128.666-23.219 90.698-120.318 181.395-217.412 155.831-166.83 339.586 35.882 432.393-255.408 46.932-147.304 173.972-125.252 234.126-198.417 137.102-166.753 452.245-38.77 497.78 84.434C1931.784 795.827 1983.983 4.307 2121.615.052c117.201-3.62 17.01 184.611 158.193 211.081 112.807 21.151-19.58 121.43 86.478 158.312 253.083 88.005-179.67 103.422-153.975 251.184" fill="#49C5B6" mask="url(#b)"/></g><g transform="rotate(-172 1967.943 1291.15)"><mask id="d" fill="#fff"><use xlink:href="#c"/></mask><path d="M7957.445 620.63c214.704 343.246-37.932 799.994-6198.321 998.41-2033.2 65.486-2139.439-351.01-1153.181-417.94 622.108-42.215 737.7 55.52 1297.32 27.442 462.798-23.219 326.233-120.318 652.458-217.412 560.509-166.83 1221.455 35.882 1555.27-255.408 168.811-147.304 625.76-125.252 842.127-198.417 493.141-166.753 1626.677-38.77 1790.461 84.434C6948.419 795.827 7136.175 4.307 7631.219.052c421.563-3.62 61.188 184.611 569.006 211.081 405.756 21.151-70.426 121.43 311.054 158.312 910.31 88.005-646.254 103.422-553.834 251.184" fill="#49C5B6" mask="url(#d)"/></g></g></svg>