<?xml version="1.0" encoding="UTF-8"?>
<svg width="363px" height="337px" viewBox="0 0 363 337" version="1.1" xmlns="http://www.w3.org/2000/svg" xmlns:xlink="http://www.w3.org/1999/xlink">
    <!-- Generator: Sketch 54.1 (76490) - https://sketchapp.com -->
    <title>Group 97</title>
    <desc>Created with Sketch.</desc>
    <defs>
        <polygon id="path-1" points="0.135956604 0.079307304 18.0512171 0.079307304 18.0512171 28.1817837 0.135956604 28.1817837"></polygon>
        <polygon id="path-3" points="0.0937525527 0.4011795 11.6289601 0.4011795 11.6289601 16.8530771 0.0937525527 16.8530771"></polygon>
        <polygon id="path-5" points="0.323330128 0.239781688 29.7677164 0.239781688 29.7677164 20.1528239 0.323330128 20.1528239"></polygon>
        <polygon id="path-7" points="0 0.227345189 19.9657619 0.227345189 19.9657619 29.1895702 0 29.1895702"></polygon>
    </defs>
    <g id="Page-1" stroke="none" stroke-width="1" fill="none" fill-rule="evenodd">
        <g id="iPhone-XS-Copy" transform="translate(-323.000000, -1927.000000)">
            <g id="Group-97" transform="translate(57.000000, 1927.000000)">
                <path d="M502.038152,321.727584 C500.113376,319.222965 499.465237,316.38724 499.125145,314.048173 L490.275519,314.493032 C490.275519,314.493032 491.033231,317.444543 489.66356,319.850643 C489.067107,320.900836 487.207455,321.752976 484.646946,322.967706 C480.611326,325.265131 475.637093,328.218673 475.531654,329.619269 C475.356957,331.951226 499.763981,330.652196 503.702432,328.202422 C505.763658,326.920658 504.147962,324.472916 502.038152,321.727584" id="Fill-1" fill="#1E1240"></path>
                <g id="Group-5" transform="translate(610.516474, 262.546512)">
                    <mask id="mask-2" fill="white">
                        <use xlink:href="#path-1"></use>
                    </mask>
                    <g id="Clip-4"></g>
                    <path d="M11.3030871,0.848372116 C8.23892915,1.66683929 5.33906925,1.18905908 3.02144043,0.614085886 L0.135956604,8.90004298 C0.135956604,8.90004298 3.18471158,9.32257666 4.92832422,11.4884454 C5.68820252,12.4327519 5.79396937,14.4615275 5.97572404,17.269893 C6.62367432,21.8410322 7.53347456,27.5211944 8.80678415,28.1473218 C10.9293091,29.1888213 18.8166405,6.31164053 17.991043,1.77119386 C17.5597607,-0.603384042 14.6619545,-0.0478494444 11.3030871,0.848372116" id="Fill-3" fill="#1E1240" mask="url(#mask-2)"></path>
                </g>
                <path d="M498.616518,50.0727 C486.799326,33.0054606 452.297527,70.0225575 452.297527,70.0225575 C452.297527,70.0225575 458.643454,27.7661145 449.379244,13.2192362 C449.379244,13.2192362 439.123065,2.32477189 431.655513,17.9110804 C426.996139,27.6343847 410.365221,84.5663483 424.604712,99.701894 C447.069109,123.582033 517.716041,77.6546515 498.616518,50.0727" id="Fill-6" fill="#1E1240"></path>
                <path d="M554.22621,219.859379 C553.454135,200.035523 555.603812,184.801331 550.46042,162.366398 C548.355978,153.186045 539.925874,128.028117 538.76622,121.330494 C538.632572,120.560416 538.53285,119.793419 538.462942,119.029501 C511.991385,123.884072 485.351226,118.908343 478.982385,117.55814 C478.336762,122.68275 476.604479,127.657453 473.835909,132.126984 C463.273605,149.168292 450.650037,194.074094 452.124277,222.012516 C455.420242,284.517162 475.517818,302.343949 484.144282,313.309857 C486.284706,316.029772 489.598149,317.556579 493.058604,317.395376 C498.350037,317.148951 506.127322,317.872824 512.37074,316.363472 C529.416,312.242016 488.612238,231.852056 485.251504,226.50977 C483.565483,223.827846 483.282767,220.50111 484.495879,217.575841 L503.768949,163.465043 C505.145523,167.767211 512.760375,200.72962 523.343241,231.279119 C535.100153,265.215933 566.294624,265.666685 602.298368,290.1069 C606.381828,292.87918 620.438514,267.584692 618.096589,261.978526 C608.375239,238.704722 555.088753,242.012976 554.22621,219.859379" id="Fill-8" fill="#1E1240"></path>
                <path d="M550.330966,153.238819 C538.738307,121.161443 556.145279,93.186105 549.640401,72.2356463 C544.499183,55.6776615 535.33789,43.9462666 498.393676,44.8309191 C485.436328,45.1418816 474.494157,54.34042 474.364676,67.2838503 C474.239306,79.8803983 478.762919,118.843079 471.945642,135.255332 C457.715065,169.511498 552.548585,159.37494 550.330966,153.238819" id="Fill-10" fill="#1E1240"></path>
                <path d="M519.347345,47.4733753 C519.347345,47.4733753 516.169855,45.7605891 513.570842,49.0172376 C497.352837,69.3382742 504.581729,111.400332 504.581729,111.400332 C504.581729,111.400332 523.988587,61.7663871 525.234378,55.1445692 C526.479135,48.5227512 519.347345,47.4733753 519.347345,47.4733753" id="Fill-12" fill="#FFEBF1"></path>
                <path d="M529.494572,79.1478718 C535.845687,89.2442035 560.964822,107.231308 573.880537,112.295887 C579.025679,114.313717 568.164738,161.796841 572.697144,174.357244 C572.697144,174.357244 591.838758,182.692206 602.512902,169.163408 C609.170899,160.724837 612.905823,119.551664 597.400603,93.8317665 C589.596161,80.8846214 551.742978,60.9330308 539.587796,54.9544267 C525.673433,48.1079608 525.092513,72.151633 529.494572,79.1478718" id="Fill-14" fill="#1E1240"></path>
                <path d="M512.339875,31.8717871 C512.339875,31.8717871 510.735165,21.5227543 513.936355,18.8171383 C520.830435,12.9885398 527.04457,21.3846702 528.297478,23.6023201 C530.697342,27.8517775 530.605791,32.4303524 526.106432,37.1553172 C523.010165,40.4070398 513.08874,38.1021789 512.339875,31.8717871" id="Fill-16" fill="#1E1240"></path>
                <path d="M525.085412,34.7076412 L527.060552,48.5840917 C526.721397,50.4831889 515.412795,53.8493998 512.833568,50.8958146 C512.080005,50.0308289 512.667598,48.2590853 513.87165,46.4435321 L520.849583,36.6322091 L525.085412,34.7076412 Z" id="Fill-18" fill="#FFC9A7"></path>
                <path d="M519.757025,38.6262458 C521.895069,38.6453087 524.820125,38.630482 524.820125,38.630482 C524.820125,38.630482 524.02706,42.0543843 520.682266,44.0951699 C518.911493,45.1764579 517.011569,45.4888771 515.298308,45.2855399 L519.757025,38.6262458 Z" id="Fill-20" fill="#1E1240"></path>
                <path d="M523.143621,28.9298541 L524.784109,37.2253612 C525.109587,40.002066 523.194005,42.5416108 520.456164,42.9456987 C518.268511,43.2663226 516.895056,43.103466 514.222713,42.442879 C511.996769,41.893238 511.097927,39.563371 511.452627,36.5729171 C511.913133,32.692859 513.428669,29.2514958 514.342626,27.4570199 C516.424474,23.3632125 521.682499,23.6024081 523.143621,28.9298541" id="Fill-22" fill="#FFC9A7"></path>
                <path d="M516.978629,34.0069339 C516.978629,34.0069339 515.088345,34.2524205 512.533988,33.5880399 C512.533988,33.5880399 512.260837,35.3628554 513.214886,36.1118505 C514.169925,36.859801 516.124537,36.0585747 516.978629,34.0069339" id="Fill-24" fill="#FFFFFF"></path>
                <path d="M513.675655,39.330887 C516.310257,39.12196 517.798889,43.287054 522.815712,40.1169489 C523.751365,39.5253339 524.400782,37.910804 524.747548,36.9468439 L524.783456,37.1309478 C525.114833,39.9524965 523.16453,42.5330551 520.377064,42.9426348 C518.149759,43.269471 516.751409,43.10295 514.031655,42.4327288 C512.648694,42.0924467 511.771519,41.0757376 511.37756,39.6473803 C511.82692,39.7766668 512.871322,39.3950131 513.675655,39.330887" id="Fill-26" fill="#FFAA74"></path>
                <path d="M520.899377,25.247155 C520.899377,25.247155 522.487715,28.5165517 522.115055,30.1273326 C521.741388,31.7381136 521.451317,32.3984402 521.920667,32.9017443 C522.390018,33.4060882 524.058932,32.3506055 524.220082,30.654554 C524.381233,28.9585025 524.197924,24.6513013 520.899377,25.247155" id="Fill-28" fill="#1E1240"></path>
                <path d="M522.483005,32.6229238 C522.660654,32.1027222 522.757938,31.5622252 522.823499,31.0153192 C522.947219,29.9770524 523.370192,28.4634473 524.804072,29.4066465 C526.890389,30.7792524 525.929182,36.2739485 523.339526,36.3850388 C521.414997,36.4683565 522.035711,33.9335754 522.483005,32.6229238" id="Fill-30" fill="#FFC9A7"></path>
                <path d="M515.298308,52.0407563 C515.298308,52.0407563 520.193217,50.6949007 522.413182,48.9851306 C523.87243,47.8620157 526.775382,43.6644518 526.775382,43.6644518 C526.775382,43.6644518 529.997544,46.5621721 529.856593,50.2954315 L517.585639,57.6594684 C517.585639,57.6594684 516.806267,54.7010957 516.366835,53.79863 C516.127427,53.3060907 515.298308,52.0407563 515.298308,52.0407563" id="Fill-32" fill="#FFFFFF"></path>
                <path d="M515.149264,52.2000284 L514.897431,50.3768388 C514.773056,49.4777745 515.132818,45.2006927 515.298308,44.7840532 C515.298308,44.7840532 512.214637,47.1993095 511.027423,48.1599822 C509.842266,49.121699 509.137133,50.0009234 509.137133,50.0009234 L511.033591,55.9800664 C511.033591,55.9800664 513.910656,51.9003403 515.149264,52.2000284" id="Fill-34" fill="#FFFFFF"></path>
                <g id="Group-38" transform="translate(438.563669, 0.000000)">
                    <mask id="mask-4" fill="white">
                        <use xlink:href="#path-3"></use>
                    </mask>
                    <g id="Clip-37"></g>
                    <path d="M0.0937525527,13.9139871 C0.0937525527,13.9139871 0.512712481,5.90673013 1.91232617,3.55171459 C3.31296671,1.19669905 9.60044623,-1.06950576 10.9908182,1.61931562 C12.3822169,4.308137 9.97114362,6.88160652 10.2946053,7.61863349 C10.6160133,8.35463964 12.2281875,8.55471899 11.3902677,10.6596353 C10.5523478,12.7645517 5.78051747,21.2658822 0.0937525527,13.9139871" id="Fill-36" fill="#FFC9A7" mask="url(#mask-4)"></path>
                </g>
                <path d="M582.483949,168.92293 C582.483949,168.92293 583.63607,177.018437 582.712923,179.650987 C581.787703,182.281454 576.006375,185.780413 574.103095,183.361341 C572.199815,180.94227 574.082373,177.893177 573.618209,177.220461 C573.155081,176.546703 571.519111,176.662293 571.936651,174.391094 C572.355227,172.118854 575.413737,162.676872 582.483949,168.92293" id="Fill-39" fill="#FFC9A7"></path>
                <path d="M517.047112,53.311674 L522.658363,52.4205327 C523.340503,52.3126683 523.842475,52.950782 523.663348,53.69676 L522.518811,58.4478334 C522.33656,59.2008679 521.525282,59.5859539 521.004565,59.1655852 L517.242902,56.1302612 C517.242902,56.1302612 516.336853,56.436717 516.034837,56.3742161 C515.691164,56.3056668 514.892383,55.5869069 514.892383,55.5869069 L510.329857,56.7976091 C509.59877,57.1272507 508.9385,56.4488139 509.19261,55.6292462 L511.081773,50.7148641 C511.320262,49.9477165 512.151327,49.5787598 512.699121,49.9971123 L517.047112,53.311674 Z" id="Fill-41" fill="#1E1240"></path>
                <path d="M354.838556,58.4384127 C365.786355,58.538106 387.656163,90.7328934 390.591943,90.1429554 C399.440545,88.365947 389.755359,53.0374994 402.650716,54.3355686 C407.678472,54.8412297 423.532303,111.604777 398.511122,115.484595 C371.145236,119.728243 353.6399,88.6074721 347.301049,74.818956 C345.03268,69.883621 346.147781,63.9482692 350.273965,60.4035023 C351.633543,59.2349318 353.178799,58.4229962 354.838556,58.4384127" id="Fill-43" fill="#FFC9A7"></path>
                <path d="M405.984896,59.3388704 C403.886844,60.5905659 402.074797,63.1615606 401.982904,65.9753146 C401.822866,70.8970794 408.446389,80.9956599 405.744322,82.6540028 C403.04019,84.3113213 402.354606,88.0018767 404.246156,94.7028518 C406.138739,101.402803 398.32164,104.72461 389.754941,103.675726 C381.189275,102.627866 374.675198,97.3107213 366.926244,86.8782188 C362.277904,80.6197416 352.904819,74.6388498 346.146037,70.8520102 C346.275101,72.2491563 346.632348,73.6391324 347.240493,74.9584317 C353.58524,88.7004497 371.106859,119.71525 398.498198,115.485913 C419.180316,112.294192 411.961038,73.160784 405.984896,59.3388704" id="Fill-45" fill="#FFAA74"></path>
                <path d="M348.775375,29.0511187 C348.775375,29.0511187 350.846768,25.5905934 354.93005,27.3881355 C360.547126,29.8605262 356.203254,37.4256105 358.282854,39.1122185 C360.531737,40.936467 363.206389,40.2544281 364.430347,44.8273752 C366.642295,53.1042861 349.935725,59.0957507 339.05655,51.078713 C328.178402,43.0616753 337.341162,35.8396648 339.187872,34.9799261 C341.033556,34.1222417 341.787629,27.4107332 348.775375,29.0511187" id="Fill-47" fill="#1E1240"></path>
                <path d="M378.031009,183.211151 C370.515712,144.571053 364.271854,133.695291 359.873335,126.846597 C359.335498,126.008653 360.137102,124.079531 359.788847,123.156146 C348.342805,126.69939 332.707403,148.194592 332.707403,148.194592 C335.038031,148.342828 344.632552,196.058243 346.185274,215.015938 C348.008975,237.295553 310.400551,212.310637 285.654887,221.036983 C285.63531,221.588749 286.348305,231.333185 288.860273,232.764071 C394.798754,293.081577 379.82483,192.437792 378.031009,183.211151" id="Fill-49" fill="#FFC9A7"></path>
                <path d="M378.030829,183.442999 C377.545533,180.960179 377.066419,178.59637 376.592457,176.337209 C374.514236,179.715691 372.71627,184.072938 372.819306,188.962657 C373.061439,200.306682 371.730223,221.111073 366.083891,225.625291 C360.438589,230.141561 366.600098,238.513384 352.905681,245.313439 C342.29202,250.583789 327.810414,241.772855 318.480572,238.011691 C309.149699,234.250526 295.887,231.582007 292.528051,232.702354 C291.925295,232.902416 291.520366,233.436941 291.255565,234.172553 C394.572109,291.422075 379.811278,192.568902 378.030829,183.442999" id="Fill-51" fill="#FFAA74"></path>
                <path d="M402.451912,58.3171797 C402.451912,58.3171797 404.942863,53.6920147 404.957185,51.9043743 C404.973553,50.1157205 402.211512,46.7380529 400.513369,47.7778029 C398.816249,48.8165396 399.295002,51.0673046 398.863306,51.3713251 C398.431609,51.6743321 397.456711,51.2456633 397.21222,52.705975 C396.966705,54.1662867 396.752902,60.5274086 402.451912,58.3171797" id="Fill-53" fill="#FFC9A7"></path>
                <path d="M358.387585,96.6168767 C359.851144,91.0628117 365.470182,89.0525832 367.11553,83.3464927 C370.096054,73.0159524 364.930976,69.8080099 359.575892,61.9211759 C354.134536,53.9049149 333.932292,55.2207568 328.431366,58.7656206 C322.647999,62.4922985 326.341302,66.4007908 325.999291,78.6234317 C321.356986,97.1951897 305.674828,118.19011 298.843861,138.41874 C292.006731,158.667914 304.945616,198.629037 305.69845,220.080034 C305.952134,227.293025 304.253379,241.662512 303.993533,247.280264 C303.154426,265.431897 313.112787,319.474891 313.112787,319.474891 C313.112787,319.474891 322.126253,319.888852 322.661351,319.429694 C324.63433,310.472519 336.982656,265.191533 338.021013,225.492345 C339.037801,186.649842 329.001384,148.189457 332.641279,148.420577 C332.641279,148.420577 356.90554,102.239764 358.387585,96.6168767" id="Fill-55" fill="#FFC9A7"></path>
                <path d="M315.980628,318.658095 C318.012529,320.299203 326.40941,330.144819 329.191583,330.270662 C330.692127,330.33874 331.90284,330.098402 332.703473,329.86219 C330.867876,328.573853 328.757864,325.415416 326.796879,321.95372 C325.477222,319.624605 324.60259,316.503302 324.367231,311.80897 L312.628042,313.004472 C312.628042,313.004472 312.201517,316.87464 311.979519,317.646198 C313.067928,317.561616 314.726748,317.645167 315.980628,318.658095" id="Fill-57" fill="#FFC9A7"></path>
                <g id="Group-61" transform="translate(310.859305, 316.847176)">
                    <mask id="mask-6" fill="white">
                        <use xlink:href="#path-5"></use>
                    </mask>
                    <g id="Clip-60"></g>
                    <path d="M29.222399,16.0187912 C28.1421396,15.1012219 26.2403901,14.0541987 22.9092479,13.0641353 C22.5796251,12.9667859 22.2356261,12.7793367 21.8834122,12.5307852 C21.0824594,12.7669091 19.8738422,13.0092468 18.3746228,12.9398595 C15.5949058,12.8135125 7.20441178,2.92841244 5.17430448,1.28175879 C3.92153215,0.263733289 2.26417596,0.179847159 1.1767285,0.26476892 C0.678700148,2.00359375 -0.0421573761,5.12084375 0.540073701,7.02329832 C1.38312787,9.77393487 3.47176634,17.6416253 3.33005931,20.153031 L6.78545186,19.9635105 L6.39421722,12.7140919 C6.39421722,12.7140919 9.00552873,12.2905188 10.4688079,13.7486875 C11.0181794,14.2944652 11.5716583,15.2544953 12.0460688,16.2393806 C13.0328837,18.2837167 15.167731,19.501619 17.4186138,19.3773433 L28.280766,18.7808197 C29.6814066,18.7031473 30.2954704,16.9311823 29.222399,16.0187912" id="Fill-59" fill="#098485" mask="url(#mask-6)"></path>
                </g>
                <path d="M284.725599,224.493025 C283.035563,226.45575 273.017083,234.471657 272.805317,237.222732 C272.690738,238.706744 272.892274,239.914732 273.101994,240.714286 C274.434995,238.935916 277.631947,236.941615 281.12353,235.106207 C283.47444,233.870718 286.594665,233.098665 291.255565,233.010052 L290.434077,221.345737 C290.434077,221.345737 286.608988,220.804893 285.852973,220.561462 C285.902078,221.641114 285.769085,223.281981 284.725599,224.493025" id="Fill-62" fill="#FFC9A7"></path>
                <g id="Group-66" transform="translate(266.050757, 218.882060)">
                    <mask id="mask-8" fill="white">
                        <use xlink:href="#path-7"></use>
                    </mask>
                    <g id="Clip-65"></g>
                    <path d="M3.3226715,28.6817499 C4.27390097,27.635135 5.3805601,25.771076 6.47478485,22.4839072 C6.58254941,22.1595896 6.78149937,21.822995 7.04158499,21.4792388 C6.82916446,20.6761179 6.62606972,19.4627403 6.74108766,17.9721069 C6.95558058,15.2087571 17.1030645,7.15708624 18.8148631,5.18560343 C19.8717847,3.96915658 20.0075266,2.3209683 19.9567529,1.23649929 C18.2335562,0.686080112 15.1384337,-0.127271646 13.2173232,0.395524264 C10.4403134,1.14953715 2.50614772,2.98801905 -0.000414479074,2.77010217 L0.081445138,6.21687207 L7.34311851,6.0490863 C7.34311851,6.0490863 7.68506375,8.66204277 6.18154091,10.0759448 C5.61784937,10.6069254 4.64071495,11.1276751 3.64078419,11.5706705 C1.56631642,12.490423 0.279358896,14.5795605 0.333241175,16.8231836 L0.590218201,27.658666 C0.624412725,29.0561987 2.37662301,29.7222263 3.3226715,28.6817499" id="Fill-64" fill="#098485" mask="url(#mask-8)"></path>
                </g>
                <path d="M335.680322,181.375415 C332.876284,183.526718 327.340505,188.489524 326.652664,194.586597 C325.726247,202.793839 329.462898,231.997883 329.345159,243.766293 C329.228454,255.535732 325.028078,255.384565 324.368122,271.166616 C323.786659,285.078102 315.495383,303.970905 324.689321,311.80897 C328.796745,294.933786 337.371006,258.41202 338.231324,225.677659 C338.643409,210.011811 337.251202,194.409721 335.680322,181.375415" id="Fill-67" fill="#FFAA74"></path>
                <path d="M364.430346,44.7602236 C363.207406,40.1551815 360.531712,40.8418529 358.282816,39.0052137 C357.351248,38.2430497 357.708281,36.2926546 357.881667,34.1478405 C357.717514,35.2895352 357.407675,36.3278155 356.848529,36.9844968 C354.891005,39.2865008 345.215212,42.1841715 342.607231,41.288603 C341.370954,40.86357 339.131292,38.6742877 337.278415,36.2150939 C334.34931,38.841819 330.492741,44.6981749 339.057423,51.0529882 C349.935636,59.1244801 366.642307,53.0923196 364.430346,44.7602236" id="Fill-69" fill="#1E1240"></path>
                <path d="M378.547567,183.122306 C371.0617,144.533012 364.031513,133.639678 360.913599,126.13689 C353.450311,108.171525 358.386837,103.007575 359.868821,97.3809975 C361.332331,91.8212441 365.420103,89.0794056 367.06527,83.3695553 C370.043606,73.0303466 364.882319,69.8197123 359.531166,61.9252325 C354.093804,53.9032732 333.90639,55.2202192 328.408475,58.7680574 C322.630379,62.4978625 326.319945,66.4096343 325.978186,78.6425311 C321.340314,97.2298726 305.668641,118.24241 298.843714,138.488013 C293.955425,152.985729 299.177263,177.573862 302.821672,198.256391 C309.589125,200.389618 322.181884,203.490249 337.50564,203.186971 C339.791221,203.141737 342.13838,203.019397 344.536854,202.807617 C355.547051,201.837127 367.617422,198.958557 379.752449,192.768602 C379.374769,188.031297 378.819538,184.520469 378.547567,183.122306 L0.096268366,58.2192691" id="Fill-71" fill="#098485"></path>
                <path d="M380.312556,192.565821 C379.932614,187.829758 379.374059,184.319088 379.10046,182.91996 C371.569776,144.332405 364.498531,133.439563 361.36195,125.937113 C353.852947,107.972558 358.82006,102.808841 360.309884,97.1825168 C361.782157,91.624042 365.894402,88.8823271 367.549418,83.1717062 C370.545586,72.8329636 365.353399,69.6224741 359.970208,61.7293781 C358.740561,59.9272686 356.760324,58.6001018 354.369171,57.6594684 C355.170352,59.2559751 356.420648,61.3603209 358.295576,63.6044767 C362.236434,68.3220356 365.01269,77.2750146 364.008117,82.1334114 C363.004577,86.9928363 359.985695,91.9612308 357.476843,91.4646997 C354.969024,90.9691967 338.797772,90.3307997 336.049392,86.4335964 C333.301012,82.5374212 332.650569,90.7903222 336.685381,94.1118373 C340.71916,97.4323244 348.607072,101.683165 349.102648,108.736373 C349.598223,115.789581 340.857508,127.771091 348.585391,136.706593 C356.312241,145.643124 358.985252,138.797575 360.739383,149.955645 C362.492482,161.112687 356.263716,158.669097 355.840411,167.163581 C355.417107,175.659094 357.207374,178.216794 361.157525,187.738265 C362.788795,191.669393 363.172866,195.796871 363.064459,199.289037 C368.727443,197.69253 374.512256,195.506971 380.312556,192.565821" id="Fill-73" fill="#066364"></path>
                <path d="M319.502456,95.7259136 C319.502456,95.7259136 337.802207,108.542458 357.108794,107.23957 C357.108794,107.23957 356.963933,109.840192 356.993727,110.708097 C357.023521,111.57394 357.348175,114.15704 357.348175,114.15704 C357.348175,114.15704 334.049176,115.584651 316.460374,101.851756 L319.502456,95.7259136 Z" id="Fill-75" fill="#1E1240"></path>
                <path d="M354.832243,68.4650843 C354.276778,65.995673 353.307559,60.1615862 351.22017,56.9353536 C347.438457,56.0103499 343.083695,55.8124278 339.116827,56.1057217 C338.484818,56.4564437 337.838327,57.0296999 337.746266,57.9300916 C337.560077,59.7503595 351.625649,72.611193 353.165848,76.311208 C354.705014,80.0132739 355.589413,71.8287342 354.832243,68.4650843" id="Fill-77" fill="#FFC9A7"></path>
                <path d="M332.747951,69.085043 C325.876444,77.0719571 295.456942,96.0979055 295.456942,96.0979055 C295.456942,96.0979055 332.793192,98.6855501 329.57182,110.751591 C328.316379,115.456212 274.289245,123.491638 274.45273,99.0860312 C274.632666,72.3941728 325.294479,56.7754102 330.788189,58.324694 C333.388524,59.0585653 336.271616,64.9883691 332.747951,69.085043" id="Fill-79" fill="#FFC9A7"></path>
                <path d="M342.203804,46.4634551 L341.666152,58.4173389 C341.586617,60.3847853 346.42019,65.5946083 349.701251,63.2001272 C350.662027,62.4983497 349.516731,59.7560668 348.699117,57.6857204 L346.615315,47.3411915 L342.203804,46.4634551 Z" id="Fill-81" fill="#FFC9A7"></path>
                <path d="M347.826358,53.1810631 C343.47824,51.9557484 342.785396,48.1428571 342.785396,48.1428571 L346.895218,48.5104516 L347.826358,53.1810631 Z" id="Fill-83" fill="#311E69"></path>
                <path d="M344.483651,37.9437595 L342.750209,42.1730794 C341.376766,45.5247497 342.771385,49.5131462 346.081968,50.9596991 C349.137425,52.2979377 352.66078,51.1925243 354.098761,47.2567665 C355.377414,43.7583152 353.572375,40.0401984 353.038931,38.1907566 C351.824815,33.9756087 346.830202,33.2275313 344.483651,37.9437595" id="Fill-85" fill="#FFC9A7"></path>
                <path d="M347.826358,46.0372356 C347.826358,46.0372356 349.992809,45.2290969 352.307213,45.3577279 C352.307213,45.3577279 352.274452,46.4315178 351.235612,47.2788051 C350.195716,48.1260924 348.774312,47.0383209 347.826358,46.0372356" id="Fill-87" fill="#FFFFFF"></path>
                <path d="M346.88075,49.5435717 C348.240784,49.9150565 350.803076,49.9551599 352.002178,49.3588847 C353.066644,48.8301522 354.283627,47.2312903 354.54764,46.8735252 C354.525552,46.9400125 354.508722,47.0086105 354.48453,47.0761532 C352.9846,51.179371 349.309458,52.331818 346.121319,50.9366395 C343.993439,50.0068723 342.627094,48.070297 342.225289,45.9036545 C343.668419,48.1093451 345.65956,49.2100798 346.88075,49.5435717" id="Fill-89" fill="#FFAA74"></path>
                <path d="M343.100319,41.9424568 C342.992182,41.5363842 342.944234,41.1197092 342.91975,40.6987932 C342.874863,39.8993709 342.630024,38.7235628 341.523147,39.3756115 C339.91231,40.3245279 340.375464,44.5665553 342.29337,44.7754229 C343.717518,44.9302182 343.372703,42.9645299 343.100319,41.9424568" id="Fill-91" fill="#FFC9A7"></path>
                <path d="M332.75599,68.859155 C334.081529,67.3132812 334.495375,65.5075274 334.359134,63.8172757 C332.920914,65.6488113 330.173545,68.2537995 325.789228,69.0520025 C318.803003,70.3225272 315.797493,68.3311447 312.710032,71.7993059 C309.621547,75.2664358 296.897808,84.5901483 296.897808,84.5901483 C296.897808,84.5901483 283.995828,90.6251406 288.164003,95.4700473 C292.332177,100.314954 298.539878,96.2950633 304.459731,100.917216 C310.379583,105.538337 321.625151,106.129254 323.490535,105.676527 C324.212718,105.501211 325.757473,104.985576 327.379055,104.42044 C319.595868,97.5181496 295.604025,95.8485234 295.604025,95.8485234 C295.604025,95.8485234 325.910104,76.8391226 332.75599,68.859155" id="Fill-93" fill="#FFAA74"></path>
                <path d="M326.119761,103.596951 C326.119761,103.596951 332.241514,100.85473 331.610553,103.82674 C331.352247,105.039743 337.578139,101.753552 335.715885,106.730627 C334.905232,108.897358 330.829509,111.980196 326.751743,110.412341 C326.692527,110.389972 326.634331,110.366587 326.576136,110.342184 C323.744978,109.155617 323.51628,105.221745 326.119761,103.596951" id="Fill-95" fill="#FFC9A7"></path>
            </g>
        </g>
    </g>
</svg>