<svg width="1440" height="752" xmlns="http://www.w3.org/2000/svg" xmlns:xlink="http://www.w3.org/1999/xlink"><defs><path d="M8847.66 420.641l-193.619 1377.67-4727.378-664.39v17.769h-1440V931.542L1085.376 734.604c3.835.539 7.741 1.07 11.72 1.595 490.819 64.683 786.906-693.004 968.307-511.907 145.044 144.8 1249.736 429.294 1761.285 332.796 224.445-42.34 673.877 43.092 861.546-79.284 371.106-241.997 997.409 50.727 1575.68-36.47 336.564-50.748 214.842-165.909 676.368-124.492 558.08 50.08 658.946 162.95 1280.875 207.727 387.027 27.862 614.854-21.04 626.503-103.928zm0 0C8863.537 307.669 8477.833 131.566 7546.285.646l1334.052 187.489-32.677 232.506zM.214 157.251z" id="a"/></defs><use fill="#09333E" xlink:href="#a" transform="translate(-2485.663 -399.69)" fill-rule="evenodd"/></svg>