<svg width="148" height="46" xmlns="http://www.w3.org/2000/svg"><path d="M128 3.469C129.468 1.372 131.886 0 134.616 0h5.287C144.368 0 148 3.67 148 8.179v5.341c0 4.51-3.632 8.18-8.097 8.18h-4.633l-5.883 5.268a1.715 1.715 0 0 1-1.387.42 1.702 1.702 0 0 1-1.385-.42L120.73 21.7h-4.633c-4.465 0-8.097-3.67-8.097-8.18V8.18C108 3.669 111.632 0 116.097 0h5.287c2.73 0 5.149 1.372 6.616 3.469zM0 18.772h19.934v4.557h-7.481V45.61H7.48V23.33H0v-4.558zm28.271 8.259c.87 0 1.552.155 2.159.36v4.586c-1.118-.506-2.275-.506-2.738-.506-3.2 0-4.511 2.881-4.511 7.712v6.427h-4.703V27.419h4.703v3.003c1.273-2.544 3.046-3.391 5.09-3.391zM45.4 37.118v-9.699h4.703V45.61h-4.703v-2.57C44.396 44.986 42.236 46 40.424 46c-4.241 0-7.095-2.688-7.095-7.83V27.42h4.744v9.893c0 2.96 1.772 4.052 3.431 4.052 1.966 0 3.895-1.091 3.895-4.247zm25.844-.661c0 .467-.037 1.206-.078 1.635H57.44c.307 2.415 2.312 3.896 4.974 3.896 1.811 0 3.66-.78 4.508-2.337 1.121.623 2.43 1.323 3.589 1.947C68.892 44.714 65.42 46 62.104 46c-5.127 0-9.33-3.817-9.33-9.543 0-5.727 4.203-9.426 9.33-9.426 5.13 0 9.14 3.7 9.14 9.426zM57.401 34.86h9.255c-.348-2.493-2.2-3.857-4.51-3.857-2.47 0-4.398 1.402-4.745 3.857zm37.565-7.83c4.354 0 6.938 2.844 6.938 8.18v10.4h-4.665v-9.894c0-2.61-1.463-4.05-3.394-4.05-2.12 0-3.661 1.48-3.661 4.245v9.699h-4.706V35.599c-.038-2.531-1.463-3.933-3.315-3.933-1.928 0-3.778 1.129-3.778 4.245v9.699H73.68V27.419h4.705v2.688c1.002-2.22 3.47-3.038 5.165-3.038 2.854.157 4.744 1.168 5.745 3.388 1.699-2.998 4.242-3.426 5.67-3.426zm27.856 9.427c0 .467-.037 1.206-.078 1.635h-13.726c.31 2.415 2.314 3.896 4.976 3.896 1.811 0 3.66-.78 4.508-2.337 1.121.623 2.43 1.323 3.589 1.947-1.62 3.116-5.09 4.402-8.408 4.402-5.127 0-9.33-3.817-9.33-9.543 0-5.727 4.203-9.426 9.33-9.426 5.13 0 9.14 3.7 9.14 9.426zM108.98 34.86h9.252c-.345-2.493-2.197-3.857-4.508-3.857-2.468 0-4.395 1.402-4.744 3.857zm7.117-31.378c-2.564 0-4.65 2.108-4.65 4.697v5.341c0 2.59 2.086 4.698 4.65 4.698h5.287c.421 0 .829.156 1.144.438l3.506 3.14V8.179c0-2.59-2.086-4.697-4.65-4.697h-5.287zm18.519 0c-2.563 0-4.65 2.108-4.65 4.697v13.616l3.506-3.139a1.713 1.713 0 0 1 1.144-.438h5.287c2.564 0 4.65-2.107 4.65-4.698V8.18c0-2.59-2.086-4.697-4.65-4.697h-5.287z" fill="#09333E" fill-rule="evenodd"/></svg>