<?xml version="1.0" encoding="UTF-8"?>
<svg width="32px" height="32px" viewBox="0 0 32 32" version="1.1" xmlns="http://www.w3.org/2000/svg" xmlns:xlink="http://www.w3.org/1999/xlink">
    <!-- Generator: Sketch 55.1 (78136) - https://sketchapp.com -->
    <title>Artboard</title>
    <desc>Created with Sketch.</desc>
    <g id="Artboard" stroke="none" stroke-width="1" fill="none" fill-rule="evenodd">
        <path d="M15.7966246,26 C15.5081042,26 15.2229257,25.890328 14.9981805,25.6800988 L10.8892705,21.8359918 L7.65399825,21.8359918 C4.53625072,21.8359918 2,19.1582894 2,15.8666588 L2,11.9687449 C2,8.67770247 4.53625072,6 7.65399825,6 L11.3460017,6 C14.4637493,6 17,8.67770247 17,11.9687449 L17,24.729216 C17,25.2293556 16.7226193,25.682745 16.2901172,25.8879758 C16.1319322,25.9632466 15.9634429,26 15.7966246,26 L15.7966246,26 Z M7.65399825,8.54127402 C5.86355619,8.54127402 4.4070292,10.0790344 4.4070292,11.9687449 L4.4070292,15.8666588 C4.4070292,17.7569574 5.86355619,19.2947178 7.65399825,19.2947178 L11.3460017,19.2947178 C11.6398136,19.2947178 11.9244351,19.4085062 12.1444459,19.614619 L14.5929708,21.9056762 L14.5929708,11.9687449 C14.5929708,10.0790344 13.1364438,8.54127402 11.3460017,8.54127402 L7.65399825,8.54127402 Z" id="Fill-12" fill="#09333E"></path>
        <path d="M16.2036985,26 C16.0360385,26 15.8681,25.9632466 15.7101877,25.8882698 C15.2782265,25.682745 15,25.2293556 15,24.729216 L15,11.9687449 C15,8.67770247 17.5366234,6 20.6536512,6 L24.3457918,6 C27.4636551,6 30,8.67770247 30,11.9687449 L30,15.8666588 C30,19.1582894 27.4636551,21.8359918 24.3457918,21.8359918 L21.1103994,21.8359918 L17.0021723,25.6800988 C16.7771403,25.890328 16.4919512,26 16.2036985,26 L16.2036985,26 Z M20.6536512,8.54127402 C18.8639782,8.54127402 17.4071186,10.0790344 17.4071186,11.9687449 L17.4071186,21.9050881 L19.8551774,19.614619 C20.0751963,19.4085062 20.3595499,19.2947178 20.6536512,19.2947178 L24.3457918,19.2947178 C26.1363003,19.2947178 27.5928814,17.7569574 27.5928814,15.8666588 L27.5928814,11.9687449 C27.5928814,10.0790344 26.1363003,8.54127402 24.3457918,8.54127402 L20.6536512,8.54127402 Z" id="Fill-14" fill="#09333E"></path>
    </g>
</svg>
